<?xml version="1.0" standalone="no"?>
<!DOCTYPE svg PUBLIC "-//W3C//DTD SVG 20010904//EN"
 "http://www.w3.org/TR/2001/REC-SVG-20010904/DTD/svg10.dtd">
<svg version="1.0" xmlns="http://www.w3.org/2000/svg"
 width="1280.000000pt" height="971.000000pt" viewBox="0 0 1280.000000 971.000000"
 preserveAspectRatio="xMidYMid meet">
<metadata>
Created by potrace 1.15, written by Peter Selinger 2001-2017
</metadata>
<g transform="translate(0.000000,971.000000) scale(0.100000,-0.100000)"
fill="#673ab7" stroke="none">
<path d="M6430 9704 c-14 -2 -63 -9 -110 -15 -114 -15 -296 -68 -411 -120
-182 -82 -324 -177 -464 -310 -44 -42 -1137 -934 -2430 -1983 -2584 -2096
-2397 -1936 -2570 -2196 -522 -781 -589 -1782 -175 -2625 131 -267 270 -469
469 -677 405 -424 946 -704 1531 -793 163 -25 506 -31 674 -11 324 38 578 110
861 245 402 192 741 476 1012 846 56 76 127 192 677 1093 304 498 372 602 390
602 39 -1 1636 -186 1640 -191 2 -2 -11 -49 -29 -104 -74 -226 -113 -458 -122
-726 -15 -453 70 -843 272 -1254 260 -529 675 -946 1200 -1205 182 -90 304
-137 480 -185 519 -142 1058 -123 1580 55 153 52 429 188 568 279 622 408
1049 1055 1171 1776 35 201 35 207 66 1570 6 248 15 639 20 870 21 888 30
1305 40 1730 5 242 15 617 21 833 13 427 13 430 -41 653 -71 297 -209 539
-434 765 -138 138 -254 223 -411 305 -390 203 -847 240 -1270 103 -136 -44
-349 -155 -465 -242 -123 -93 -283 -255 -362 -367 -94 -135 -156 -258 -438
-870 -150 -324 -273 -591 -275 -593 -1 -2 -128 29 -281 69 -154 39 -382 98
-509 131 -126 32 -246 63 -266 68 l-36 10 50 96 c60 117 109 258 139 402 20
92 23 136 23 322 0 187 -3 229 -24 324 -72 340 -235 635 -479 868 -257 246
-572 396 -930 443 -97 13 -288 18 -352 9z m-376 -456 c-27 -29 -650 -696
-1383 -1483 -734 -786 -1353 -1450 -1376 -1474 l-43 -44 -579 -53 c-318 -29
-586 -53 -596 -54 -10 0 173 157 405 349 233 191 1061 874 1840 1517 l1418
1169 167 61 c93 34 174 62 182 63 8 0 -8 -23 -35 -51z m4026 -1453 c-111 -446
-237 -954 -280 -1130 -43 -176 -142 -576 -219 -890 -78 -313 -144 -576 -149
-584 -7 -12 -943 -453 -950 -447 -1 2 52 131 119 287 177 415 350 822 579
1359 111 261 262 615 334 785 73 171 222 521 332 779 l199 469 115 99 c63 55
116 95 117 91 2 -5 -87 -373 -197 -818z m-7212 -2065 c492 -53 921 -253 1271
-594 423 -413 643 -933 643 -1521 0 -344 -68 -636 -217 -940 -498 -1013 -1713
-1460 -2751 -1011 -635 275 -1101 850 -1239 1529 -173 849 191 1719 920 2200
195 128 475 246 705 297 206 46 467 61 668 40z m7434 -965 c970 -127 1727
-899 1838 -1873 18 -149 8 -457 -18 -602 -139 -771 -686 -1403 -1427 -1649
-764 -254 -1605 -53 -2177 520 -619 622 -790 1562 -429 2369 295 661 934 1138
1651 1234 143 19 422 20 562 1z"/>
<path d="M4001 4513 c-7 -48 -28 -151 -46 -228 -205 -872 -670 -1541 -1267
-1825 -194 -92 -376 -137 -589 -147 -212 -9 -426 26 -616 101 -48 19 -89 33
-91 31 -7 -7 146 -160 223 -222 451 -362 1057 -473 1607 -292 129 42 336 146
443 224 616 443 868 1204 635 1917 -57 175 -165 382 -262 501 l-24 29 -13 -89z"/>
<path d="M11366 3537 c-110 -644 -392 -1244 -770 -1636 -221 -229 -461 -385
-726 -471 -175 -57 -279 -74 -465 -73 -219 0 -393 33 -583 112 l-73 30 32 -40
c17 -22 69 -74 115 -116 268 -245 602 -400 957 -444 134 -16 402 -6 529 20
720 147 1254 715 1359 1446 5 39 10 139 10 222 0 267 -59 524 -175 754 -51
101 -154 267 -180 288 -10 8 -17 -13 -30 -92z"/>
</g>
</svg>
