<?xml version="1.0" standalone="no"?>
<!DOCTYPE svg PUBLIC "-//W3C//DTD SVG 20010904//EN"
 "http://www.w3.org/TR/2001/REC-SVG-20010904/DTD/svg10.dtd">
<svg version="1.0" xmlns="http://www.w3.org/2000/svg"
 width="1280.000000pt" height="930.000000pt" viewBox="0 0 1280.000000 930.000000"
 preserveAspectRatio="xMidYMid meet">
<metadata>
Created by potrace 1.15, written by Peter Selinger 2001-2017
</metadata>
<g transform="translate(0.000000,930.000000) scale(0.100000,-0.100000)"
fill="#3f51b5" stroke="none">
<path d="M5366 7435 c-3 -8 -1 -15 3 -15 5 0 11 7 15 15 3 8 1 15 -3 15 -5 0
-11 -7 -15 -15z"/>
<path d="M5015 7399 c-22 -6 -55 -9 -72 -7 -18 2 -33 0 -33 -4 0 -5 -17 -16
-37 -24 -21 -9 -46 -21 -56 -26 -10 -5 -22 -6 -27 -3 -6 4 -10 1 -10 -4 0 -6
-5 -11 -11 -11 -9 0 -143 -65 -272 -131 -18 -10 -35 -15 -39 -13 -3 2 -16 0
-29 -4 -17 -7 -27 -4 -42 11 -26 26 -42 9 -23 -28 14 -26 13 -29 -14 -51 -15
-13 -32 -24 -37 -24 -5 0 -28 -16 -51 -36 -34 -29 -45 -33 -61 -25 -11 6 -27
8 -36 4 -14 -5 -12 -8 11 -18 l29 -12 -30 -16 c-16 -9 -28 -16 -25 -17 3 0
-21 -28 -55 -62 -34 -36 -66 -80 -74 -103 -7 -22 -22 -52 -32 -67 -11 -14 -19
-34 -19 -45 0 -14 -20 -25 -82 -48 -44 -16 -91 -33 -102 -36 -210 -65 -229
-76 -272 -164 -10 -22 -36 -66 -57 -99 -21 -32 -36 -61 -33 -64 11 -10 -15
-42 -34 -42 -13 0 -20 -7 -20 -19 0 -19 25 -36 48 -32 9 1 12 -6 10 -21 -3
-25 -45 -39 -58 -18 -5 8 -11 6 -20 -5 -11 -13 -9 -15 10 -15 26 0 59 -36 60
-65 0 -15 -3 -16 -9 -7 -4 8 -17 13 -27 12 -32 -4 -40 0 -24 11 12 9 12 10 -3
5 -10 -3 -26 -6 -34 -6 -11 0 -7 -8 13 -27 16 -15 35 -26 43 -24 24 5 30 -20
16 -68 -15 -54 -15 -91 0 -91 5 0 2 -7 -8 -14 -9 -7 -19 -31 -22 -52 -5 -50
-27 -127 -38 -135 -5 -3 -7 -66 -5 -140 3 -116 6 -140 26 -181 l23 -46 -28
-32 c-69 -77 -109 -194 -97 -286 3 -30 10 -57 15 -60 5 -3 9 -17 9 -31 0 -14
9 -44 19 -67 10 -23 25 -61 32 -86 7 -25 16 -49 20 -55 15 -20 48 -118 43
-127 -3 -4 0 -8 5 -8 6 0 11 -6 11 -13 0 -8 19 -52 42 -98 23 -46 43 -86 43
-89 0 -3 13 -24 28 -47 15 -24 27 -45 27 -47 0 -3 14 -20 30 -38 17 -18 30
-38 30 -44 0 -7 4 -14 8 -16 7 -2 54 -67 132 -181 8 -12 31 -42 52 -66 21 -24
38 -48 38 -52 0 -11 22 -38 75 -93 22 -23 48 -52 59 -65 18 -24 18 -24 -4 -18
-21 5 -21 4 -15 -61 7 -69 38 -211 55 -247 12 -26 31 -109 37 -162 3 -24 9
-43 14 -43 5 0 14 -10 19 -22 6 -13 14 -30 19 -38 27 -42 64 -143 76 -202 11
-61 7 -86 -10 -58 -3 6 -19 10 -34 10 -16 0 -40 10 -55 21 -26 21 -28 21 -41
3 -15 -19 -19 -32 -16 -48 1 -5 -7 -15 -19 -23 -11 -8 -20 -21 -20 -29 0 -8
-9 -23 -20 -34 -19 -19 -22 -19 -57 -4 -76 33 -105 42 -168 50 -19 2 -25 0
-16 -5 11 -7 10 -11 -4 -19 -12 -6 -18 -21 -18 -41 0 -17 -5 -31 -10 -31 -5 0
-7 -7 -4 -15 4 -8 2 -17 -3 -20 -17 -10 -11 -25 9 -25 11 0 18 -7 17 -17 -1
-11 10 -20 32 -26 17 -6 32 -16 32 -23 0 -18 61 -34 78 -21 8 6 12 6 12 -2 0
-6 7 -11 15 -11 24 0 17 -20 -7 -21 l-23 0 23 -16 c12 -8 22 -22 22 -29 0 -12
143 -14 928 -12 l927 3 3 28 c3 23 0 27 -25 29 -61 3 -90 7 -128 17 -42 10
-236 41 -292 45 -18 2 -39 8 -46 14 -8 7 -34 15 -58 18 -24 3 -55 8 -69 10
-14 3 -47 7 -75 10 -27 3 -63 10 -78 16 -15 6 -30 8 -33 5 -3 -3 -31 3 -61 14
-31 10 -69 19 -84 19 -15 0 -35 3 -44 6 -13 5 -11 9 11 20 14 8 30 11 35 8 5
-3 9 0 9 6 0 6 4 9 9 5 5 -3 23 9 39 27 30 31 31 31 56 15 32 -21 36 -21 36 2
0 19 25 35 40 26 5 -3 15 4 23 16 9 13 17 16 22 10 3 -6 16 -11 28 -11 17 0
22 -6 22 -27 0 -16 -4 -34 -8 -40 -5 -8 -4 -13 3 -13 6 0 8 -4 5 -10 -3 -5 -2
-10 4 -10 13 0 24 43 18 67 -3 10 -8 28 -12 41 -5 19 -3 22 20 22 30 0 73 -34
56 -45 -17 -10 -13 -25 4 -19 11 5 13 2 9 -10 -4 -11 2 -19 21 -26 35 -13 35
-13 35 10 0 17 7 20 40 20 33 0 40 3 40 20 0 14 5 18 17 13 12 -5 15 -2 11 8
-3 8 1 20 8 27 12 11 16 8 24 -13 6 -15 10 -33 10 -40 0 -8 9 -19 20 -25 25
-13 27 -32 3 -23 -13 5 -10 -2 10 -26 15 -18 28 -38 29 -44 0 -7 2 -16 3 -22
2 -5 3 -16 4 -22 1 -15 37 -17 46 -3 10 16 35 11 35 -7 0 -14 2 -14 18 -2 9 8
35 21 57 28 87 28 94 33 82 58 -13 29 -3 40 18 19 19 -18 32 -21 37 -6 2 6 8
6 18 -1 13 -8 13 -11 -2 -20 -18 -10 -24 -34 -10 -42 4 -3 39 3 78 13 l72 17
16 -29 c17 -27 36 -38 36 -19 0 5 16 8 35 5 23 -3 35 0 36 8 1 7 2 22 2 33 2
21 7 25 33 25 12 0 15 -6 10 -24 -5 -20 13 -56 28 -56 18 0 66 25 70 36 3 8
15 14 26 14 11 0 20 6 20 13 0 19 -21 37 -42 37 -20 0 -24 20 -8 36 13 13 32
101 31 143 -1 19 -8 45 -16 57 -9 14 -11 25 -5 29 14 9 30 -3 30 -22 0 -36 36
-123 53 -129 9 -3 17 -13 17 -21 0 -9 5 -32 12 -50 11 -29 16 -33 48 -33 20 0
41 5 48 12 15 15 16 54 2 63 -5 3 -10 16 -10 28 0 13 -6 32 -14 43 -8 11 -17
48 -20 81 -3 33 -10 71 -15 84 -6 13 -15 62 -20 109 -6 47 -13 96 -17 110 -9
38 -24 174 -30 279 -5 68 -3 92 5 87 7 -5 11 3 11 23 0 20 -5 31 -14 31 -10 0
-15 18 -19 63 -3 34 -8 71 -11 82 -4 16 12 36 72 90 42 39 115 112 162 163 47
52 94 104 105 115 117 124 243 346 280 492 17 72 54 149 87 185 10 11 16 20
12 20 -3 0 0 10 9 23 8 12 25 47 38 77 12 30 26 57 29 60 3 3 18 36 34 75 15
38 31 72 35 75 13 10 201 381 201 398 0 9 22 64 52 132 6 14 14 32 16 40 3 8
7 93 9 189 l4 175 19 -32 c11 -17 32 -37 47 -45 41 -21 169 -37 294 -37 70 0
108 -4 104 -10 -3 -6 1 -7 9 -4 9 3 16 2 16 -4 0 -5 19 -14 43 -20 39 -10 42
-13 43 -47 0 -20 5 -40 10 -45 5 -5 62 -2 134 6 69 9 166 18 215 20 125 6 135
9 135 39 0 27 7 30 42 16 23 -8 42 1 46 24 3 16 121 9 150 -9 9 -6 9 -12 -3
-29 -21 -30 -19 -34 15 -29 16 2 27 8 24 13 -3 5 0 9 6 9 7 0 10 18 9 46 -3
52 11 67 53 60 20 -4 31 0 43 17 8 12 18 21 20 20 3 -2 12 -3 20 -3 14 0 15
25 12 198 -2 109 -7 204 -11 210 -9 15 2 112 14 127 4 6 5 30 1 55 -6 44 -6
106 -1 245 3 69 27 242 36 256 9 16 -42 39 -86 39 -25 0 -108 -9 -185 -21
-221 -32 -322 -37 -600 -28 -248 9 -484 34 -550 59 -14 5 -38 10 -52 10 -23 0
-25 -3 -20 -29 4 -20 2 -31 -8 -35 -25 -9 -33 -139 -41 -641 -3 -187 -7 -341
-9 -343 -1 -2 -9 23 -16 55 -14 56 -17 60 -84 105 -149 100 -345 172 -560 207
l-129 21 -23 -28 c-12 -15 -22 -24 -23 -21 0 3 -24 -16 -52 -42 -53 -49 -68
-58 -68 -39 0 6 5 10 11 10 5 0 3 10 -5 22 -9 12 -16 35 -16 50 0 16 -3 28 -8
28 -4 0 -34 25 -66 55 -32 31 -65 59 -72 63 -18 10 -127 107 -203 181 -36 35
-97 84 -136 109 -38 25 -98 68 -132 96 -33 28 -88 66 -120 84 -32 18 -72 45
-88 60 -17 15 -42 33 -57 39 -19 8 -26 17 -22 28 4 10 0 15 -14 15 -30 0 -72
21 -72 35 0 7 -16 16 -35 19 -20 4 -33 11 -30 17 4 5 -4 9 -16 9 -12 0 -27 7
-33 16 -14 19 -219 29 -281 13z"/>
<path d="M4797 7394 c-7 -8 4 -44 14 -44 5 0 9 4 9 9 0 5 8 11 17 13 13 2 11
6 -9 15 -14 6 -28 9 -31 7z"/>
<path d="M4100 7001 c0 -5 5 -13 10 -16 6 -3 10 -2 10 4 0 5 -4 13 -10 16 -5
3 -10 2 -10 -4z"/>
<path d="M2665 6900 c-3 -5 1 -10 9 -10 9 0 16 5 16 10 0 6 -4 10 -9 10 -6 0
-13 -4 -16 -10z"/>
<path d="M680 6705 c0 -8 7 -15 15 -15 8 0 15 7 15 15 0 8 -7 15 -15 15 -8 0
-15 -7 -15 -15z"/>
<path d="M8556 5987 c-16 -12 -16 -13 3 -14 22 -2 37 12 23 21 -5 3 -17 0 -26
-7z"/>
<path d="M10040 5839 c-271 -149 -288 -159 -470 -264 -286 -166 -326 -190
-336 -200 -6 -5 -21 -17 -34 -25 -12 -8 -38 -31 -59 -50 -108 -101 -260 -245
-288 -273 -28 -27 -33 -29 -39 -14 -13 35 -58 48 -126 37 -230 -37 -1125 -5
-1245 45 -73 31 -68 88 -71 -728 -3 -601 -1 -735 10 -744 17 -14 195 -22 278
-12 138 16 157 18 235 19 118 2 125 1 125 -13 0 -8 9 -24 20 -37 11 -13 20
-29 20 -37 0 -22 50 -36 76 -22 20 10 40 51 36 72 -1 4 2 17 8 27 10 19 22 20
163 20 l153 0 -2 -69 c-2 -37 -4 -74 -6 -81 -4 -15 60 -24 76 -11 6 5 25 8 41
6 17 -1 35 1 42 7 7 5 17 7 23 3 5 -3 16 -3 22 2 7 4 26 6 42 4 16 -2 26 1 22
7 -9 15 26 25 36 10 7 -10 11 -10 14 -1 3 7 12 9 20 6 12 -4 13 0 4 21 -8 23
-7 26 10 26 14 0 20 -7 20 -21 0 -17 4 -20 23 -15 12 3 28 6 35 6 6 0 12 7 12
16 0 11 6 15 19 11 15 -3 18 -1 14 11 -5 12 -1 14 15 10 11 -3 22 -2 24 3 5
14 56 21 63 9 4 -6 15 -4 30 6 13 9 29 13 35 9 6 -4 10 4 10 20 0 23 -2 25
-22 14 -18 -10 -24 -8 -35 7 -15 21 -17 44 -3 44 5 0 7 -6 4 -13 -3 -8 4 -13
16 -14 11 -1 18 2 15 6 -2 5 2 14 10 21 19 16 19 27 -2 50 -16 16 -22 17 -55
6 -39 -14 -51 -11 -56 14 -1 8 -14 25 -28 38 -14 12 -27 33 -29 45 -1 12 -7
40 -13 62 -6 22 -14 60 -16 85 -3 25 -12 86 -20 135 -22 127 -29 182 -30 245
-1 30 -4 60 -7 65 -4 6 -9 39 -13 75 l-7 65 73 76 c40 41 112 118 161 170 133
143 351 343 355 325 3 -16 1 -18 71 46 18 17 36 26 45 22 9 -3 16 -1 16 5 0 6
7 11 15 11 7 0 18 7 23 17 5 9 16 14 25 10 8 -3 24 1 36 9 11 8 21 12 21 9 0
-3 9 -1 20 5 11 6 20 17 20 25 0 8 5 15 10 15 6 0 26 16 46 35 19 19 44 35 54
35 11 0 20 4 20 10 0 5 12 13 28 16 34 8 102 45 102 56 0 4 14 8 30 8 20 0 30
5 30 15 0 14 11 19 36 16 7 -1 14 8 17 19 3 11 18 25 34 30 15 6 51 22 80 36
28 13 56 24 61 24 4 0 21 13 37 30 15 16 33 28 39 27 6 -1 12 8 14 21 2 12 -1
22 -7 22 -6 0 -11 -5 -11 -12 0 -8 -5 -7 -15 3 -26 26 -8 51 34 49 63 -3 71
-1 71 20 0 26 -27 39 -99 46 -34 3 -87 13 -119 21 -100 25 -103 25 -182 -18z
m-1166 -938 c22 -25 17 -56 -9 -56 -16 0 -20 7 -20 38 -1 42 5 45 29 18z m-24
-180 c0 -5 -7 -12 -16 -15 -14 -5 -15 -4 -4 9 14 17 20 19 20 6z m-99 -38 c6
-6 3 -16 -6 -29 -14 -19 -15 -18 -35 6 -11 14 -20 28 -20 32 0 9 50 2 61 -9z"/>
<path d="M9725 5810 c-3 -5 1 -10 10 -10 9 0 13 5 10 10 -3 6 -8 10 -10 10 -2
0 -7 -4 -10 -10z"/>
<path d="M9090 3573 c8 -3 18 -10 21 -15 3 -5 12 -2 19 7 11 13 8 15 -21 14
-19 0 -27 -3 -19 -6z"/>
<path d="M8256 3474 c-9 -23 -7 -44 3 -44 11 0 21 49 11 55 -4 3 -11 -2 -14
-11z"/>
<path d="M4993 2724 c-6 -17 13 -42 24 -30 4 4 1 11 -6 15 -7 5 -10 14 -7 20
4 6 5 11 1 11 -3 0 -8 -7 -12 -16z"/>
<path d="M6471 2606 c-15 -18 1 -30 30 -21 16 5 18 10 8 21 -15 18 -23 18 -38
0z"/>
<path d="M7458 2564 c-4 -3 -2 -16 4 -27 7 -15 9 -78 4 -206 -4 -102 -7 -235
-7 -296 0 -60 -4 -155 -9 -209 -6 -62 -6 -103 0 -110 9 -12 9 -21 -5 -69 -4
-16 -3 -32 3 -40 13 -16 18 -195 5 -227 -5 -14 -8 -41 -7 -60 1 -19 -4 -41
-10 -49 -8 -11 -8 -15 2 -18 6 -3 12 -15 12 -28 0 -42 70 -81 96 -55 17 17
195 -4 209 -24 7 -9 24 -16 39 -16 14 0 26 -4 26 -10 0 -5 -9 -10 -19 -10 -11
0 -22 -4 -25 -9 -4 -5 4 -7 16 -3 13 3 19 1 15 -5 -4 -5 2 -19 13 -31 12 -12
16 -23 10 -27 -18 -11 -10 -25 15 -25 18 0 26 -7 31 -25 3 -14 10 -25 15 -25
5 0 9 -4 9 -10 0 -15 -97 -13 -104 3 -3 6 -4 -1 -3 -18 1 -19 8 -32 20 -35 35
-10 17 -25 -31 -26 -55 -2 -78 -10 -86 -30 -4 -11 9 -14 74 -14 65 0 78 3 74
14 -4 11 4 16 28 18 l33 4 -25 11 c-14 7 -23 12 -20 13 25 7 41 7 46 -1 8 -13
48 -11 62 3 9 9 12 9 12 0 0 -12 40 -10 72 3 23 9 14 25 -11 18 -13 -3 -23 2
-30 15 -13 25 1 34 72 40 23 2 12 22 -12 22 -10 0 -18 7 -18 15 0 18 2 18 28
5 13 -8 19 -7 19 0 0 6 5 8 10 5 6 -4 10 -12 8 -18 -1 -7 2 -23 6 -35 6 -19 3
-27 -14 -39 -14 -10 -20 -23 -18 -41 l3 -27 90 4 c50 1 128 12 174 23 170 40
245 48 436 49 197 0 288 8 306 26 5 5 11 26 13 46 2 20 9 44 16 52 7 9 14 34
15 56 2 38 2 39 -34 39 -40 1 -75 22 -78 48 -1 9 -7 54 -13 99 -25 205 -29
254 -29 343 1 52 0 100 -1 105 -1 6 -2 12 -1 15 1 3 4 82 8 175 3 94 9 178 14
187 5 9 9 39 9 67 0 28 4 51 8 51 5 0 8 36 8 79 -1 63 3 83 17 99 15 16 16 24
8 41 -7 11 -22 23 -34 26 -12 2 -272 7 -577 9 -582 5 -704 12 -835 47 -97 25
-148 33 -157 23z"/>
<path d="M6441 2528 c-1 -12 -9 -18 -26 -18 -14 0 -25 -4 -25 -10 0 -5 5 -10
11 -10 6 0 26 -7 45 -16 27 -13 37 -14 49 -4 8 6 19 9 24 6 5 -4 13 -1 17 6 4
7 4 10 0 6 -12 -10 -34 15 -28 32 4 12 1 11 -15 -3 -19 -17 -21 -17 -36 5 -13
19 -16 20 -16 6z"/>
<path d="M3434 2499 c-3 -6 -19 -9 -35 -7 -22 4 -29 1 -29 -12 0 -13 7 -16 31
-12 22 3 30 1 25 -7 -5 -7 3 -11 23 -11 36 0 39 12 11 40 -12 12 -22 15 -26 9z"/>
<path d="M3638 2487 c-52 -6 -78 -14 -78 -22 0 -9 25 -13 92 -14 88 -1 91 -1
75 17 -10 10 -14 22 -10 25 3 4 4 6 2 6 -2 -1 -39 -6 -81 -12z"/>
<path d="M6130 2486 c0 -9 5 -16 10 -16 6 0 10 4 10 9 0 6 -4 13 -10 16 -5 3
-10 -1 -10 -9z"/>
<path d="M6357 2479 c-9 -6 -17 -14 -17 -19 0 -16 30 -11 37 5 8 21 1 25 -20
14z"/>
<path d="M6585 2460 c3 -5 17 -10 31 -10 13 0 24 5 24 10 0 6 -14 10 -31 10
-17 0 -28 -4 -24 -10z"/>
<path d="M848 2113 c7 -3 16 -2 19 1 4 3 -2 6 -13 5 -11 0 -14 -3 -6 -6z"/>
<path d="M6016 1583 c-10 -10 -7 -21 10 -37 14 -15 12 -16 -19 -16 -33 0 -35
-2 -32 -32 1 -18 -3 -40 -9 -50 -8 -13 -7 -21 2 -30 23 -23 13 -35 -24 -31
-21 2 -33 0 -30 -6 9 -15 -5 -41 -22 -41 -8 0 4 -14 27 -31 l43 -30 40 27 40
28 -22 18 c-18 15 -19 20 -9 40 l12 22 10 -24 c5 -15 11 -20 14 -12 3 6 11 12
19 12 24 0 15 19 -16 35 -35 18 -39 35 -10 42 20 5 20 6 3 25 -16 18 -16 21
-2 31 9 7 14 18 12 24 -3 7 2 16 11 19 9 3 16 9 16 14 0 8 -56 11 -64 3z"/>
<path d="M6159 1580 c-1 -3 -2 -12 -3 -20 0 -8 -11 -15 -23 -15 -35 -1 -28
-19 9 -26 26 -4 29 -7 16 -13 -11 -5 -18 -19 -18 -36 0 -17 -7 -30 -16 -34
-15 -6 -15 -8 2 -24 16 -16 22 -17 44 -5 14 7 37 13 53 13 15 0 27 4 27 9 0 6
-16 8 -35 7 -34 -4 -46 6 -25 19 15 9 12 75 -2 76 -7 1 -2 4 12 8 16 4 25 14
25 26 0 16 -7 20 -32 20 -18 0 -34 -2 -34 -5z"/>
<path d="M6280 1580 c0 -5 4 -10 9 -10 6 0 13 5 16 10 3 6 -1 10 -9 10 -9 0
-16 -4 -16 -10z"/>
<path d="M3010 1525 c0 -8 -4 -15 -10 -15 -5 0 -8 -10 -6 -22 3 -13 5 -27 5
-31 1 -5 6 -7 12 -5 14 5 23 88 9 88 -6 0 -10 -7 -10 -15z"/>
<path d="M6340 1530 c0 -5 5 -10 11 -10 5 0 7 5 4 10 -3 6 -8 10 -11 10 -2 0
-4 -4 -4 -10z"/>
<path d="M2940 1483 c0 -13 29 -38 35 -31 3 3 -4 13 -15 23 -11 10 -20 13 -20
8z"/>
<path d="M6363 1425 c0 -8 4 -15 9 -15 4 0 8 4 8 9 0 6 -4 12 -8 15 -5 3 -9
-1 -9 -9z"/>
<path d="M6746 1211 c-3 -4 3 -16 14 -26 20 -18 25 -11 14 19 -7 18 -20 21
-28 7z"/>
<path d="M6905 1140 c-3 -5 -1 -10 4 -10 6 0 11 5 11 10 0 6 -2 10 -4 10 -3 0
-8 -4 -11 -10z"/>
<path d="M7657 1120 c3 -11 14 -20 24 -20 22 0 24 11 7 28 -19 19 -37 14 -31
-8z"/>
<path d="M6838 1118 c9 -9 6 -14 -11 -22 -23 -12 -37 -66 -18 -66 6 0 11 7 11
15 0 8 11 17 25 21 14 3 25 12 25 19 0 7 5 15 12 17 20 7 -2 28 -30 28 -20 0
-23 -3 -14 -12z"/>
<path d="M7300 1087 c0 -10 8 -17 18 -17 9 0 13 4 7 8 -5 4 -13 11 -17 16 -5
5 -8 2 -8 -7z"/>
<path d="M6886 1070 c-10 -10 -15 -23 -12 -28 7 -11 55 -10 74 1 7 5 12 3 12
-6 0 -12 6 -12 45 1 61 20 47 36 -26 29 -47 -4 -57 -2 -52 9 7 20 -19 16 -41
-6z"/>
<path d="M7190 1060 c0 -5 -7 -7 -15 -4 -8 4 -15 2 -15 -4 0 -19 38 -20 54 -1
15 18 14 19 -4 19 -11 0 -20 -4 -20 -10z"/>
<path d="M7310 1046 c0 -22 13 -26 33 -11 16 11 16 13 1 19 -25 9 -34 7 -34
-8z"/>
<path d="M7405 1040 c4 -6 11 -8 16 -5 14 9 11 15 -7 15 -8 0 -12 -5 -9 -10z"/>
<path d="M7705 1041 c-3 -6 -1 -11 4 -11 6 0 11 -7 11 -15 0 -11 10 -15 33
-14 23 1 26 3 10 6 -13 2 -29 13 -37 24 -9 13 -16 16 -21 10z"/>
<path d="M6907 1023 c-4 -3 -7 -13 -7 -22 1 -13 3 -13 11 2 11 19 8 33 -4 20z"/>
<path d="M6855 999 c-4 -6 -1 -15 6 -20 21 -13 31 -11 27 8 -4 20 -24 28 -33
12z"/>
<path d="M7318 1003 c7 -3 16 -2 19 1 4 3 -2 6 -13 5 -11 0 -14 -3 -6 -6z"/>
<path d="M7420 1003 c0 -5 7 -17 15 -27 15 -20 20 -10 9 18 -6 16 -24 22 -24
9z"/>
<path d="M2955 990 c3 -5 8 -10 11 -10 2 0 4 5 4 10 0 6 -5 10 -11 10 -5 0 -7
-4 -4 -10z"/>
<path d="M2783 978 c-11 -15 -11 -42 -1 -45 4 -1 15 0 23 3 12 5 13 10 4 20
-6 7 -8 18 -4 24 9 14 -11 13 -22 -2z"/>
<path d="M7276 983 c-3 -4 -6 -14 -6 -24 0 -18 -26 -33 -40 -24 -5 3 -7 12 -3
20 3 8 0 15 -6 15 -6 0 -11 -4 -11 -10 0 -13 -27 -13 -32 0 -1 5 -23 12 -47
16 -41 7 -43 6 -36 -15 5 -15 2 -21 -10 -21 -9 0 -14 -4 -11 -9 3 -5 15 -7 26
-4 22 6 28 -15 10 -33 -8 -8 6 -17 45 -32 66 -25 76 -27 74 -9 -4 33 2 47 22
47 12 0 27 -7 33 -15 10 -14 16 -13 51 5 22 12 50 18 62 15 12 -3 24 -1 28 5
3 5 12 7 20 4 7 -3 18 4 25 15 8 17 8 21 -3 21 -8 0 -20 -6 -26 -14 -10 -12
-76 -14 -88 -2 -9 9 8 26 28 26 10 0 19 5 19 10 0 6 -17 9 -37 7 -21 -2 -48 0
-59 4 -12 4 -25 5 -28 2z"/>
<path d="M3225 971 c3 -5 19 -8 36 -6 48 6 48 15 0 15 -23 0 -40 -4 -36 -9z"/>
<path d="M6950 974 c0 -3 5 -14 10 -25 8 -14 21 -19 51 -19 37 0 40 2 33 23
-9 31 -9 31 -38 12 -14 -10 -26 -13 -26 -7 0 5 -7 12 -15 16 -8 3 -15 3 -15 0z"/>
<path d="M7698 958 c-22 -35 -28 -57 -17 -64 6 -3 13 3 16 15 3 11 17 24 32
30 17 6 20 10 9 10 -21 1 -24 17 -5 24 7 4 6 6 -4 6 -9 1 -23 -9 -31 -21z"/>
<path d="M3340 963 c0 -5 25 -9 55 -10 31 -2 55 1 55 7 0 6 -25 10 -55 10 -30
0 -55 -3 -55 -7z"/>
<path d="M5065 953 c6 -6 39 -20 73 -31 52 -17 63 -18 58 -7 -4 10 1 15 14 15
11 0 20 5 20 10 0 6 -28 10 -62 10 -35 0 -74 3 -88 6 -17 5 -22 3 -15 -3z"/>
<path d="M2868 943 c7 -3 16 -2 19 1 4 3 -2 6 -13 5 -11 0 -14 -3 -6 -6z"/>
<path d="M5275 940 c-4 -6 -3 -14 0 -20 9 -15 35 -12 35 4 0 17 -27 29 -35 16z"/>
<path d="M5440 934 c0 -9 31 -37 36 -32 9 9 -8 38 -22 38 -8 0 -14 -3 -14 -6z"/>
<path d="M7490 920 c0 -11 4 -20 9 -20 11 0 22 26 14 34 -12 12 -23 5 -23 -14z"/>
<path d="M7638 929 c-24 -13 -23 -29 2 -29 13 0 20 7 20 20 0 23 1 23 -22 9z"/>
<path d="M8048 933 c7 -3 16 -2 19 1 4 3 -2 6 -13 5 -11 0 -14 -3 -6 -6z"/>
<path d="M5513 923 c9 -2 23 -2 30 0 6 3 -1 5 -18 5 -16 0 -22 -2 -12 -5z"/>
<path d="M5562 919 c2 -6 7 -10 11 -10 4 1 34 1 68 1 37 0 58 4 54 10 -9 14
-138 13 -133 -1z"/>
<path d="M7545 910 c3 -5 8 -10 11 -10 2 0 4 5 4 10 0 6 -5 10 -11 10 -5 0 -7
-4 -4 -10z"/>
<path d="M3868 903 c6 -2 18 -2 25 0 6 3 1 5 -13 5 -14 0 -19 -2 -12 -5z"/>
<path d="M7400 870 c0 -5 9 -10 20 -10 11 0 20 5 20 10 0 6 -9 10 -20 10 -11
0 -20 -4 -20 -10z"/>
<path d="M7470 844 c-10 -12 -8 -14 14 -14 28 0 35 14 12 23 -8 3 -20 -1 -26
-9z"/>
<path d="M7275 840 c-4 -6 16 -10 52 -9 44 1 52 3 33 9 -36 12 -78 12 -85 0z"/>
<path d="M10930 770 c0 -5 7 -10 15 -10 8 0 15 5 15 10 0 6 -7 10 -15 10 -8 0
-15 -4 -15 -10z"/>
<path d="M11010 755 c0 -8 7 -15 15 -15 9 0 12 6 9 15 -4 8 -10 15 -15 15 -5
0 -9 -7 -9 -15z"/>
<path d="M11170 750 c0 -5 5 -10 10 -10 6 0 10 5 10 10 0 6 -4 10 -10 10 -5 0
-10 -4 -10 -10z"/>
<path d="M11126 743 c-11 -11 -6 -23 9 -23 8 0 15 4 15 9 0 13 -16 22 -24 14z"/>
<path d="M10428 733 c7 -3 16 -2 19 1 4 3 -2 6 -13 5 -11 0 -14 -3 -6 -6z"/>
<path d="M10667 733 c-26 -25 23 -50 65 -34 l23 10 -26 0 c-15 1 -29 8 -33 16
-6 16 -18 19 -29 8z"/>
<path d="M11280 720 c30 -24 44 -25 36 -4 -3 9 -6 18 -6 20 0 2 -12 4 -27 4
l-28 0 25 -20z"/>
<path d="M11190 721 c0 -5 -18 -12 -40 -16 -32 -5 -37 -9 -27 -20 7 -7 14 -9
17 -5 9 14 80 17 80 3 0 -7 -4 -13 -9 -13 -5 0 -12 -7 -15 -16 -3 -9 -2 -12 5
-9 5 4 16 1 24 -5 10 -8 15 -9 15 -2 0 6 -5 14 -10 17 -7 4 -7 12 0 25 14 27
12 40 -5 34 -8 -4 -15 -1 -15 5 0 6 -4 11 -10 11 -5 0 -10 -4 -10 -9z"/>
<path d="M10570 705 c7 -8 16 -15 21 -15 5 0 9 7 9 15 0 9 -9 15 -21 15 -18 0
-19 -2 -9 -15z"/>
<path d="M10760 716 c0 -2 7 -7 16 -10 8 -3 12 -2 9 4 -6 10 -25 14 -25 6z"/>
<path d="M11438 713 c7 -3 16 -2 19 1 4 3 -2 6 -13 5 -11 0 -14 -3 -6 -6z"/>
<path d="M10810 700 c0 -5 5 -10 10 -10 6 0 10 5 10 10 0 6 -4 10 -10 10 -5 0
-10 -4 -10 -10z"/>
<path d="M10908 703 c-10 -2 -18 -11 -18 -19 0 -10 7 -13 25 -8 14 3 25 2 25
-2 0 -15 48 -13 54 1 9 25 -38 40 -86 28z"/>
<path d="M11510 700 c0 -5 16 -10 36 -10 21 0 33 4 29 10 -3 6 -19 10 -36 10
-16 0 -29 -4 -29 -10z"/>
<path d="M11400 683 c0 -18 -36 -25 -76 -14 -38 11 -82 0 -51 -12 10 -4 13
-13 10 -26 -5 -19 -2 -21 28 -17 19 3 53 5 75 5 38 1 41 3 37 25 -6 27 22 43
43 25 11 -9 14 -7 14 7 0 15 -8 19 -40 19 -24 0 -40 -5 -40 -12z"/>
<path d="M10100 670 c0 -5 7 -10 15 -10 8 0 15 5 15 10 0 6 -7 10 -15 10 -8 0
-15 -4 -15 -10z"/>
<path d="M10175 672 c-12 -12 -3 -19 25 -18 36 1 41 24 5 24 -13 0 -27 -3 -30
-6z"/>
<path d="M10393 669 c-24 -8 37 -20 66 -12 11 3 21 1 21 -4 0 -5 23 -10 50
-11 55 -2 65 10 23 26 -28 11 -128 12 -160 1z"/>
<path d="M10660 669 c0 -5 5 -7 10 -4 6 3 10 8 10 11 0 2 -4 4 -10 4 -5 0 -10
-5 -10 -11z"/>
<path d="M10290 666 c0 -2 9 -6 20 -9 11 -3 18 -1 14 4 -5 9 -34 13 -34 5z"/>
<path d="M10736 662 c-9 -14 9 -31 23 -23 7 5 10 14 7 20 -8 13 -23 14 -30 3z"/>
<path d="M11010 646 c0 -9 5 -16 10 -16 6 0 10 4 10 9 0 6 -4 13 -10 16 -5 3
-10 -1 -10 -9z"/>
<path d="M11090 651 c0 -6 5 -13 10 -16 6 -3 10 1 10 9 0 9 -4 16 -10 16 -5 0
-10 -4 -10 -9z"/>
<path d="M11440 630 c0 -5 5 -10 11 -10 5 0 7 5 4 10 -3 6 -8 10 -11 10 -2 0
-4 -4 -4 -10z"/>
<path d="M10740 519 c0 -5 5 -7 10 -4 6 3 10 8 10 11 0 2 -4 4 -10 4 -5 0 -10
-5 -10 -11z"/>
<path d="M10955 500 c-3 -5 3 -10 14 -10 12 0 21 5 21 10 0 6 -6 10 -14 10 -8
0 -18 -4 -21 -10z"/>
<path d="M10482 299 c2 -7 10 -15 17 -17 8 -3 12 1 9 9 -2 7 -10 15 -17 17 -8
3 -12 -1 -9 -9z"/>
<path d="M10700 290 c0 -13 11 -13 30 0 12 8 11 10 -7 10 -13 0 -23 -4 -23
-10z"/>
<path d="M10607 275 c-5 -11 0 -15 16 -15 12 0 18 4 12 8 -5 4 -13 11 -16 15
-4 4 -9 1 -12 -8z"/>
<path d="M11006 271 c-7 -10 22 -37 30 -28 9 8 -3 37 -15 37 -5 0 -12 -4 -15
-9z"/>
<path d="M10565 260 c-3 -5 -1 -10 4 -10 6 0 11 5 11 10 0 6 -2 10 -4 10 -3 0
-8 -4 -11 -10z"/>
</g>
</svg>
