<?xml version="1.0" standalone="no"?>
<!DOCTYPE svg PUBLIC "-//W3C//DTD SVG 20010904//EN"
 "http://www.w3.org/TR/2001/REC-SVG-20010904/DTD/svg10.dtd">
<svg version="1.0" xmlns="http://www.w3.org/2000/svg"
 width="995.000000pt" height="1280.000000pt" viewBox="0 0 995.000000 1280.000000"
 preserveAspectRatio="xMidYMid meet">
<metadata>
Created by potrace 1.15, written by Peter Selinger 2001-2017
</metadata>
<g transform="translate(0.000000,1280.000000) scale(0.100000,-0.100000)"
fill="#673ab7" stroke="none">
<path d="M7921 12230 c-99 -21 -190 -88 -244 -181 -24 -41 -356 -831 -575
-1369 l-100 -245 -3026 -3 -3026 -2 0 -4740 0 -4740 1614 0 1614 0 21 -34 c33
-52 97 -105 169 -139 54 -25 81 -31 161 -35 164 -8 290 38 399 146 l64 62
2244 0 2244 0 0 4740 0 4740 -730 0 c-401 0 -730 2 -730 5 0 6 149 366 331
801 161 384 172 428 145 561 -38 188 -172 344 -351 409 -72 26 -164 36 -224
24z m-1054 -2132 c-130 -317 -486 -1239 -666 -1720 -710 -1906 -1293 -3750
-1691 -5348 -39 -157 -73 -292 -76 -300 -6 -16 -85 164 -251 570 -182 445
-383 990 -483 1310 -53 169 -78 219 -147 291 -85 89 -208 139 -343 139 -64 0
-191 -34 -253 -67 -123 -67 -211 -196 -224 -326 -8 -91 5 -150 102 -441 223
-673 518 -1405 1018 -2526 l185 -415 -1376 -3 c-758 -1 -1383 0 -1389 3 -10 3
-13 898 -13 4425 l0 4420 2806 0 c2241 0 2805 -3 2801 -12z m2293 -4413 l0
-4425 -2040 0 c-1845 0 -2040 1 -2040 16 0 50 198 915 336 1464 544 2176 1287
4411 2350 7072 l119 298 638 0 637 0 0 -4425z"/>
</g>
</svg>
