<?xml version="1.0" standalone="no"?>
<!DOCTYPE svg PUBLIC "-//W3C//DTD SVG 20010904//EN"
 "http://www.w3.org/TR/2001/REC-SVG-20010904/DTD/svg10.dtd">
<svg version="1.0" xmlns="http://www.w3.org/2000/svg"
 width="1280.000000pt" height="1136.000000pt" viewBox="0 0 1280.000000 1136.000000"
 preserveAspectRatio="xMidYMid meet">
<g transform="translate(0.000000,1136.000000) scale(0.100000,-0.100000)"
fill="#3f51b5" stroke="none">
<path d="M11438 11353 c46 -2 118 -2 160 0 42 1 5 3 -83 3 -88 0 -123 -2 -77
-3z"/>
<path d="M4953 11325 c-12 -34 4 -114 30 -149 36 -47 62 -54 93 -25 31 29 30
43 -6 106 -42 74 -101 108 -117 68z"/>
<path d="M4400 11097 c3 -3 95 -35 205 -71 485 -160 858 -409 1152 -771 243
-300 450 -750 533 -1157 62 -304 68 -762 14 -1143 -74 -522 -268 -1045 -534
-1440 -72 -106 -131 -205 -122 -205 11 0 104 134 173 250 34 58 105 193 158
300 218 441 319 779 391 1315 20 142 22 188 16 410 -8 359 -46 597 -138 870
-170 508 -501 972 -888 1247 -226 161 -389 248 -578 309 -132 42 -397 102
-382 86z"/>
<path d="M5404 11078 c-5 -7 -8 -43 -8 -80 0 -74 22 -120 62 -126 28 -4 62 32
62 66 -1 78 -89 184 -116 140z"/>
<path d="M7430 11068 c0 -24 67 -263 84 -298 9 -19 14 -26 10 -15 -42 145 -53
191 -59 253 -5 52 -11 72 -21 72 -8 0 -14 -6 -14 -12z"/>
<path d="M3515 10964 c-16 -2 -70 -9 -120 -15 -280 -34 -557 -125 -826 -271
-179 -98 -484 -340 -676 -538 -72 -74 -134 -132 -138 -128 -4 3 -8 28 -9 55
-5 82 -55 133 -129 133 -43 0 -183 -69 -217 -106 l-25 -28 30 20 c75 49 136
57 179 23 23 -18 27 -28 24 -63 -3 -35 -8 -43 -36 -58 -19 -9 -36 -19 -39 -22
-12 -11 28 -56 50 -56 12 0 29 -5 37 -10 17 -12 4 -25 -129 -132 -64 -51 -80
-59 -110 -56 -31 3 -38 8 -48 38 -7 19 -12 67 -12 107 -1 79 -15 123 -40 123
-66 0 -151 -64 -193 -144 -30 -58 -22 -137 20 -200 28 -41 32 -56 32 -111 0
-71 23 -206 40 -233 9 -14 10 -10 5 18 -20 112 -25 150 -25 193 0 26 4 47 9
47 6 0 30 -11 54 -24 25 -13 72 -26 106 -30 73 -8 93 -24 81 -64 -39 -122
-115 -322 -123 -322 -6 0 -30 21 -54 47 -61 65 -109 169 -128 278 -29 163
-100 362 -146 411 -20 21 -23 22 -34 7 -7 -10 -17 -13 -25 -8 -10 6 -12 4 -7
-9 4 -10 7 -21 7 -26 0 -5 25 -37 55 -72 30 -34 55 -66 55 -70 0 -15 -21 -8
-48 17 -46 43 -127 63 -412 100 -165 21 -170 21 -170 -13 0 -15 13 -46 29 -68
16 -21 34 -56 39 -77 6 -21 27 -56 47 -79 20 -22 43 -54 50 -72 17 -40 50 -71
100 -92 22 -9 46 -25 53 -35 15 -22 65 -25 125 -8 49 13 65 3 37 -23 -18 -17
-21 -28 -16 -56 11 -69 78 -112 176 -112 54 0 142 -22 212 -52 l49 -21 -6 -41
c-3 -23 -15 -99 -26 -171 -11 -71 -23 -145 -25 -163 -4 -24 -12 -36 -32 -43
l-27 -10 27 -21 c26 -18 28 -24 28 -96 0 -174 40 -478 81 -616 27 -90 71 -177
98 -194 35 -20 24 -39 -48 -87 -85 -56 -194 -170 -244 -255 -21 -36 -50 -101
-64 -145 -23 -68 -27 -98 -27 -200 -1 -141 14 -196 75 -277 44 -59 46 -66 21
-75 -44 -16 -155 -98 -237 -174 -163 -153 -200 -165 -200 -64 0 38 -2 40 -32
43 -90 9 -83 -141 10 -220 l32 -27 -2 -128 c-1 -79 1 -119 6 -103 5 14 23 70
40 125 67 219 222 403 415 491 48 22 61 24 88 15 46 -16 61 -14 103 15 38 25
41 26 184 22 136 -4 151 -6 226 -36 44 -17 109 -51 145 -74 90 -58 225 -196
294 -300 108 -164 138 -276 138 -528 1 -222 -31 -398 -99 -550 -14 -30 -31
-73 -39 -95 l-14 -40 20 25 c11 14 33 61 50 105 17 44 39 99 50 122 10 23 31
86 46 140 27 94 28 107 28 348 1 238 0 253 -23 320 -133 391 -460 642 -845
649 l-110 2 -23 37 c-12 20 -32 41 -42 47 -28 14 -67 12 -81 -5 -10 -12 -8
-20 9 -41 34 -43 28 -60 -30 -79 -49 -17 -52 -17 -78 2 -38 29 -88 118 -102
182 -16 78 -6 240 20 321 30 94 86 184 166 265 83 84 220 179 244 169 9 -4 40
-9 68 -12 70 -6 149 32 218 105 48 49 56 54 140 74 50 12 149 32 220 44 72 13
119 23 105 24 -40 1 -228 -26 -308 -44 -40 -9 -76 -15 -79 -12 -2 3 -6 45 -7
94 -3 141 -52 209 -157 219 -84 8 -87 2 -74 -118 12 -106 -16 -148 -99 -148
-65 0 -152 88 -195 197 -68 172 -78 473 -26 756 15 82 21 97 34 97 4 0 43 -48
87 -106 184 -248 436 -437 719 -539 250 -91 516 -135 998 -166 119 -8 190 -16
193 -23 2 -6 -18 -54 -44 -106 l-49 -95 -122 -41 c-119 -41 -251 -103 -523
-245 -107 -57 -148 -73 -190 -77 -44 -3 -57 0 -76 18 -28 26 -25 54 6 58 28 4
28 18 1 32 -16 9 -25 8 -40 -6 -19 -17 -25 -59 -11 -80 25 -39 131 -46 214
-14 29 11 56 20 61 20 13 0 7 -22 -15 -53 -17 -24 -7 -18 37 22 94 86 204 163
304 215 97 50 316 127 338 119 8 -3 13 -23 13 -54 0 -29 9 -67 21 -94 l21 -44
-36 -44 c-39 -48 -58 -114 -49 -171 12 -74 62 -56 129 46 25 37 49 68 53 68 5
0 30 -9 56 -21 53 -23 52 -20 15 -123 -30 -83 -37 -212 -16 -300 33 -141 117
-238 274 -319 49 -26 95 -53 102 -62 15 -18 6 -45 -15 -45 -25 0 -15 -44 11
-48 25 -4 74 33 74 55 0 30 33 53 114 78 44 14 88 29 96 35 20 13 14 12 -41
-4 -285 -87 -565 84 -609 372 -13 79 -2 181 28 257 24 62 36 72 103 78 123 11
222 89 249 197 6 25 16 53 21 62 5 11 5 27 -1 43 -6 15 -10 36 -10 49 0 32
-84 95 -127 96 -17 0 -24 -7 -28 -27 -12 -56 -29 -74 -99 -103 -62 -26 -71
-28 -95 -16 -62 33 -90 94 -44 97 10 1 5 4 -12 8 -29 6 -30 8 -29 63 1 36 8
67 19 84 17 26 17 26 113 20 637 -45 971 -190 1181 -515 33 -52 41 -73 41
-112 0 -57 -7 -79 -26 -79 -12 0 -12 -5 1 -31 23 -44 16 -73 -20 -80 l-30 -6
28 -11 c33 -14 33 -14 3 -155 -59 -277 -159 -493 -345 -744 -293 -392 -766
-796 -1691 -1443 -168 -118 -366 -259 -440 -315 -599 -451 -952 -891 -1178
-1468 -194 -493 -242 -871 -178 -1397 34 -273 51 -374 90 -530 27 -107 34
-125 49 -122 27 5 51 -21 120 -123 33 -49 87 -126 121 -170 71 -94 321 -352
422 -435 103 -86 302 -212 439 -281 143 -72 117 -46 -46 45 -336 189 -604 423
-781 682 -122 179 -128 208 -135 636 -3 237 -1 320 12 415 32 236 88 419 192
628 155 309 336 510 686 762 84 61 104 83 72 83 -81 0 -412 -262 -537 -425
-261 -341 -366 -551 -432 -861 -52 -250 -58 -494 -23 -901 4 -48 -20 -23 -65
66 -78 157 -92 224 -92 446 1 255 30 457 100 698 173 591 553 1106 1055 1429
250 161 584 303 923 393 409 107 922 171 1881 235 1277 85 1671 128 2160 236
779 172 1341 410 1815 769 295 223 615 547 838 848 81 109 70 105 205 81 118
-20 136 -12 22 10 -142 27 -144 29 -103 81 19 24 26 26 62 21 l41 -6 -27 15
c-16 9 -28 20 -28 25 0 18 45 80 58 80 7 0 47 -17 90 -39 79 -39 214 -91 235
-91 7 1 -29 16 -78 34 -122 44 -235 104 -235 125 0 9 10 29 23 45 l23 29 65
-48 c107 -79 230 -133 417 -184 23 -7 42 -16 42 -21 0 -21 230 1 345 31 43 12
128 80 98 78 -34 -2 -64 -14 -61 -24 2 -5 -19 -21 -47 -35 -46 -23 -60 -25
-175 -24 -134 2 -217 19 -347 70 -88 34 -210 106 -270 159 l-47 41 17 42 c19
48 22 82 7 82 -6 0 -29 -12 -52 -26 l-42 -27 -23 29 c-13 16 -22 33 -20 37 3
9 171 87 187 87 5 0 10 -8 10 -18 0 -26 11 -34 26 -21 8 7 11 21 8 34 -5 20 1
27 34 44 96 49 244 94 360 111 68 9 76 8 99 -10 35 -27 97 -26 149 4 23 13 72
33 111 44 84 26 143 70 194 146 85 127 70 267 -34 302 -17 6 -31 15 -30 20 5
19 76 14 174 -10 181 -46 285 -30 319 49 18 43 65 75 109 75 87 0 261 151 261
227 0 40 39 102 107 171 83 84 129 153 144 217 22 98 33 128 64 168 99 129
115 169 115 277 0 58 5 57 -120 35 -47 -8 -242 -35 -435 -60 -411 -52 -491
-66 -645 -106 -163 -42 -270 -96 -347 -175 -56 -59 -93 -80 -93 -53 0 20 59
95 162 204 57 61 109 124 115 140 45 122 65 161 130 258 163 244 387 478 580
604 263 172 690 303 990 303 93 0 159 22 147 49 -4 9 -9 29 -12 44 -4 28 -6
29 -56 24 -68 -7 -529 -127 -681 -178 -141 -48 -329 -137 -435 -207 -184 -122
-337 -285 -508 -540 -119 -178 -162 -228 -187 -219 -15 6 -17 15 -12 55 8 66
36 152 50 157 7 2 29 6 50 10 49 8 51 35 2 35 -25 0 -35 4 -35 16 0 41 158
407 260 602 247 471 623 826 1011 952 121 40 139 53 139 100 0 88 -63 79 -242
-37 -73 -47 -189 -123 -258 -168 -397 -262 -692 -702 -930 -1385 -19 -52 -38
-101 -43 -108 -6 -7 -11 -23 -13 -35 -4 -39 -72 -175 -94 -189 -84 -52 -276
-561 -350 -930 -12 -63 -27 -81 -62 -76 -23 3 -23 4 -29 198 -9 258 -31 400
-96 594 -20 62 -23 83 -15 97 9 15 9 17 -2 13 -25 -10 -46 48 -46 126 0 62 -3
74 -25 95 -13 14 -33 25 -44 25 -13 0 -39 30 -84 98 -36 53 -86 121 -111 150
-25 30 -46 60 -46 69 0 26 39 169 71 260 35 99 106 245 152 313 90 132 248
259 375 299 223 72 471 17 528 -116 18 -42 18 -49 -6 -73 -26 -26 -60 -25 -94
1 -21 17 -29 19 -41 9 -17 -14 -19 -53 -5 -81 32 -58 143 -64 192 -10 15 17
28 41 28 53 0 68 -97 180 -199 231 -64 31 -69 32 -196 32 -116 0 -139 -3 -210
-28 -260 -91 -427 -281 -543 -618 -22 -63 -45 -141 -52 -174 -7 -33 -17 -64
-21 -69 -5 -5 -38 19 -76 54 -86 80 -205 168 -310 228 -67 38 -82 52 -87 76
-6 28 -7 28 -20 11 -12 -17 -18 -18 -53 -7 -22 7 -57 23 -77 37 -20 13 -36 21
-36 16 0 -5 -49 -8 -108 -6 l-108 1 -64 51 c-73 57 -218 153 -231 153 -25 0 1
-24 94 -88 56 -39 118 -84 137 -101 l35 -29 -63 -57 c-35 -32 -72 -76 -84 -99
-68 -132 -62 -297 15 -429 33 -56 107 -124 163 -148 35 -16 44 -25 44 -45 0
-33 25 -81 49 -94 29 -15 71 -12 78 6 3 8 -4 25 -16 38 -32 34 -27 53 17 65
52 15 67 14 84 -6 24 -28 58 -100 89 -188 15 -44 28 -75 28 -69 2 25 -49 204
-68 242 l-21 42 28 39 c16 22 35 54 42 70 11 26 9 34 -9 60 -17 23 -32 31 -69
37 -94 13 -122 46 -122 142 0 81 16 132 41 132 35 0 154 -207 224 -390 99
-260 141 -535 175 -1160 29 -511 75 -771 177 -988 41 -86 39 -90 -49 -123
l-61 -23 -44 48 c-24 27 -98 130 -165 229 -199 297 -318 449 -472 602 -157
157 -202 187 -351 230 -216 63 -388 14 -502 -143 -84 -117 -114 -136 -133 -87
-12 33 -46 33 -54 1 -7 -30 11 -74 33 -80 9 -3 36 -6 61 -8 l45 -3 7 42 c16
94 95 196 181 234 71 31 188 37 298 14 266 -54 467 -235 844 -765 65 -91 140
-194 168 -229 57 -74 63 -96 27 -97 -14 0 -36 -6 -49 -13 -13 -7 -81 -17 -152
-21 -205 -14 -219 -20 -219 -89 0 -63 84 -79 162 -31 50 30 69 26 108 -27 34
-46 41 -50 159 -90 68 -23 128 -46 133 -51 6 -6 0 -25 -17 -50 l-27 -40 -116
1 c-103 1 -123 -2 -164 -22 -57 -28 -109 -77 -131 -124 -22 -46 -35 -133 -19
-123 7 4 12 17 12 28 0 35 39 105 78 139 63 55 127 79 215 79 99 0 104 -10 46
-88 -164 -221 -513 -572 -760 -764 -595 -463 -1336 -749 -2304 -887 -385 -56
-768 -89 -1385 -121 -701 -36 -969 -55 -1300 -91 -942 -102 -1543 -294 -1995
-637 -331 -252 -548 -519 -736 -907 -108 -224 -191 -475 -256 -778 -15 -70
-28 -40 -25 56 14 422 164 919 402 1333 149 259 297 452 504 660 237 237 402
364 916 707 644 430 1026 720 1412 1073 244 224 423 429 523 601 26 46 54 88
61 94 8 6 14 21 14 33 0 32 59 180 76 189 8 5 14 23 14 44 0 50 41 194 54 190
7 -3 11 -34 10 -83 -1 -87 -30 -174 -58 -174 -9 0 -16 -8 -16 -17 0 -10 -3
-29 -7 -42 -5 -21 0 -18 31 17 41 45 49 70 71 227 19 133 19 201 0 209 -8 3
-12 12 -9 21 3 8 10 12 15 9 14 -8 11 32 -16 202 -35 228 -78 363 -161 511
-62 112 -208 248 -373 349 -81 49 -161 121 -186 167 -15 29 -17 40 -7 61 12
26 23 31 103 41 l46 6 5 74 c6 94 42 167 115 236 65 61 118 86 203 94 116 12
222 -45 283 -153 25 -45 32 -52 37 -37 3 11 13 32 24 47 18 27 16 58 -3 58 -5
0 -11 -9 -14 -21 -5 -18 -8 -19 -29 -8 -13 7 -45 32 -72 56 -127 114 -325 105
-451 -22 -46 -46 -95 -132 -95 -170 -1 -43 -14 -48 -60 -25 -34 17 -56 21
-101 18 -78 -6 -128 -41 -168 -118 l-30 -59 20 -50 c25 -68 12 -67 -83 4 -356
270 -500 480 -515 750 -8 146 9 199 90 280 58 57 103 82 177 99 23 5 26 11 28
51 1 37 -3 51 -23 71 -26 26 -46 30 -76 14 -26 -15 -24 -38 5 -46 58 -14 30
-57 -97 -151 -170 -127 -196 -374 -66 -622 65 -126 200 -261 450 -451 139
-107 140 -112 17 -124 -39 -4 -98 -16 -130 -26 -58 -18 -60 -18 -116 3 l-58
20 -57 -26 c-70 -32 -80 -52 -43 -84 15 -13 26 -27 24 -31 -2 -4 -29 -31 -60
-61 l-58 -53 -167 6 c-253 10 -485 32 -663 62 -511 87 -891 320 -1157 710 -42
63 -53 87 -48 104 8 25 6 25 135 -16 99 -32 145 -36 145 -14 0 11 -16 16 -65
21 -73 6 -163 33 -185 55 -12 13 -9 29 25 127 104 303 246 552 454 793 307
359 673 608 1101 747 107 36 253 69 265 62 6 -4 7 -17 4 -31 -10 -38 24 -31
41 10 8 18 21 36 29 39 42 16 275 29 419 23 694 -29 1194 -255 1687 -762 314
-322 500 -647 596 -1039 39 -161 54 -324 54 -600 0 -277 -12 -409 -60 -645
-189 -938 -622 -1582 -1422 -2118 -135 -90 -236 -151 -460 -277 -97 -55 -175
-101 -173 -103 6 -6 199 88 312 151 204 115 448 276 600 397 290 230 576 529
740 775 277 418 460 936 529 1505 25 201 25 571 0 730 -77 501 -258 905 -566
1262 -377 439 -880 723 -1445 819 -114 19 -478 35 -560 23z m-2897 -1256 c7
-7 12 -25 12 -40 0 -16 7 -31 15 -34 9 -4 15 -19 15 -36 0 -20 8 -37 25 -50
14 -11 25 -30 25 -43 0 -12 10 -29 23 -38 12 -8 19 -18 14 -23 -14 -14 -61 11
-77 41 -8 16 -28 40 -44 54 -23 20 -27 30 -23 58 3 18 2 33 -3 33 -16 0 -80
61 -80 76 0 18 81 19 98 2z m301 -76 c77 -57 -20 -125 -105 -73 -40 25 -49 56
-22 83 25 25 87 20 127 -10z m8444 -27 c24 -23 112 -210 152 -318 51 -142 95
-312 121 -472 12 -77 23 -126 23 -110 1 38 -33 244 -61 360 -30 129 -81 272
-145 408 -31 64 -53 120 -49 124 10 10 91 -13 164 -47 119 -55 301 -212 288
-247 -4 -9 -8 -50 -11 -92 l-4 -76 10 55 c14 74 26 101 41 94 15 -6 114 -139
152 -205 14 -25 26 -55 26 -67 0 -12 13 -34 28 -50 15 -16 36 -50 46 -77 23
-60 21 -68 -87 -269 -132 -246 -203 -433 -241 -635 -25 -129 -18 -119 20 29
42 167 87 302 131 399 60 133 210 337 231 316 12 -12 55 -179 72 -280 6 -38
10 -124 8 -190 -2 -97 -6 -120 -18 -122 -8 -1 -37 -5 -64 -8 -38 -5 -58 -15
-93 -48 -116 -107 -273 -415 -261 -514 3 -24 6 -19 26 34 31 85 107 195 184
269 71 69 203 158 218 149 6 -3 10 -35 10 -71 l0 -64 -55 -35 c-58 -38 -77
-58 -22 -25 17 11 41 20 51 20 17 0 18 -6 13 -77 -3 -43 -24 -152 -46 -243
-47 -190 -48 -198 -24 -179 47 39 121 265 145 441 10 78 15 92 34 100 46 21
57 5 50 -70 -17 -163 -95 -369 -202 -532 -90 -137 -309 -340 -367 -340 -27 0
-107 184 -146 335 -46 174 -68 361 -101 850 -6 88 -18 230 -26 316 -43 461
-143 797 -312 1051 -53 79 -51 95 14 115 53 16 60 15 77 -2z m-8364 -107 c9
-15 12 -30 8 -34 -9 -10 -57 35 -57 53 0 23 33 10 49 -19z m-167 -74 c21 -11
27 -19 20 -26 -14 -14 -66 4 -70 25 -4 21 10 21 50 1z m119 -166 c8 -19 28
-39 46 -48 41 -19 42 -30 2 -30 -50 0 -111 75 -82 103 12 13 19 7 34 -25z
m126 11 c18 -18 3 -39 -27 -39 -32 0 -45 13 -36 35 6 18 47 20 63 4z m9103
-289 c17 -32 0 -47 -21 -19 -23 29 -24 39 -4 39 8 0 19 -9 25 -20z m0 -210 c0
-5 -5 -10 -11 -10 -5 0 -7 5 -4 10 3 6 8 10 11 10 2 0 4 -4 4 -10z m1749 -205
c12 -12 12 -17 -2 -38 -18 -28 -76 -77 -156 -131 -84 -57 -134 -39 -98 34 9
16 12 32 7 35 -19 12 -17 57 4 81 36 41 209 55 245 19z m-732 -156 c117 -44
89 -176 -53 -247 -87 -44 -213 -37 -275 15 -57 48 -32 129 57 184 80 49 208
72 271 48z m-7195 -39 c60 -9 82 -19 185 -86 65 -42 135 -90 156 -106 20 -16
37 -27 37 -24 0 3 -44 38 -97 78 -64 47 -92 74 -81 76 25 5 125 -50 206 -113
98 -76 212 -215 177 -215 -3 0 -29 24 -58 53 -29 28 -73 68 -97 87 -25 19 7
-17 70 -80 133 -132 166 -177 186 -251 15 -60 19 -129 6 -129 -5 0 -32 29 -60
64 -59 72 -159 158 -246 210 -176 106 -417 166 -795 197 -112 10 -155 17 -159
27 -3 8 13 32 35 54 l41 40 133 -16 c74 -10 215 -35 313 -56 99 -22 181 -38
183 -36 4 3 -30 18 -274 126 -79 34 -143 66 -143 71 0 14 16 18 100 28 104 12
107 12 182 1z m7662 -21 c28 -13 76 -96 68 -119 -7 -22 -123 -139 -154 -156
-23 -12 -26 -19 -21 -47 4 -26 -1 -40 -23 -66 -52 -63 -194 -108 -194 -63 0
13 15 23 55 36 67 21 82 43 66 97 -17 55 4 90 69 118 65 28 78 54 61 121 -20
78 8 108 73 79z m-825 -263 c10 -12 -4 -32 -70 -105 -45 -50 -86 -91 -90 -91
-44 0 65 183 121 203 23 9 27 8 39 -7z m439 -235 c10 -64 -124 -115 -214 -81
-36 14 -25 22 49 37 37 8 77 24 102 42 45 34 59 34 63 2z m-359 -377 c38 -49
18 -125 -51 -191 -37 -36 -114 -74 -135 -66 -24 9 -14 40 17 53 63 26 123 118
122 187 -1 51 16 57 47 17z m-245 -53 c53 -58 -68 -128 -141 -82 -40 25 -44
62 -11 85 34 24 130 21 152 -3z m-34 -201 c0 -5 -4 -10 -10 -10 -5 0 -10 5
-10 10 0 6 5 10 10 10 6 0 10 -4 10 -10z m-752 -419 c18 -22 32 -45 32 -51 0
-20 -52 -80 -69 -80 -19 0 -131 96 -131 111 0 11 96 58 121 58 9 1 30 -17 47
-38z m-123 -82 c39 -33 71 -67 73 -75 5 -20 -45 -84 -65 -84 -9 0 -53 26 -97
59 -45 32 -96 66 -114 75 -18 10 -32 22 -30 28 5 14 78 40 98 35 9 -2 21 2 28
10 21 22 34 16 107 -48z"/>
<path d="M875 9600 c-9 -15 4 -30 26 -30 23 0 26 25 3 34 -21 8 -22 8 -29 -4z"/>
<path d="M9833 9095 c0 -22 2 -30 4 -17 2 12 2 30 0 40 -3 9 -5 -1 -4 -23z"/>
<path d="M9821 9014 c0 -11 3 -14 6 -6 3 7 2 16 -1 19 -3 4 -6 -2 -5 -13z"/>
<path d="M9662 8625 c0 -16 2 -22 5 -12 2 9 2 23 0 30 -3 6 -5 -1 -5 -18z"/>
<path d="M10139 7783 c-13 -16 -12 -17 4 -4 9 7 17 15 17 17 0 8 -8 3 -21 -13z"/>
<path d="M10089 7743 l-24 -28 28 24 c15 14 27 26 27 28 0 8 -8 1 -31 -24z"/>
<path d="M10923 8290 c-44 -27 -54 -67 -22 -93 48 -39 169 -1 169 54 0 25 -48
59 -84 59 -17 0 -46 -9 -63 -20z"/>
<path d="M7104 10915 c-9 -21 101 -189 174 -267 60 -63 164 -138 259 -187 73
-37 61 -23 -16 19 -191 105 -301 227 -380 423 -12 30 -28 35 -37 12z"/>
<path d="M7910 10880 c0 -42 52 -387 67 -449 10 -38 29 -81 50 -107 18 -24 33
-46 33 -49 0 -15 -29 1 -79 43 -31 27 -70 54 -87 59 -29 10 -31 9 -27 -8 4
-15 0 -19 -18 -19 -21 0 -20 -2 12 -26 77 -59 257 -123 418 -149 207 -34 349
-144 401 -314 11 -35 20 -85 20 -111 0 -45 18 -79 33 -63 21 21 -24 166 -117
378 -26 60 -38 106 -47 180 -14 115 -27 148 -72 175 -42 26 -68 25 -102 -2
l-28 -22 6 44 c3 25 9 59 13 76 5 26 0 37 -25 66 -17 20 -31 41 -31 48 0 29
-45 83 -84 100 -23 10 -63 37 -90 59 -26 23 -58 41 -70 41 -12 0 -46 16 -76
35 -63 40 -100 46 -100 15z m146 -165 c31 -36 42 -43 62 -38 17 4 31 -2 55
-25 18 -16 42 -35 54 -41 29 -15 58 -70 45 -83 -7 -7 -16 -1 -28 16 -10 16
-23 25 -31 21 -9 -3 -27 8 -43 25 -19 20 -38 30 -58 30 -17 0 -32 6 -36 15 -3
9 -18 15 -35 15 -34 0 -51 22 -51 68 0 56 18 55 66 -3z m93 -240 c44 -57 33
-137 -21 -143 -22 -3 -32 3 -48 30 -22 37 -27 107 -8 126 20 20 55 14 77 -13z
m159 13 c13 -13 17 -68 4 -68 -7 0 -42 63 -42 75 0 10 26 5 38 -7z m183 -128
c22 -12 49 -61 49 -90 0 -30 -14 -24 -33 14 -11 23 -27 38 -51 47 -20 7 -36
16 -36 19 0 21 39 27 71 10z m-260 -51 c32 -23 38 -39 12 -39 -20 0 -53 28
-53 47 0 18 7 17 41 -8z m255 -64 c8 -32 -13 -60 -32 -44 -15 12 -19 51 -7 62
14 15 33 6 39 -18z"/>
<path d="M8117 10403 c-11 -10 -8 -41 4 -49 17 -10 32 12 24 35 -6 21 -16 26
-28 14z"/>
<path d="M5767 10743 c-4 -3 -7 -29 -7 -56 0 -43 4 -53 36 -85 33 -33 36 -34
52 -19 33 34 11 135 -34 156 -29 13 -38 14 -47 4z"/>
<path d="M7530 10724 c0 -32 106 -171 163 -215 33 -26 28 -18 -25 37 -36 38
-82 96 -102 129 -20 33 -36 55 -36 49z"/>
<path d="M3033 10687 c-12 -26 -2 -54 16 -43 13 8 15 66 3 66 -5 0 -14 -11
-19 -23z"/>
<path d="M3540 10651 c-270 -61 -514 -252 -640 -501 -57 -113 -100 -297 -100
-430 1 -171 69 -471 129 -566 14 -22 16 -27 -26 90 -64 180 -92 397 -74 562
25 223 102 377 270 544 98 98 147 134 259 190 101 50 197 76 329 91 177 19
328 -12 503 -102 82 -42 90 -45 60 -19 -46 40 -178 104 -270 130 -110 32 -324
37 -440 11z"/>
<path d="M3164 10614 c-18 -14 -18 -15 4 -4 12 6 22 13 22 15 0 8 -5 6 -26
-11z"/>
<path d="M340 10595 c0 -9 12 -20 28 -26 172 -67 267 -144 395 -319 10 -14 8
-8 -4 15 -64 115 -157 204 -310 298 -79 49 -109 58 -109 32z"/>
<path d="M2893 10555 c-3 -9 -3 -18 0 -21 9 -9 27 6 27 22 0 19 -19 18 -27 -1z"/>
<path d="M3043 10530 c-48 -37 -139 -142 -178 -202 -31 -50 -9 -29 29 26 21
30 75 91 122 135 46 45 82 81 80 81 -2 0 -26 -18 -53 -40z"/>
<path d="M10304 10425 c-3 -8 -3 -19 1 -25 9 -14 35 6 35 26 0 19 -29 18 -36
-1z"/>
<path d="M2797 10416 c-6 -15 1 -26 15 -26 4 0 8 9 8 20 0 23 -15 27 -23 6z"/>
<path d="M4374 10401 c4 -6 16 -16 28 -22 15 -8 18 -8 14 0 -4 6 -16 16 -28
22 -15 8 -18 8 -14 0z"/>
<path d="M6026 10368 c-33 -57 -33 -81 1 -108 31 -24 71 -23 86 2 14 22 -6 89
-37 125 l-23 27 -27 -46z"/>
<path d="M10194 10346 c-8 -22 3 -33 18 -18 9 9 9 15 0 24 -9 9 -13 7 -18 -6z"/>
<path d="M4499 10270 c22 -27 56 -78 77 -112 20 -35 39 -65 40 -67 2 -2 10 4
19 13 9 9 27 16 39 16 27 0 72 45 81 81 5 19 0 34 -20 57 -36 43 -65 43 -65
-1 0 -18 -6 -42 -14 -52 -19 -26 -45 -13 -123 59 -33 31 -64 56 -67 56 -4 0
11 -22 33 -50z"/>
<path d="M2795 10198 c-24 -51 -46 -106 -50 -123 -4 -16 9 6 28 50 18 44 43
99 56 123 12 23 19 42 16 42 -4 0 -26 -42 -50 -92z"/>
<path d="M190 10266 c0 -10 22 -16 78 -21 66 -6 109 -16 257 -59 11 -4 4 1
-15 10 -36 17 -280 84 -306 84 -7 0 -14 -6 -14 -14z"/>
<path d="M2710 10260 c0 -13 5 -20 13 -17 6 2 12 10 12 17 0 7 -6 15 -12 18
-8 2 -13 -5 -13 -18z"/>
<path d="M10093 10245 c-8 -22 6 -33 17 -15 13 20 12 30 0 30 -6 0 -13 -7 -17
-15z"/>
<path d="M802 10175 c12 -24 23 -43 26 -41 4 5 -36 86 -43 86 -3 0 5 -20 17
-45z"/>
<path d="M599 10148 c29 -17 83 -59 119 -92 43 -39 58 -50 44 -30 -30 44 -180
154 -208 154 -5 0 15 -15 45 -32z"/>
<path d="M10010 10144 c0 -8 5 -12 10 -9 6 4 8 11 5 16 -9 14 -15 11 -15 -7z"/>
<path d="M8062 10125 c-41 -7 -77 -17 -80 -21 -4 -4 7 -4 23 0 95 20 250 17
410 -10 67 -10 -19 18 -95 32 -92 16 -163 16 -258 -1z"/>
<path d="M2650 10101 c0 -6 5 -13 10 -16 6 -3 10 1 10 9 0 9 -4 16 -10 16 -5
0 -10 -4 -10 -9z"/>
<path d="M9060 10080 c0 -19 5 -30 14 -30 20 0 26 12 19 38 -8 33 -33 27 -33
-8z"/>
<path d="M7930 10090 c-18 -12 -2 -12 25 0 13 6 15 9 5 9 -8 0 -22 -4 -30 -9z"/>
<path d="M2726 10014 c-4 -14 -5 -28 -3 -31 3 -2 8 8 11 23 4 14 5 28 3 31 -3
2 -8 -8 -11 -23z"/>
<path d="M9940 10025 c0 -8 2 -15 4 -15 2 0 6 7 10 15 3 8 1 15 -4 15 -6 0
-10 -7 -10 -15z"/>
<path d="M6259 9979 c-15 -15 -19 -30 -17 -62 3 -35 7 -43 30 -51 39 -14 68
14 68 65 0 20 -3 44 -6 53 -9 22 -50 20 -75 -5z"/>
<path d="M9186 9991 c-8 -12 3 -41 15 -41 5 0 9 11 9 25 0 25 -14 34 -24 16z"/>
<path d="M2711 9944 c0 -11 3 -14 6 -6 3 7 2 16 -1 19 -3 4 -6 -2 -5 -13z"/>
<path d="M2701 9894 c0 -11 3 -14 6 -6 3 7 2 16 -1 19 -3 4 -6 -2 -5 -13z"/>
<path d="M7617 9862 c-42 -56 -83 -141 -92 -192 -12 -75 52 -144 133 -144 92
0 169 72 159 149 -9 65 -60 88 -79 35 -19 -55 -78 -67 -122 -24 -36 36 -34 78
8 158 19 36 34 66 32 66 -1 0 -18 -22 -39 -48z"/>
<path d="M9287 9893 c-13 -12 -7 -43 8 -43 9 0 15 9 15 25 0 24 -10 32 -23 18z"/>
<path d="M2693 9720 c0 -47 2 -66 4 -42 2 23 2 61 0 85 -2 23 -4 4 -4 -43z"/>
<path d="M3866 9560 c22 -65 -7 -120 -63 -120 -18 0 -28 8 -36 30 -14 36 -31
38 -53 5 -33 -51 27 -135 97 -135 34 0 90 38 107 73 16 34 3 89 -34 137 -22
29 -25 31 -18 10z"/>
<path d="M4497 9562 c-22 -24 -22 -91 -1 -121 26 -36 79 -55 112 -39 28 14 72
88 72 122 0 17 -4 15 -28 -13 -22 -26 -33 -32 -57 -29 -28 3 -30 6 -33 51 -3
41 -6 47 -26 47 -13 0 -30 -8 -39 -18z"/>
<path d="M6417 9562 c-11 -12 -17 -35 -17 -66 0 -45 1 -47 27 -44 14 2 35 15
46 30 40 54 -12 129 -56 80z"/>
<path d="M10836 9143 c-14 -45 -75 -64 -104 -33 -19 20 -19 20 -43 -16 -14
-23 -39 -43 -63 -52 -38 -15 -40 -14 -57 7 l-18 22 -15 -35 c-15 -36 -67 -76
-98 -76 -9 0 -20 9 -23 21 -10 30 -28 18 -40 -26 -6 -20 -27 -56 -45 -78 l-35
-41 55 41 c80 59 96 66 146 58 l44 -6 -6 30 c-6 29 -4 32 41 52 38 17 52 19
72 10 35 -16 43 -14 43 14 0 36 39 53 84 37 43 -16 46 -15 46 8 0 11 11 25 25
33 23 11 24 15 11 32 -13 18 -14 18 -20 -2z"/>
<path d="M2950 9106 c0 -10 51 -96 57 -96 3 0 -7 21 -23 48 -31 54 -34 58 -34
48z"/>
<path d="M3710 8876 c0 -14 5 -28 11 -32 17 -10 32 12 24 35 -9 29 -35 27 -35
-3z"/>
<path d="M3807 8774 c-8 -8 3 -34 14 -34 5 0 9 9 9 20 0 19 -11 26 -23 14z"/>
<path d="M2243 8683 c-38 -8 -83 -68 -83 -111 0 -80 89 -145 258 -188 124 -31
137 -29 35 6 -152 52 -223 97 -223 140 0 22 37 70 55 70 7 0 27 -11 44 -25 29
-25 30 -25 40 -6 17 31 13 48 -16 81 -28 30 -68 42 -110 33z"/>
<path d="M3900 8675 c0 -8 5 -15 10 -15 6 0 10 7 10 15 0 8 -4 15 -10 15 -5 0
-10 -7 -10 -15z"/>
<path d="M4754 8645 c-15 -23 -15 -27 3 -57 23 -40 58 -46 93 -18 24 19 24 20
4 20 -30 0 -48 25 -40 55 6 22 3 25 -19 25 -15 0 -31 -9 -41 -25z"/>
<path d="M7620 8610 c0 -5 7 -10 15 -10 8 0 15 5 15 10 0 6 -7 10 -15 10 -8 0
-15 -4 -15 -10z"/>
<path d="M7888 8573 c6 -2 18 -2 25 0 6 3 1 5 -13 5 -14 0 -19 -2 -12 -5z"/>
<path d="M7818 8563 c7 -3 16 -2 19 1 4 3 -2 6 -13 5 -11 0 -14 -3 -6 -6z"/>
<path d="M7450 8550 c0 -5 9 -10 20 -10 11 0 20 5 20 10 0 6 -9 10 -20 10 -11
0 -20 -4 -20 -10z"/>
<path d="M7758 8553 c7 -3 16 -2 19 1 4 3 -2 6 -13 5 -11 0 -14 -3 -6 -6z"/>
<path d="M1292 8533 c-19 -7 -4 -23 24 -23 27 0 32 15 8 24 -9 3 -16 6 -17 5
-1 0 -8 -3 -15 -6z"/>
<path d="M7635 8521 c-54 -19 -175 -79 -175 -85 0 -3 35 11 78 31 42 20 100
44 127 54 28 10 43 18 35 18 -8 0 -37 -8 -65 -18z"/>
<path d="M5031 8476 c-124 -45 -190 -192 -162 -362 17 -103 84 -414 88 -410 2
2 -8 68 -22 147 -56 316 -58 337 -40 406 30 110 118 204 204 219 57 9 60 12
11 12 -25 0 -60 -5 -79 -12z"/>
<path d="M1500 8476 c0 -3 36 -32 79 -65 150 -111 384 -215 610 -271 128 -32
311 -63 339 -58 9 2 -23 9 -73 16 -326 46 -718 197 -917 354 -21 16 -38 27
-38 24z"/>
<path d="M7310 8470 c-13 -9 -13 -11 0 -19 17 -12 30 -5 30 15 0 16 -9 18 -30
4z"/>
<path d="M7827 8454 c-325 -59 -615 -320 -715 -645 -62 -201 -52 -425 27 -617
31 -74 109 -204 132 -218 8 -4 3 8 -10 27 -39 58 -109 211 -128 279 -27 97
-24 365 5 471 45 165 138 315 279 450 183 174 371 249 625 249 185 0 386 -40
533 -105 32 -14 60 -24 62 -22 7 8 -140 68 -225 93 -186 54 -416 69 -585 38z"/>
<path d="M1397 8433 c-14 -13 -6 -23 18 -23 16 0 25 6 25 15 0 15 -31 21 -43
8z"/>
<path d="M7407 8405 c-20 -14 -37 -28 -37 -31 0 -2 18 8 40 22 35 23 47 34 37
34 -1 0 -19 -11 -40 -25z"/>
<path d="M7173 8373 c-7 -2 -13 -9 -13 -15 0 -12 41 -6 41 7 1 12 -11 15 -28
8z"/>
<path d="M7298 8320 c-31 -28 -71 -69 -88 -93 -32 -41 -32 -41 11 6 24 26 67
67 94 92 28 24 48 44 44 45 -3 0 -30 -23 -61 -50z"/>
<path d="M1516 8341 c-7 -11 22 -23 35 -15 5 3 7 10 4 15 -8 12 -32 12 -39 0z"/>
<path d="M4555 8320 c-15 -24 28 -121 95 -216 39 -54 94 -138 122 -186 29 -48
54 -85 56 -83 2 2 -21 75 -51 162 -30 87 -62 182 -72 211 -13 41 -27 60 -62
87 -46 35 -76 44 -88 25z"/>
<path d="M8650 8315 c0 -2 18 -14 40 -25 22 -11 40 -18 40 -15 0 2 -18 14 -40
25 -22 11 -40 18 -40 15z"/>
<path d="M1648 8263 c7 -3 16 -2 19 1 4 3 -2 6 -13 5 -11 0 -14 -3 -6 -6z"/>
<path d="M7040 8230 c-11 -7 -12 -12 -3 -21 14 -14 53 -2 53 17 0 16 -28 18
-50 4z"/>
<path d="M1758 8203 c7 -3 16 -2 19 1 4 3 -2 6 -13 5 -11 0 -14 -3 -6 -6z"/>
<path d="M2578 8073 c12 -2 30 -2 40 0 9 3 -1 5 -23 4 -22 0 -30 -2 -17 -4z"/>
<path d="M6952 8064 c-12 -8 -22 -19 -22 -25 0 -15 36 -10 50 6 20 24 -1 38
-28 19z"/>
<path d="M2663 8063 c9 -2 25 -2 35 0 9 3 1 5 -18 5 -19 0 -27 -2 -17 -5z"/>
<path d="M7095 8059 c-4 -6 -5 -12 -2 -15 2 -3 7 2 10 11 7 17 1 20 -8 4z"/>
<path d="M9386 7848 c-29 -44 -47 -101 -41 -125 6 -27 225 -517 250 -560 10
-18 14 -21 11 -8 -42 169 -69 298 -86 411 -28 188 -37 223 -66 267 -28 42 -47
47 -68 15z"/>
<path d="M1250 7770 c0 -5 4 -10 9 -10 6 0 13 5 16 10 3 6 -1 10 -9 10 -9 0
-16 -4 -16 -10z"/>
<path d="M1140 7700 c0 -5 5 -10 10 -10 6 0 10 5 10 10 0 6 -4 10 -10 10 -5 0
-10 -4 -10 -10z"/>
<path d="M4450 7654 c19 -16 60 -51 90 -78 42 -37 39 -33 -12 17 -37 36 -77
71 -90 77 -13 7 -8 -1 12 -16z"/>
<path d="M4343 7628 c2 -7 12 -13 22 -13 10 0 20 6 23 13 2 7 -6 12 -23 12
-17 0 -25 -5 -22 -12z"/>
<path d="M1039 7614 c-12 -14 -11 -16 5 -13 11 2 21 10 24 17 5 17 -13 15 -29
-4z"/>
<path d="M4442 7563 c-19 -8 -4 -23 24 -23 16 0 24 5 22 13 -5 13 -26 18 -46
10z"/>
<path d="M8252 7558 c-19 -19 -14 -33 18 -45 40 -15 42 -62 4 -92 -30 -23 -55
-26 -87 -10 -18 8 -17 5 6 -15 64 -59 149 -55 188 8 46 75 3 166 -78 166 -22
0 -44 -5 -51 -12z"/>
<path d="M8840 7560 c0 -14 43 -30 54 -20 4 5 5 13 2 19 -9 14 -56 14 -56 1z"/>
<path d="M950 7520 c-8 -5 -11 -12 -8 -16 10 -9 38 3 38 16 0 12 -10 13 -30 0z"/>
<path d="M4535 7470 c3 -5 15 -10 26 -10 11 0 17 5 14 10 -3 6 -15 10 -26 10
-11 0 -17 -4 -14 -10z"/>
<path d="M8965 7470 c-3 -6 1 -13 10 -16 19 -8 30 0 20 15 -8 14 -22 14 -30 1z"/>
<path d="M865 7403 c-18 -17 -18 -18 -1 -21 24 -5 44 14 29 29 -7 7 -16 5 -28
-8z"/>
<path d="M2401 7386 c-19 -14 -46 -28 -62 -31 -39 -9 -45 -22 -18 -43 16 -13
20 -24 15 -40 -11 -33 -55 -82 -75 -82 -29 0 -33 -13 -11 -30 20 -15 20 -17 5
-61 -12 -36 -24 -49 -52 -63 l-36 -17 22 -23 c31 -33 20 -82 -23 -100 -30 -12
-30 -13 -10 -24 19 -10 24 -8 38 13 9 14 23 25 31 25 18 0 18 4 3 46 -9 27 -9
37 6 58 9 14 25 26 36 26 23 0 25 9 9 43 -9 20 -7 34 10 72 19 44 22 46 51 40
l30 -7 -6 45 c-7 47 7 83 54 145 29 38 26 40 -17 8z"/>
<path d="M4605 7380 c-4 -6 3 -10 14 -10 25 0 27 6 6 13 -8 4 -17 2 -20 -3z"/>
<path d="M9058 7368 c9 -9 15 -9 24 0 9 9 7 12 -12 12 -19 0 -21 -3 -12 -12z"/>
<path d="M4133 7132 c-22 -3 -73 -55 -73 -73 0 -17 20 -49 30 -49 6 0 19 9 30
20 35 35 68 22 80 -31 l7 -34 12 28 c34 86 -6 151 -86 139z"/>
<path d="M8949 6996 c-159 -57 -259 -222 -230 -381 13 -71 32 -107 93 -178 49
-56 57 -87 23 -87 -20 0 -19 -16 2 -24 10 -4 28 1 42 12 15 10 35 22 46 26 17
7 14 11 -27 32 -59 30 -111 83 -140 143 -34 68 -30 187 7 262 49 97 154 178
256 198 l44 9 -40 0 c-22 1 -56 -5 -76 -12z"/>
<path d="M7350 6876 c0 -2 8 -10 18 -17 15 -13 16 -12 3 4 -13 16 -21 21 -21
13z"/>
<path d="M10098 6830 c17 -25 52 -65 78 -90 l48 -45 -44 50 c-25 28 -60 68
-78 90 l-33 40 29 -45z"/>
<path d="M10187 6853 c-13 -12 -7 -43 8 -43 9 0 15 9 15 25 0 24 -10 32 -23
18z"/>
<path d="M7485 6738 c73 -79 86 -105 60 -124 -10 -8 -34 -14 -52 -14 -41 0
-45 -26 -8 -60 51 -48 135 -11 150 67 3 19 13 37 21 40 11 4 -4 16 -46 39 -33
18 -85 51 -115 73 -30 23 -57 41 -61 41 -3 0 20 -28 51 -62z"/>
<path d="M8190 6780 c-11 -11 -20 -29 -20 -40 0 -16 7 -20 38 -20 67 0 82 -42
35 -93 l-28 -30 34 7 c69 13 117 64 105 110 -3 15 -20 40 -36 56 -37 37 -96
42 -128 10z"/>
<path d="M2156 6758 c-18 -35 -17 -68 3 -68 14 0 24 40 19 76 l-4 29 -18 -37z"/>
<path d="M10270 6740 c0 -11 5 -20 10 -20 6 0 10 9 10 20 0 11 -4 20 -10 20
-5 0 -10 -9 -10 -20z"/>
<path d="M10360 6686 c0 -8 5 -18 10 -21 6 -3 10 3 10 14 0 12 -4 21 -10 21
-5 0 -10 -6 -10 -14z"/>
<path d="M10460 6631 c0 -12 5 -21 10 -21 6 0 10 6 10 14 0 8 -4 18 -10 21 -5
3 -10 -3 -10 -14z"/>
<path d="M10410 6580 c8 -5 20 -10 25 -10 6 0 3 5 -5 10 -8 5 -19 10 -25 10
-5 0 -3 -5 5 -10z"/>
<path d="M10475 6555 c17 -8 37 -14 45 -14 8 0 -1 7 -20 14 -46 18 -64 17 -25
0z"/>
<path d="M9097 6522 c-29 -32 -21 -50 21 -54 30 -2 38 -7 40 -26 3 -23 4 -23
23 -6 32 29 24 70 -18 93 -30 16 -47 14 -66 -7z"/>
<path d="M10558 6533 c6 -2 18 -2 25 0 6 3 1 5 -13 5 -14 0 -19 -2 -12 -5z"/>
<path d="M10613 6523 c9 -2 25 -2 35 0 9 3 1 5 -18 5 -19 0 -27 -2 -17 -5z"/>
<path d="M3728 6437 c-14 -12 -31 -32 -38 -45 -16 -32 -18 -108 -3 -123 20
-20 72 -15 96 10 28 28 30 115 4 155 -21 32 -25 32 -59 3z"/>
<path d="M10288 6443 c7 -3 16 -2 19 1 4 3 -2 6 -13 5 -11 0 -14 -3 -6 -6z"/>
<path d="M10338 6433 c7 -3 16 -2 19 1 4 3 -2 6 -13 5 -11 0 -14 -3 -6 -6z"/>
<path d="M10398 6423 c6 -2 18 -2 25 0 6 3 1 5 -13 5 -14 0 -19 -2 -12 -5z"/>
<path d="M10048 6333 c7 -3 16 -2 19 1 4 3 -2 6 -13 5 -11 0 -14 -3 -6 -6z"/>
<path d="M3480 6125 c-6 -8 -14 -32 -17 -55 -10 -70 48 -108 83 -54 19 28 21
73 4 103 -13 24 -52 28 -70 6z"/>
<path d="M3779 6073 c-29 -26 -99 -88 -154 -138 -403 -364 -656 -570 -1264
-1022 -563 -421 -761 -583 -761 -624 0 -27 14 -18 135 87 164 142 327 271 565
448 732 544 986 747 1285 1022 122 112 262 261 253 269 -2 2 -29 -17 -59 -42z"/>
<path d="M7345 5896 c-88 -40 -155 -134 -155 -213 0 -42 28 -111 53 -131 14
-12 23 -8 66 28 27 23 52 48 55 55 8 22 66 47 92 41 12 -3 43 -31 69 -62 41
-51 45 -60 45 -112 0 -54 -2 -57 -49 -103 -153 -147 -790 -356 -1211 -396 -70
-7 -72 -7 -35 -14 90 -17 524 46 810 117 371 92 570 206 663 381 27 51 32 71
32 129 0 85 -23 136 -94 206 -71 71 -133 98 -221 98 -52 0 -83 -6 -120 -24z"/>
<path d="M3244 5875 c-18 -44 -18 -55 2 -83 31 -45 74 -18 74 48 0 73 -50 96
-76 35z"/>
<path d="M9787 5746 c-291 -332 -621 -578 -1082 -806 -614 -303 -1235 -479
-2045 -579 -327 -41 -673 -71 -1000 -88 l-155 -8 125 -6 c138 -6 529 5 744 21
1129 86 2048 362 2745 825 185 123 328 240 496 409 162 162 333 376 302 376
-2 0 -60 -65 -130 -144z"/>
<path d="M10155 5873 c-28 -7 -55 -33 -55 -53 0 -33 39 -70 73 -70 39 0 105
30 130 57 16 19 17 22 2 36 -28 28 -99 42 -150 30z"/>
<path d="M952 5814 c-27 -19 -28 -28 -1 -55 18 -18 20 -28 14 -67 -9 -66 -23
-77 -100 -77 -36 0 -65 -3 -65 -6 0 -13 79 -78 117 -97 66 -33 90 -35 134 -10
54 30 109 120 109 178 0 26 -8 56 -21 77 -39 62 -137 92 -187 57z"/>
<path d="M9895 5553 c-43 -11 -61 -53 -33 -81 21 -21 101 -15 138 11 41 27 47
43 23 55 -23 13 -102 22 -128 15z"/>
<path d="M135 5354 c-11 -3 -40 -12 -65 -21 -37 -14 -41 -17 -25 -24 11 -4 53
-8 94 -8 298 -3 559 -248 637 -598 13 -58 15 -99 10 -177 -9 -128 -46 -387
-96 -659 -57 -316 -107 -623 -127 -792 -21 -178 -26 -657 -7 -689 9 -15 13 12
18 130 22 548 30 609 167 1259 115 542 144 749 128 916 -36 374 -296 651 -623
664 -50 2 -100 2 -111 -1z"/>
<path d="M9603 5295 c-29 -20 -29 -45 -2 -74 19 -21 28 -22 73 -17 56 8 96 29
96 51 0 40 -126 70 -167 40z"/>
<path d="M4130 5136 c-36 -13 -274 -117 -530 -233 -256 -116 -562 -253 -680
-306 -304 -135 -414 -187 -408 -192 3 -3 167 35 364 84 539 134 770 180 1112
221 256 30 286 38 415 101 86 42 152 99 167 145 7 19 10 36 8 38 -1 1 -28 18
-59 38 -77 50 -143 82 -218 107 -79 26 -90 26 -171 -3z"/>
<path d="M9292 5054 c-29 -20 -28 -40 3 -60 46 -30 155 1 155 45 0 11 -9 21
-22 25 -42 11 -113 6 -136 -10z"/>
<path d="M1515 4941 c-42 -19 -88 -55 -151 -117 l-91 -89 -26 -103 c-15 -56
-108 -339 -208 -629 -99 -290 -178 -533 -177 -541 2 -7 41 56 87 140 234 424
308 545 468 763 153 208 243 398 243 512 0 54 -5 65 -37 82 -30 15 -40 14
-108 -18z"/>
<path d="M8994 4855 c-19 -15 -19 -15 0 -30 38 -29 146 -12 146 23 0 25 -114
31 -146 7z"/>
<path d="M8720 4700 c-25 -15 16 -50 59 -50 55 1 94 39 55 54 -24 9 -97 7
-114 -4z"/>
<path d="M8382 4589 c-28 -11 -25 -29 9 -46 60 -31 117 0 70 39 -25 20 -44 22
-79 7z"/>
<path d="M4098 4043 c7 -3 16 -2 19 1 4 3 -2 6 -13 5 -11 0 -14 -3 -6 -6z"/>
<path d="M4131 4036 c2 -2 83 -20 179 -41 1227 -258 1698 -435 2210 -831 310
-240 704 -697 750 -872 9 -36 8 -54 -10 -115 -26 -96 -26 -115 4 -123 17 -4
36 3 64 21 55 36 71 25 121 -78 55 -111 60 -151 27 -200 -17 -25 -26 -51 -26
-78 l0 -40 53 6 c48 6 54 4 79 -22 15 -15 32 -49 39 -75 11 -40 10 -55 -4
-101 -10 -30 -24 -60 -32 -67 -8 -7 -15 -25 -15 -41 0 -28 2 -29 48 -29 37 0
53 -5 70 -22 33 -36 42 -71 51 -211 8 -103 7 -136 -4 -156 -11 -23 -10 -33 6
-76 10 -28 19 -60 19 -72 0 -41 71 -59 90 -23 5 10 11 43 12 72 2 45 -4 67
-44 149 -86 175 -85 226 4 245 37 8 43 13 43 34 0 22 -8 28 -64 47 -36 11 -70
28 -76 36 -6 8 -17 48 -24 90 -15 87 -7 114 39 124 41 8 53 25 41 56 -12 30
-31 42 -86 51 -65 12 -100 55 -137 166 -17 54 -28 104 -25 113 3 9 19 19 34
22 52 12 73 24 73 45 0 23 -51 48 -118 57 -57 8 -120 76 -157 172 -33 84 -27
102 46 126 62 21 70 38 34 71 -34 31 -66 44 -111 44 -46 0 -98 23 -150 66 -80
65 -374 419 -374 450 0 23 33 17 111 -21 113 -53 216 -77 344 -78 137 -2 191
12 252 67 56 51 71 107 47 185 -17 58 -70 111 -112 111 -51 0 -131 -63 -132
-103 0 -15 8 -17 62 -15 57 3 63 1 76 -23 44 -76 -65 -169 -198 -169 -128 0
-361 101 -840 365 -542 299 -988 472 -1495 579 -261 56 -818 134 -794 112z"/>
<path d="M6390 3954 c14 -2 158 -10 320 -19 653 -34 1038 -78 1538 -176 1259
-245 2084 -785 2345 -1536 132 -378 123 -781 -24 -1081 -84 -172 -231 -302
-344 -302 -78 0 -135 61 -135 145 0 54 23 98 74 141 25 21 46 42 46 46 0 14
-63 79 -91 94 -104 53 -261 -46 -305 -195 -21 -70 -15 -179 13 -242 29 -64 89
-128 143 -151 25 -11 52 -26 61 -34 18 -16 5 -20 179 59 137 62 276 183 369
320 45 66 115 217 139 302 49 168 52 448 7 670 -91 446 -332 843 -685 1128
-436 352 -1172 626 -2005 746 -134 20 -406 45 -810 76 -160 12 -926 20 -835 9z"/>
<path d="M8643 3923 c9 -2 23 -2 30 0 6 3 -1 5 -18 5 -16 0 -22 -2 -12 -5z"/>
<path d="M3441 3896 c2 -3 61 -16 130 -30 196 -40 376 -109 544 -211 266 -160
530 -419 675 -660 157 -262 264 -371 357 -363 33 3 41 8 58 43 16 33 20 61 20
165 0 149 -21 226 -89 318 -100 136 -403 350 -712 505 -329 165 -595 237 -871
237 -64 0 -114 -2 -112 -4z m1473 -732 c32 -36 56 -68 52 -71 -12 -12 -156
134 -156 158 0 18 47 -21 104 -87z"/>
<path d="M8808 3883 c7 -3 16 -2 19 1 4 3 -2 6 -13 5 -11 0 -14 -3 -6 -6z"/>
<path d="M9040 3817 c0 -3 55 -26 123 -52 533 -206 886 -407 1177 -672 106
-96 311 -314 383 -406 33 -42 62 -75 65 -72 6 6 -50 99 -112 182 -58 80 -335
357 -415 416 -94 69 -311 210 -406 264 -167 93 -190 105 -305 153 -63 26 -137
57 -165 69 -99 41 -345 125 -345 118z"/>
<path d="M9715 3740 c-8 -13 31 -50 53 -50 21 0 66 43 55 53 -10 11 -101 8
-108 -3z"/>
<path d="M3395 3645 c346 -87 579 -212 785 -419 247 -248 383 -545 409 -890
32 -419 -120 -784 -424 -1021 -212 -166 -456 -246 -745 -246 -301 0 -553 87
-719 249 -69 68 -97 118 -106 193 -20 161 141 214 214 72 18 -36 52 -28 100
21 51 52 55 79 21 148 -28 55 -74 104 -125 131 -31 17 -57 22 -115 21 -126 0
-178 -41 -202 -158 -25 -117 38 -280 164 -425 133 -154 301 -247 568 -316 204
-52 216 -60 246 -165 21 -71 53 -113 107 -139 96 -47 187 -15 187 64 0 35 -3
38 -60 63 -75 33 -77 50 -11 113 34 33 96 70 212 129 212 107 314 175 419 280
149 148 245 315 302 525 31 116 32 126 32 325 1 223 -7 284 -64 470 -37 121
-91 226 -186 361 -105 150 -207 256 -348 361 -123 92 -295 185 -421 227 -51
17 -367 72 -399 70 -6 0 66 -20 159 -44z"/>
<path d="M2978 3653 c6 -2 18 -2 25 0 6 3 1 5 -13 5 -14 0 -19 -2 -12 -5z"/>
<path d="M10004 3626 c-7 -19 11 -53 35 -66 11 -5 40 -7 66 -3 59 8 57 29 -5
61 -51 25 -88 28 -96 8z"/>
<path d="M10314 3443 c-15 -16 -15 -19 15 -45 37 -33 60 -35 91 -10 28 23 20
39 -26 58 -43 18 -59 18 -80 -3z"/>
<path d="M10550 3212 c0 -43 21 -63 71 -68 54 -6 74 5 64 35 -9 30 -62 61
-102 61 -29 0 -33 -3 -33 -28z"/>
<path d="M2077 3192 c-21 -23 -22 -56 -1 -76 35 -35 164 -7 164 35 0 47 -129
79 -163 41z"/>
<path d="M1823 2988 c-17 -18 -19 -28 -11 -48 12 -33 25 -40 76 -40 95 0 137
59 67 93 -51 25 -107 22 -132 -5z"/>
<path d="M10796 2974 c-13 -33 -5 -55 27 -74 45 -28 83 -26 103 5 19 30 14 40
-36 65 -47 24 -86 26 -94 4z"/>
<path d="M1595 2770 c-12 -13 -15 -27 -11 -44 10 -42 35 -47 96 -23 46 18 55
26 55 47 0 27 -23 37 -86 39 -24 1 -42 -6 -54 -19z"/>
<path d="M11002 2688 c-19 -19 -14 -53 11 -75 49 -45 103 -56 131 -27 14 14
14 18 1 44 -30 59 -110 91 -143 58z"/>
<path d="M1463 2535 c-35 -15 -39 -25 -23 -56 15 -27 79 -26 114 2 30 24 32
32 10 53 -19 20 -58 20 -101 1z"/>
<path d="M1337 2294 c-22 -12 -27 -21 -25 -41 4 -38 28 -49 77 -35 47 15 71
47 49 67 -22 20 -71 25 -101 9z"/>
<path d="M1256 1995 c-28 -21 -13 -45 27 -45 33 0 67 24 67 48 0 17 -71 14
-94 -3z"/>
<path d="M1232 1654 c-28 -19 -30 -54 -2 -54 20 0 55 52 43 64 -9 9 -16 8 -41
-10z"/>
</g>
</svg>
