<?xml version="1.0" standalone="no"?>
<!DOCTYPE svg PUBLIC "-//W3C//DTD SVG 20010904//EN"
 "http://www.w3.org/TR/2001/REC-SVG-20010904/DTD/svg10.dtd">
<svg version="1.0" xmlns="http://www.w3.org/2000/svg"
 width="982.000000pt" height="1280.000000pt" viewBox="0 0 982.000000 1280.000000"
 preserveAspectRatio="xMidYMid meet">
<metadata>
Created by potrace 1.15, written by Peter Selinger 2001-2017
</metadata>
<g transform="translate(0.000000,1280.000000) scale(0.100000,-0.100000)"
fill="#9c27b0" stroke="none">
<path d="M4912 12626 c-19 -25 -20 -25 -73 -11 -69 19 -189 19 -257 1 -148
-40 -289 -182 -356 -358 -11 -30 -24 -48 -34 -48 -9 0 -69 -21 -133 -46 -99
-39 -130 -56 -206 -119 -231 -189 -373 -467 -418 -817 -14 -104 -16 -174 -12
-323 6 -183 17 -284 72 -685 29 -209 95 -820 95 -877 l0 -37 -24 33 c-14 19
-28 47 -31 63 -4 16 -24 47 -44 69 -31 32 -45 39 -75 39 -27 0 -43 7 -59 26
-102 118 -145 144 -246 151 -36 3 -86 7 -109 10 -30 4 -56 0 -83 -12 -22 -10
-41 -16 -43 -14 -2 2 -60 139 -129 304 -238 571 -417 962 -555 1206 -48 85
-82 175 -82 214 0 3 17 5 39 5 53 0 91 31 91 74 0 40 -25 65 -74 73 -36 6 -39
10 -97 124 -32 66 -64 119 -69 119 -22 0 -20 -31 11 -141 17 -63 31 -132 30
-153 0 -22 5 -47 13 -55 11 -14 29 -61 22 -61 -2 0 -18 21 -36 48 -103 145
-179 208 -236 198 -45 -9 -64 -46 -64 -129 0 -78 44 -269 99 -428 41 -118 239
-582 268 -625 15 -23 15 -24 -14 -24 -62 0 -104 -62 -83 -124 11 -34 46 -66
73 -66 7 0 28 -30 46 -67 18 -38 79 -147 136 -243 56 -96 115 -197 130 -223
31 -54 71 -201 81 -296 8 -70 9 -70 -51 -26 -74 54 -138 79 -208 79 -64 0 -69
-2 -103 -35 -31 -32 -35 -42 -41 -105 -16 -195 108 -540 219 -611 30 -18 43
-21 53 -13 10 8 22 -3 54 -50 61 -89 50 -107 -25 -42 -111 93 -273 209 -359
256 l-50 28 40 -37 c22 -20 91 -74 153 -121 63 -47 111 -88 109 -91 -3 -3 -36
13 -74 35 -113 66 -191 102 -219 102 -23 0 -25 -2 -13 -17 8 -9 49 -40 91 -70
75 -53 95 -72 62 -59 -18 7 -93 -41 -123 -80 l-20 -25 -34 33 c-58 56 -67 82
-50 144 16 55 11 164 -8 164 -5 0 -9 -4 -9 -8 0 -5 -6 -17 -14 -27 -13 -18
-13 -17 -14 6 0 41 -2 49 -13 49 -5 0 -17 -17 -25 -37 -50 -127 -80 -182 -94
-177 -116 46 -167 19 -154 -80 6 -38 4 -45 -14 -50 -30 -10 -47 -69 -32 -107
15 -35 55 -69 81 -69 10 0 34 8 54 17 48 23 65 79 38 126 -11 17 -32 39 -49
47 -38 19 -44 28 -44 66 0 42 21 49 82 28 51 -17 57 -24 33 -44 -21 -18 -19
-26 15 -47 17 -11 52 -45 79 -77 48 -57 49 -59 36 -90 l-14 -32 33 4 c26 3 41
-4 81 -40 28 -25 90 -70 138 -101 48 -31 90 -63 93 -71 3 -8 -2 -29 -12 -48
-29 -56 -153 -236 -262 -381 -57 -77 -134 -186 -171 -242 -216 -337 -215 -336
-220 -448 -4 -116 2 -145 44 -189 26 -29 42 -38 67 -38 51 0 174 59 279 134
53 38 175 117 272 177 l177 108 0 -32 c0 -18 -9 -61 -20 -95 -21 -67 -26 -122
-12 -137 12 -14 32 -87 32 -117 0 -14 14 -37 34 -57 19 -19 44 -54 55 -80 11
-25 54 -89 96 -141 42 -52 78 -106 81 -120 10 -42 51 -105 92 -142 22 -20 43
-47 47 -60 4 -12 15 -36 25 -53 20 -33 44 -114 37 -122 -3 -2 -14 1 -25 8 -18
11 -23 10 -40 -12 -24 -29 -35 -90 -23 -121 5 -13 13 -41 17 -63 7 -39 7 -39
13 -11 10 48 31 44 31 -6 l1 -43 16 29 15 29 24 -39 c12 -21 28 -44 33 -51 18
-20 12 -227 -9 -367 -25 -161 -25 -177 1 -207 11 -13 27 -36 34 -50 8 -14 26
-34 40 -43 14 -9 30 -27 35 -40 7 -19 14 -23 37 -18 15 2 34 10 42 16 11 9 13
7 8 -9 -63 -203 -84 -293 -97 -415 -6 -58 -15 -144 -20 -191 -13 -114 -13
-152 2 -167 9 -9 9 -15 0 -24 -17 -17 -15 -136 2 -185 12 -34 33 -204 28 -225
-1 -4 -4 -42 -6 -85 -3 -43 -9 -96 -15 -118 -19 -71 -13 -119 20 -181 17 -33
42 -97 56 -144 14 -47 37 -110 53 -140 36 -71 66 -163 74 -223 3 -27 14 -60
25 -73 12 -16 19 -41 20 -72 0 -26 6 -65 14 -87 8 -22 14 -62 15 -89 0 -31 7
-58 19 -75 21 -27 48 -124 58 -202 3 -25 15 -63 26 -83 11 -21 18 -45 15 -52
-9 -25 15 -114 33 -124 10 -5 24 -34 33 -67 32 -118 44 -183 36 -191 -11 -11
36 -150 57 -166 13 -9 18 -29 20 -77 2 -35 3 -74 4 -87 1 -15 5 -21 13 -16 6
4 8 3 5 -3 -3 -5 -1 -41 5 -79 11 -72 12 -132 2 -249 -3 -44 -2 -65 4 -57 6
10 11 3 15 -25 4 -21 7 -47 6 -58 l0 -20 -10 20 c-8 17 -9 17 -4 -5 3 -14 8
-53 12 -88 3 -34 10 -65 14 -68 4 -2 39 -68 76 -147 58 -120 69 -148 65 -183
-3 -28 3 -54 17 -82 12 -23 21 -52 21 -64 0 -34 93 -103 102 -76 5 13 168 -92
168 -109 0 -6 10 -24 23 -39 28 -32 44 -27 81 29 35 51 33 92 -6 185 -31 73
-33 83 -32 197 2 121 20 298 34 324 8 14 15 6 83 -93 40 -58 71 -72 96 -42 10
11 19 12 41 4 41 -14 92 5 131 49 l31 36 -7 114 c-4 70 -3 145 4 196 29 210
61 488 61 526 0 86 -45 146 -108 142 -47 -3 -48 -3 -102 5 -43 6 -45 8 -44 37
0 18 -2 41 -4 52 -5 18 -6 18 -14 -5 -4 -14 -5 -2 -1 30 3 30 6 69 7 87 1 17
5 29 10 25 6 -3 6 3 1 14 -4 10 -7 35 -7 54 1 28 -1 31 -7 15 -6 -13 -9 9 -9
63 0 62 5 94 20 123 10 22 17 46 14 52 -2 7 -5 4 -5 -5 -1 -10 -4 -18 -8 -18
-5 0 -8 39 -8 87 0 49 -7 113 -14 144 -9 32 -11 64 -6 75 13 30 13 58 1 66 -8
6 -8 8 1 8 12 0 8 62 -9 120 -15 52 -78 192 -95 212 -8 9 -27 43 -43 75 -15
33 -42 76 -60 97 -23 26 -30 40 -22 48 15 15 3 40 -18 33 -15 -5 -19 6 -29 89
-11 82 -10 101 5 152 9 33 25 68 35 79 10 11 25 46 33 79 10 38 27 71 50 97
20 21 38 49 41 61 14 59 23 123 18 134 -2 6 14 49 36 95 23 46 41 92 41 104 0
11 49 126 108 255 131 282 172 388 211 540 41 160 54 286 41 380 -12 86 -33
171 -55 223 -22 53 -19 57 12 14 25 -35 63 -51 63 -25 0 6 14 24 32 40 31 27
31 30 17 53 -8 14 -60 73 -116 133 -83 89 -100 113 -96 133 4 21 -4 31 -53 64
-31 22 -77 59 -101 83 -51 50 -104 76 -263 125 -129 41 -205 83 -221 124 -6
16 -8 47 -5 70 3 24 1 45 -5 48 -7 5 -6 11 2 21 14 17 4 48 -14 41 -6 -3 -21
-8 -32 -12 -19 -6 -19 -6 -2 8 23 19 18 53 -6 49 -14 -2 -17 6 -17 55 0 32 5
76 11 98 6 22 13 57 16 78 3 20 6 37 7 37 4 0 221 -213 497 -488 280 -279 286
-286 277 -314 -7 -20 -7 -37 2 -59 23 -55 79 -65 129 -23 56 47 57 130 2 158
-27 14 -39 13 -79 -7 -21 -10 -34 0 -180 148 -86 87 -150 153 -141 147 9 -6
35 -18 58 -27 38 -13 42 -13 48 1 11 29 -26 82 -104 149 -121 104 -200 144
-229 115 -10 -10 -205 165 -244 220 l-21 29 21 49 21 49 36 -12 c25 -9 42 -24
54 -48 52 -100 162 -119 205 -35 16 30 15 86 -1 134 -5 17 -1 23 26 34 53 23
99 75 99 115 0 19 4 35 9 35 5 0 73 -20 150 -44 122 -37 153 -52 239 -109 54
-37 125 -91 158 -120 145 -130 267 -220 464 -346 232 -149 351 -239 581 -442
91 -81 154 -144 168 -171 35 -63 97 -125 173 -169 37 -21 77 -54 89 -72 40
-58 102 -116 131 -122 15 -4 30 -11 33 -16 4 -5 15 -9 26 -9 40 0 31 29 -29
97 -63 72 -122 151 -122 163 0 20 44 18 181 -5 82 -14 171 -25 199 -25 36 0
50 -4 50 -14 0 -8 16 -28 35 -45 41 -35 81 -40 125 -14 56 33 65 95 20 146
-31 36 -26 57 15 57 19 1 19 1 1 11 -11 7 -37 9 -63 5 -44 -6 -83 6 -83 24 0
14 46 60 61 60 9 0 10 3 3 10 -7 7 -25 8 -55 1 -24 -5 -44 -9 -44 -8 -6 16
-70 107 -113 160 -140 173 -329 277 -504 277 l-63 0 -13 42 c-36 115 -194 244
-403 329 -43 18 -76 36 -74 40 3 3 31 10 62 14 32 4 139 26 238 50 453 110
634 130 835 96 111 -19 276 -78 365 -130 16 -10 61 -35 99 -56 l70 -38 -23 39
c-78 132 -85 141 -159 194 -310 225 -654 335 -1182 380 -269 23 -451 42 -585
61 -164 24 -522 36 -635 21 -56 -7 -78 -7 -88 2 -13 12 96 33 368 68 124 17
686 16 835 -1 61 -7 137 -12 170 -12 33 0 118 -9 190 -19 245 -36 350 -43 579
-37 304 8 521 44 733 123 101 37 263 115 333 159 22 14 54 25 71 25 36 0 77
29 99 70 8 15 49 54 90 88 41 33 107 89 145 124 67 62 72 64 113 60 29 -3 50
1 68 12 53 36 81 119 51 156 -7 9 -26 26 -43 38 -55 38 -128 12 -164 -58 -19
-37 -19 -42 -5 -82 l15 -43 -73 -70 c-40 -38 -96 -89 -124 -113 -49 -41 -52
-42 -63 -23 -5 11 -25 32 -44 46 -29 22 -38 24 -79 16 -46 -8 -46 -8 -137 60
-310 234 -714 403 -1048 439 -107 12 -468 9 -562 -5 -19 -3 -30 -3 -25 0 23
11 351 55 408 55 34 0 91 -5 127 -10 157 -24 145 -24 162 2 16 24 15 25 -50
75 -98 74 -188 120 -299 154 -86 27 -203 89 -203 108 1 17 172 114 300 170 80
35 236 108 348 162 164 79 203 102 200 116 -3 16 -15 18 -113 15 -163 -4 -342
-28 -515 -67 -84 -20 -155 -34 -156 -32 -6 6 246 124 332 156 120 44 310 87
464 107 252 31 644 10 957 -52 78 -16 82 -18 89 -47 17 -81 132 -118 186 -59
61 65 65 119 11 168 -52 48 -103 48 -154 -2 l-36 -35 -182 30 c-259 44 -394
54 -641 48 -293 -6 -497 -44 -732 -133 -103 -39 -291 -131 -393 -193 -37 -22
-99 -50 -138 -62 -339 -99 -606 -200 -786 -298 -218 -118 -218 -118 -16 26
143 101 244 164 395 246 64 34 114 73 200 156 l115 109 -180 -58 c-427 -137
-660 -254 -877 -440 -65 -55 -118 -98 -118 -94 0 14 170 289 268 434 211 311
401 512 613 647 96 61 283 152 439 213 l84 34 -29 12 c-17 7 -45 16 -62 20
-18 3 -33 10 -33 14 0 5 35 29 78 53 200 118 458 221 787 314 120 34 206 50
343 67 172 21 190 22 290 8 59 -8 108 -16 110 -17 2 -2 -17 -29 -42 -60 -83
-101 -112 -185 -103 -296 7 -78 43 -158 86 -185 24 -17 24 -16 -5 22 -52 66
-72 167 -50 251 20 76 71 164 126 218 l48 48 69 -37 c41 -23 58 -29 43 -16
-14 12 -42 29 -63 39 l-39 19 34 26 c90 68 264 130 451 162 96 16 99 16 120
-4 50 -45 91 -53 138 -25 59 35 64 126 9 175 -71 65 -165 38 -177 -49 l-5 -42
-72 -11 c-207 -33 -390 -101 -500 -186 l-49 -37 -91 18 c-82 16 -108 17 -261
6 -136 -9 -203 -20 -335 -52 -397 -96 -698 -208 -902 -338 -112 -70 -98 -71
-228 12 -85 54 -85 54 -146 165 -61 111 -62 111 -82 259 l-21 148 28 159 27
159 39 31 c95 78 338 249 472 335 220 140 439 260 713 391 l245 118 28 -24
c57 -48 143 -22 167 50 25 76 -45 165 -120 151 -57 -11 -94 -54 -92 -110 1
-30 -2 -32 -246 -150 -444 -216 -862 -468 -1129 -682 -24 -19 -43 -32 -43 -29
0 2 14 42 31 88 36 99 104 220 169 303 43 54 54 80 114 274 37 117 66 215 64
216 -3 3 -97 -74 -303 -248 -545 -461 -1119 -1078 -1381 -1484 -251 -390 -422
-860 -554 -1533 -59 -296 -141 -672 -161 -737 -12 -38 -42 -48 -95 -29 -29 10
-38 18 -37 32 26 221 37 367 44 594 5 151 10 286 10 300 1 14 -6 61 -14 105
-9 44 -28 204 -43 355 -25 265 -55 511 -109 897 -64 462 -60 739 14 1003 62
222 189 427 350 565 65 56 105 80 193 118 60 26 118 47 129 47 18 0 17 -4 -11
-53 -95 -169 -99 -357 -12 -518 34 -61 57 -87 118 -137 42 -34 81 -62 87 -62
13 0 10 3 -70 64 -122 92 -189 255 -173 422 9 88 27 147 72 229 32 60 38 63
138 68 61 3 60 3 -17 5 -46 1 -83 5 -83 8 0 3 21 47 47 97 116 225 319 327
542 272 62 -15 71 -20 71 -40 0 -31 37 -75 64 -75 71 0 109 105 58 163 -23 26
-76 22 -100 -7z m-3012 -1084 c37 -37 97 -113 134 -168 64 -99 66 -104 83
-210 22 -139 24 -424 4 -471 -17 -42 -32 -41 -70 2 -127 145 -319 770 -271
885 19 46 44 38 120 -38z m186 0 c-9 -8 -13 0 -20 38 l-6 35 16 -34 c8 -18 13
-36 10 -39z m188 -597 c124 -250 222 -468 421 -944 l148 -353 -18 -31 c-10
-17 -21 -44 -24 -60 -6 -27 -14 -15 -79 119 -91 185 -164 316 -260 463 -86
133 -247 351 -327 443 -52 59 -54 63 -33 68 12 3 31 21 43 40 18 32 20 52 20
210 0 96 -3 197 -8 225 -4 31 -4 46 2 40 6 -6 57 -104 115 -220z m-63 -702
c75 -167 178 -447 156 -423 -19 20 -192 317 -216 370 l-18 41 26 29 c14 16 27
29 28 30 1 0 12 -21 24 -47z m61 -813 c36 -10 123 -64 183 -114 l30 -25 -50
-51 c-69 -71 -79 -67 -137 53 -29 60 -53 97 -63 97 -21 0 -20 -4 20 -118 28
-80 33 -106 25 -126 -10 -28 -5 -52 18 -78 12 -14 12 -28 4 -76 -11 -61 -6
-138 10 -158 11 -15 41 -115 35 -120 -15 -15 -64 29 -103 93 -90 144 -154 387
-140 526 7 65 9 68 44 87 42 22 71 24 124 10z m1335 -697 c-4 -204 -30 -509
-43 -522 -7 -7 -28 25 -95 142 l-62 108 20 22 c87 96 124 195 127 334 2 93 4
105 26 128 13 14 26 25 28 25 3 0 2 -107 -1 -237z m3084 -184 c284 -29 559
-129 861 -312 120 -73 268 -183 268 -198 0 -6 -5 -20 -12 -32 -18 -33 -10 -79
18 -108 l25 -26 -78 -46 c-81 -47 -250 -122 -338 -150 -344 -112 -849 -131
-1286 -49 -32 6 -52 26 -164 165 l-128 158 9 57 9 56 123 53 c107 46 338 118
487 152 28 6 119 20 204 31 85 11 155 21 157 23 4 4 -433 47 -791 78 -246 21
-431 21 -524 -1 -24 -6 -45 -9 -48 -7 -6 7 219 67 342 92 325 66 629 89 866
64z m-4290 -16 c13 -16 12 -17 -3 -4 -17 13 -22 21 -14 21 2 0 10 -8 17 -17z
m-75 -55 c17 -18 52 -63 77 -100 52 -74 150 -183 141 -155 -9 24 15 22 94 -9
74 -29 192 -94 192 -106 0 -4 -16 2 -35 13 -39 23 -65 19 -65 -10 0 -39 -37
-30 -137 33 -54 34 -142 89 -196 121 -87 52 -117 78 -123 110 -1 6 -5 17 -8
25 -5 12 2 15 41 13 l48 -3 -45 19 c-47 19 -66 55 -38 72 19 13 21 12 54 -23z
m-96 -47 c0 -6 -6 -11 -12 -11 -9 0 -8 -4 2 -10 8 -5 10 -10 4 -10 -6 0 -27
13 -47 28 l-35 28 26 16 c24 15 27 15 44 -7 10 -13 18 -28 18 -34z m3243 0
c-172 -59 -320 -133 -673 -341 -183 -107 -360 -204 -360 -197 0 11 547 360
650 415 77 40 160 74 250 101 230 69 311 82 133 22z m-2089 -111 l48 -65 -55
60 c-31 33 -53 63 -50 68 3 5 6 7 7 5 1 -2 24 -32 50 -68z m70 -150 c15 -19
-2 -3 -39 35 -37 39 -71 79 -77 90 -11 21 71 -67 116 -125z m-929 -27 c125
-78 159 -106 69 -58 -27 14 -80 35 -119 47 -38 11 -71 21 -71 22 -6 4 -14 66
-10 66 4 0 62 -35 131 -77z m32 -82 l53 -26 -79 -72 -78 -72 -41 71 -40 70 15
43 14 44 52 -16 c29 -8 76 -27 104 -42z m-192 -203 c-70 -109 -107 -159 -112
-154 -3 3 9 30 27 60 17 31 29 56 27 56 -18 0 -37 -14 -37 -27 0 -8 -8 -27
-19 -41 -10 -15 -21 -43 -25 -62 -4 -22 -19 -48 -41 -69 -19 -18 -35 -30 -35
-27 0 16 79 174 138 278 l67 116 22 -38 23 -38 -35 -54z m53 -17 c-10 -16 -15
-18 -27 -8 -12 9 -13 9 -7 -1 4 -7 1 -15 -9 -18 -29 -11 -27 3 6 41 27 30 34
34 41 21 5 -9 4 -23 -4 -35z m-117 -144 c-13 -13 -26 -3 -16 12 3 6 11 8 17 5
6 -4 6 -10 -1 -17z m3342 -823 c239 -94 408 -214 453 -321 19 -44 18 -50 -9
-57 -41 -10 -77 -52 -77 -88 l0 -32 -76 74 c-42 41 -157 162 -256 268 -203
217 -204 222 -35 156z m-1437 -285 c75 -53 174 -138 174 -150 0 -22 -232 147
-244 177 -9 23 7 16 70 -27z m2117 -133 c89 -30 145 -61 222 -123 96 -78 232
-250 212 -269 -4 -4 -42 -8 -84 -10 -65 -3 -72 -2 -45 7 18 5 42 19 53 30 19
19 19 19 -119 13 l-139 -7 -99 53 c-134 72 -189 108 -254 168 -46 41 -51 49
-30 45 29 -5 64 26 74 67 6 24 5 24 -5 4 -22 -43 -89 -58 -89 -20 0 20 49 53
85 59 80 11 149 6 218 -17z m482 -457 c10 -15 4 -18 -28 -12 -21 4 -25 8 -15
14 18 12 36 11 43 -2z m-3955 -39 c13 -8 13 -10 -2 -10 -9 0 -20 5 -23 10 -8
13 5 13 25 0z m1322 -2012 c-7 -7 -12 -8 -12 -2 0 6 3 14 7 17 3 4 9 5 12 2 2
-3 -1 -11 -7 -17z m-1185 -338 c2 -22 0 -40 -2 -40 -10 0 -24 50 -19 65 10 26
19 16 21 -25z m1023 -216 c0 -21 -4 -33 -10 -29 -5 3 -10 22 -10 41 0 21 4 33
10 29 6 -3 10 -22 10 -41z m248 -471 c10 -26 16 -74 13 -98 -2 -10 -41 102
-41 118 0 18 19 4 28 -20z m-424 -378 l16 -40 -20 24 c-11 13 -20 32 -20 44 0
26 4 21 24 -28z m21 -110 c-6 -28 5 -65 20 -65 8 0 16 -17 20 -41 4 -22 23
-72 42 -110 24 -49 32 -74 25 -81 -7 -7 -6 -20 3 -42 8 -17 17 -58 21 -91 l8
-60 7 40 c6 37 6 38 8 8 0 -17 4 -39 8 -49 4 -12 3 -15 -6 -10 -8 6 -10 -3 -4
-36 4 -24 6 -54 5 -68 -1 -14 -3 -37 -4 -52 0 -16 -4 -28 -9 -28 -4 0 -7 -69
-6 -154 1 -85 5 -152 9 -150 11 7 17 -9 26 -71 l9 -57 -41 -18 c-76 -33 -85
-34 -90 -8 -3 13 -8 73 -11 133 -4 61 -8 139 -11 175 -2 36 -6 103 -7 150 -2
47 -8 101 -12 120 -5 19 -7 61 -6 93 2 40 -2 65 -13 82 -20 30 -20 58 -1 113
13 37 14 54 3 105 -6 34 -13 89 -14 122 -1 33 -5 74 -9 90 l-7 30 21 -25 c12
-14 19 -34 16 -45z m84 -157 c11 -34 19 -63 17 -65 -6 -6 -46 86 -46 107 0 33
7 23 29 -42z m-102 -30 c-3 -8 -6 -5 -6 6 -1 11 2 17 5 13 3 -3 4 -12 1 -19z
m10 -280 c-3 -8 -6 -5 -6 6 -1 11 2 17 5 13 3 -3 4 -12 1 -19z m-347 -219 c0
-6 -4 -7 -10 -4 -5 3 -10 11 -10 16 0 6 5 7 10 4 6 -3 10 -11 10 -16z m276
-1306 c-7 -7 -36 54 -36 74 0 10 9 -2 20 -26 11 -24 18 -46 16 -48z m34 -38
c7 -9 8 -15 2 -15 -5 0 -12 7 -16 15 -3 8 -4 15 -2 15 2 0 9 -7 16 -15z"/>
<path d="M4430 12195 c14 -8 30 -14 35 -14 6 0 -1 6 -15 14 -14 8 -29 14 -35
14 -5 0 1 -6 15 -14z"/>
<path d="M4590 12124 c0 -2 15 -11 33 -20 27 -14 30 -15 19 -2 -11 14 -52 31
-52 22z"/>
<path d="M4685 12040 c5 -8 30 -47 56 -86 l48 -72 2 -123 1 -124 -51 -87 c-29
-48 -60 -92 -69 -97 -9 -6 -12 -11 -6 -11 23 0 54 37 99 123 l47 88 -9 128 -9
127 -49 65 c-53 70 -73 93 -60 69z"/>
<path d="M4570 11410 c-25 -11 -36 -19 -25 -19 11 0 36 8 55 19 44 24 29 24
-30 0z"/>
<path d="M4470 11396 c0 -2 11 -6 25 -8 14 -3 25 -1 25 3 0 5 -11 9 -25 9 -14
0 -25 -2 -25 -4z"/>
<path d="M7971 10577 c2 -1 13 -9 24 -17 19 -14 19 -14 6 3 -7 9 -18 17 -24
17 -6 0 -8 -1 -6 -3z"/>
<path d="M8046 10461 c14 -51 31 -83 38 -72 4 6 -5 30 -19 53 -16 26 -24 33
-19 19z"/>
<path d="M8055 10296 c-15 -65 -24 -81 -65 -121 -34 -33 -64 -52 -106 -65 -47
-15 -53 -19 -29 -19 55 -1 129 42 174 101 34 46 42 65 47 116 4 34 5 62 2 62
-2 0 -12 -33 -23 -74z"/>
<path d="M7705 10119 c6 -9 75 -33 80 -27 2 2 -16 11 -40 19 -25 9 -42 13 -40
8z"/>
</g>
</svg>
