<?xml version="1.0" standalone="no"?>
<!DOCTYPE svg PUBLIC "-//W3C//DTD SVG 20010904//EN"
 "http://www.w3.org/TR/2001/REC-SVG-20010904/DTD/svg10.dtd">
<svg version="1.0" xmlns="http://www.w3.org/2000/svg"
 width="1158.000000pt" height="1280.000000pt" viewBox="0 0 1158.000000 1280.000000"
 preserveAspectRatio="xMidYMid meet">
<metadata>
Created by potrace 1.15, written by Peter Selinger 2001-2017
</metadata>
<g transform="translate(0.000000,1280.000000) scale(0.100000,-0.100000)"
fill="#673ab7" stroke="none">
<path d="M5702 12771 c-147 -83 -322 -271 -499 -536 -168 -253 -308 -530 -542
-1078 -157 -367 -201 -480 -201 -515 1 -26 3 -25 49 25 27 28 101 117 165 197
123 152 138 169 462 516 240 257 514 565 604 677 36 45 67 82 70 82 6 1 56
-84 159 -272 130 -238 259 -415 416 -574 l91 -92 -46 -30 c-227 -148 -421
-416 -514 -709 -72 -228 -58 -536 36 -772 120 -304 344 -563 603 -697 301
-155 630 -197 946 -122 445 105 800 429 943 860 90 272 96 427 26 695 -55 210
-126 346 -264 511 -126 151 -258 254 -431 338 -177 85 -328 123 -521 132
l-130 6 -23 66 c-39 110 -125 280 -199 391 -92 139 -224 291 -418 482 -340
334 -487 433 -659 444 -64 5 -75 2 -123 -25z"/>
<path d="M9940 10851 c-45 -14 -114 -53 -180 -101 -65 -49 -238 -220 -277
-274 l-20 -29 -179 89 c-98 50 -203 98 -233 107 -58 19 -117 22 -125 8 -21
-33 80 -159 253 -316 l128 -116 -48 -97 c-142 -285 -153 -501 -29 -565 94 -48
289 51 474 241 l58 60 112 -82 c155 -115 351 -253 551 -386 94 -62 171 -114
173 -115 1 -1 -18 -45 -43 -98 -62 -134 -89 -233 -89 -337 -1 -138 39 -190
146 -190 101 0 249 90 401 243 l82 82 120 -62 c199 -103 346 -148 361 -109 12
32 -43 106 -183 243 l-145 142 32 46 c42 61 134 254 160 333 66 210 47 349
-54 387 -40 16 -48 16 -107 0 -122 -31 -293 -158 -429 -319 -35 -42 -66 -76
-67 -76 -2 0 -31 22 -66 49 -95 74 -363 264 -557 395 -96 65 -179 122 -184
126 -4 5 12 46 37 92 160 293 194 563 78 622 -31 17 -108 20 -151 7z"/>
<path d="M3601 9715 c-114 -18 -257 -58 -321 -90 -207 -105 -529 -431 -784
-795 -181 -257 -391 -644 -539 -995 -96 -229 -346 -864 -381 -972 -26 -77 -28
-123 -6 -123 14 0 144 150 317 366 88 110 185 226 215 259 30 33 214 233 409
445 486 528 778 855 983 1103 49 59 94 107 101 107 7 0 143 -65 302 -144 305
-151 444 -207 683 -275 635 -179 1165 -158 1423 57 94 79 155 167 207 297 l32
80 -61 57 c-216 203 -587 362 -1106 472 -213 46 -581 109 -796 137 -213 27
-545 34 -678 14z"/>
<path d="M9849 9454 c-36 -43 -128 -167 -205 -274 -76 -107 -195 -262 -264
-345 -69 -82 -252 -301 -406 -485 -311 -371 -553 -672 -713 -887 l-105 -141
-36 32 c-19 17 -111 112 -203 211 -240 255 -332 339 -551 499 -328 240 -642
376 -866 376 -244 0 -389 -117 -479 -386 l-34 -99 39 -67 c149 -259 399 -515
714 -730 266 -183 799 -474 1039 -568 241 -94 484 -112 615 -44 262 135 590
557 861 1106 146 295 260 577 409 1015 47 136 110 320 140 408 89 256 129 401
119 431 -9 26 -10 26 -74 -52z"/>
<path d="M5305 8286 c-279 -87 -539 -428 -610 -800 -21 -111 -19 -265 5 -359
68 -268 285 -361 540 -232 146 74 299 243 397 440 141 281 166 578 67 782 -34
71 -120 148 -186 168 -61 18 -158 19 -213 1z"/>
<path d="M1003 7551 c-114 -41 -315 -205 -423 -346 l-41 -53 -162 83 c-162 84
-292 135 -342 135 -69 0 -31 -74 116 -225 65 -66 142 -140 173 -165 30 -25 55
-49 56 -53 0 -4 -20 -49 -45 -100 -77 -160 -108 -267 -109 -377 -1 -109 14
-148 67 -180 93 -57 264 19 453 202 l94 91 43 -31 c149 -111 440 -316 603
-425 l192 -128 -34 -68 c-18 -38 -48 -110 -66 -162 -28 -82 -32 -107 -33 -201
0 -92 3 -110 21 -135 89 -121 281 -55 517 179 l88 87 162 -79 c89 -44 192 -87
229 -97 62 -16 69 -16 84 -1 29 28 -8 82 -168 241 -81 81 -148 150 -148 152 0
3 17 30 37 62 55 86 129 250 158 350 32 107 37 229 12 285 -73 169 -349 52
-625 -266 l-52 -60 -32 24 c-174 129 -439 318 -595 424 l-190 128 43 78 c61
108 120 259 140 359 45 227 -44 336 -223 272z"/>
<path d="M4795 6541 c-348 -197 -525 -385 -525 -557 0 -214 159 -411 515 -638
124 -79 478 -251 668 -325 375 -146 618 -216 1107 -322 294 -63 548 -124 558
-134 3 -3 -114 -125 -259 -273 -405 -409 -599 -618 -1368 -1477 -310 -346
-543 -596 -670 -720 -287 -278 -520 -513 -571 -574 l-45 -54 50 6 c63 7 258
109 715 375 184 107 421 244 525 305 1346 778 2055 1284 2629 1878 259 267
423 504 477 687 19 64 -3 163 -59 276 -40 79 -61 106 -161 206 -196 195 -466
368 -1110 710 -845 448 -1518 649 -2286 683 l-90 4 -100 -56z"/>
<path d="M4130 5452 c-36 -9 -87 -30 -115 -46 -70 -41 -209 -179 -340 -336
-164 -197 -586 -767 -865 -1165 -312 -447 -669 -952 -1305 -1845 -717 -1007
-1198 -1688 -1274 -1804 -40 -62 -80 -144 -118 -243 -7 -18 76 22 147 70 190
131 1255 1107 2005 1837 94 91 339 327 545 525 780 745 1544 1536 1750 1811
147 197 227 473 201 694 -14 110 -50 229 -89 290 -66 104 -193 188 -321 216
-85 18 -141 17 -221 -4z"/>
</g>
</svg>
