<?xml version="1.0" standalone="no"?>
<!DOCTYPE svg PUBLIC "-//W3C//DTD SVG 20010904//EN"
 "http://www.w3.org/TR/2001/REC-SVG-20010904/DTD/svg10.dtd">
<svg version="1.0" xmlns="http://www.w3.org/2000/svg"
 width="1280.000000pt" height="906.000000pt" viewBox="0 0 1280.000000 906.000000"
 preserveAspectRatio="xMidYMid meet">
<g transform="translate(0.000000,906.000000) scale(0.100000,-0.100000)"
fill="#9c27b0" stroke="none">
<path d="M5214 6389 c-16 -5 -40 -19 -53 -33 -19 -20 -21 -27 -11 -46 7 -14
18 -20 28 -16 10 3 37 10 62 17 25 6 51 13 58 15 6 2 12 16 12 33 0 39 -31 49
-96 30z"/>
<path d="M5352 6348 c-15 -15 -16 -48 -2 -48 6 0 24 -21 41 -47 16 -27 34 -48
39 -47 6 1 17 2 25 3 21 2 19 59 -3 94 -35 52 -75 70 -100 45z"/>
<path d="M5229 6268 c-7 -18 -25 -43 -39 -55 l-25 -23 28 -23 c15 -12 27 -29
27 -36 0 -7 5 -21 11 -32 10 -19 10 -19 39 1 16 11 44 20 65 20 33 0 36 2 29
23 -10 28 -10 54 1 90 7 28 7 29 -28 26 -22 -2 -43 3 -54 12 -34 30 -40 29
-54 -3z m79 -38 c7 0 12 -15 12 -40 0 -25 -5 -40 -12 -40 -7 0 -22 -2 -33 -5
-14 -3 -26 3 -38 20 -17 24 -17 26 0 50 12 17 24 23 38 20 11 -3 26 -5 33 -5z"/>
<path d="M5084 6255 c-22 -33 -15 -122 11 -141 34 -25 53 -1 57 73 2 38 0 74
-5 81 -15 20 -45 14 -63 -13z"/>
<path d="M1657 6140 c-63 -57 -127 -203 -127 -290 -1 -82 -39 -98 -114 -46
-115 79 -247 117 -326 94 -57 -18 -59 -40 -5 -77 38 -26 77 -72 120 -143 18
-29 26 -33 68 -36 51 -3 54 -7 32 -36 -27 -36 -18 -69 33 -118 54 -53 80 -68
116 -68 32 0 53 31 83 119 20 61 24 66 50 64 15 0 61 -13 101 -27 83 -30 103
-26 121 25 6 18 11 61 11 96 0 55 -4 68 -25 88 -13 14 -33 25 -45 25 -24 0
-26 13 -4 31 31 26 36 60 17 109 -13 33 -18 70 -17 138 1 90 1 92 -23 92 -13
0 -42 -17 -66 -40z"/>
<path d="M5406 6153 c-3 -10 -21 -35 -41 -57 -27 -31 -32 -42 -24 -57 31 -59
141 35 127 108 -5 25 -54 30 -62 6z"/>
<path d="M2875 6134 c-47 -24 -74 -55 -87 -96 -10 -33 -9 -41 7 -58 24 -27 47
-25 86 7 37 32 59 78 59 128 0 40 -16 45 -65 19z m1 -85 c-15 -35 -51 -65 -60
-50 -9 14 60 98 71 87 2 -2 -3 -18 -11 -37z"/>
<path d="M5155 6083 c-21 -20 -19 -36 9 -62 51 -48 146 -46 146 3 0 24 -16 36
-49 36 -9 0 -34 9 -54 19 -33 17 -39 17 -52 4z"/>
<path d="M3173 5933 c-19 -46 -13 -115 14 -152 68 -90 131 40 67 135 -45 66
-59 69 -81 17z m69 -130 c-2 -13 -8 -23 -12 -23 -11 0 -31 86 -24 105 9 23 42
-52 36 -82z"/>
<path d="M2545 5360 c-8 -13 25 -13 45 0 12 8 9 10 -12 10 -15 0 -30 -4 -33
-10z"/>
<path d="M519 5274 c-10 -13 -10 -23 1 -57 7 -23 15 -82 17 -130 4 -84 -1
-120 -28 -214 -19 -61 3 -103 76 -144 61 -34 63 -49 7 -50 -110 -1 -144 -46
-136 -173 8 -115 28 -179 65 -210 17 -14 35 -26 40 -26 24 0 172 64 233 101
65 39 68 40 87 23 10 -9 19 -23 19 -31 0 -20 65 -159 101 -215 28 -43 35 -48
68 -48 50 0 92 25 167 100 109 109 115 153 33 236 -23 23 -37 44 -32 47 4 2
33 0 64 -5 46 -9 61 -8 91 6 35 17 42 27 86 126 29 66 106 161 153 190 78 47
78 84 -2 108 -139 42 -338 -32 -552 -206 -71 -58 -80 -62 -113 -56 -42 8 -45
13 -74 149 -53 242 -155 410 -285 471 -59 28 -68 29 -86 8z"/>
<path d="M2330 5245 c-7 -9 -11 -17 -9 -20 3 -2 10 5 17 15 14 24 10 26 -8 5z"/>
<path d="M2890 5218 c1 -18 29 -53 36 -45 11 11 -6 57 -21 57 -8 0 -15 -6 -15
-12z"/>
<path d="M2700 5190 c-6 -11 -8 -20 -6 -20 3 0 10 9 16 20 6 11 8 20 6 20 -3
0 -10 -9 -16 -20z"/>
<path d="M2512 5170 c7 -11 19 -22 28 -25 8 -4 4 5 -9 19 -29 31 -36 33 -19 6z"/>
<path d="M2308 5116 c-20 -15 -24 -51 -7 -62 17 -10 31 11 27 44 -3 27 -5 29
-20 18z"/>
<path d="M2768 5023 c6 -2 18 -2 25 0 6 3 1 5 -13 5 -14 0 -19 -2 -12 -5z"/>
<path d="M2530 5010 c0 -5 5 -10 10 -10 6 0 10 5 10 10 0 6 -4 10 -10 10 -5 0
-10 -4 -10 -10z"/>
<path d="M2480 4985 c-14 -8 -20 -14 -15 -14 6 0 21 6 35 14 14 8 21 14 15 14
-5 0 -21 -6 -35 -14z"/>
<path d="M2642 4920 c0 -8 4 -26 8 -40 6 -20 8 -21 8 -5 0 11 -3 29 -8 40 -5
12 -8 14 -8 5z"/>
<path d="M4777 4850 c-82 -69 -117 -169 -126 -363 -6 -136 -6 -139 -33 -154
-25 -16 -29 -15 -85 14 -198 105 -415 124 -489 42 -24 -27 -10 -49 42 -66 48
-16 136 -91 170 -145 34 -53 63 -65 121 -50 25 7 47 11 49 9 2 -2 -6 -22 -17
-45 -18 -37 -20 -46 -9 -72 19 -47 140 -128 197 -131 57 -4 71 8 93 79 12 37
24 90 27 117 9 74 11 75 104 49 103 -30 169 -31 194 -4 10 11 20 42 23 71 4
48 6 50 29 44 46 -11 130 97 93 120 -17 11 -11 35 9 35 23 0 37 16 47 54 3 15
21 47 40 71 18 24 30 46 27 49 -12 12 -69 5 -108 -13 -22 -10 -64 -40 -93 -66
-63 -57 -77 -54 -105 20 -9 26 -32 67 -50 92 -53 74 -60 94 -66 183 -5 75 -8
85 -26 88 -11 1 -37 -11 -58 -28z"/>
<path d="M2847 4842 l-26 -27 24 -12 c22 -10 28 -8 51 19 20 24 22 33 12 39
-21 14 -33 10 -61 -19z"/>
<path d="M2340 4853 c0 -4 5 -15 10 -23 8 -13 10 -13 10 2 0 9 -4 20 -10 23
-5 3 -10 3 -10 -2z"/>
<path d="M2467 4770 c5 -20 39 -50 55 -50 5 0 8 11 8 23 0 16 -9 28 -25 35
-36 17 -44 15 -38 -8z"/>
<path d="M2748 4723 c7 -3 16 -2 19 1 4 3 -2 6 -13 5 -11 0 -14 -3 -6 -6z"/>
<path d="M3363 4599 c-50 -12 -93 -57 -93 -99 0 -20 -6 -31 -20 -35 -33 -10
-60 -54 -60 -97 0 -53 19 -87 81 -142 68 -61 153 -88 265 -84 78 3 79 3 76 28
-5 39 -48 127 -88 182 -20 27 -35 51 -33 53 2 2 33 18 68 37 81 42 93 59 60
87 -71 60 -176 89 -256 70z m113 -78 c5 -5 20 -11 34 -14 14 -2 1 -5 -28 -6
-29 0 -61 -5 -71 -11 -21 -11 -73 1 -79 18 -2 7 18 12 60 15 35 2 65 4 69 5 3
1 9 -2 15 -7z m-133 -171 c30 -22 63 -40 71 -40 9 0 16 -5 16 -12 0 -6 8 -20
18 -32 12 -14 -3 -8 -50 18 -38 20 -68 34 -68 31 0 -4 -13 7 -30 23 -29 30
-39 52 -22 52 5 0 34 -18 65 -40z"/>
<path d="M7379 4352 c-82 -42 -160 -169 -201 -325 -19 -73 -22 -109 -22 -332
-1 -247 -1 -250 -22 -253 -21 -3 -74 47 -74 69 0 5 -4 9 -10 9 -17 0 -11 -14
20 -48 33 -36 40 -72 14 -72 -9 0 -55 17 -103 39 -311 140 -584 169 -763 82
-62 -30 -98 -67 -98 -100 0 -36 32 -58 105 -73 36 -7 66 -21 87 -40 18 -17 53
-44 78 -60 64 -44 87 -66 131 -125 44 -59 100 -93 153 -93 19 0 60 14 91 30
60 32 78 33 54 3 -51 -62 -65 -170 -27 -218 25 -32 138 -106 222 -146 115 -54
197 -48 241 19 31 49 55 162 63 297 l7 110 40 -1 c22 0 67 -8 100 -17 33 -10
113 -22 177 -29 102 -10 120 -9 141 5 67 44 79 167 34 347 -23 89 -32 110 -61
137 -45 41 -92 50 -164 30 -31 -9 -59 -13 -62 -10 -3 2 7 15 21 26 39 33 79
91 90 131 14 49 -2 99 -50 163 -27 36 -50 86 -76 168 -32 100 -37 123 -31 173
8 67 -6 118 -34 125 -11 3 -43 -7 -71 -21z"/>
<path d="M7032 4283 c-37 -73 -73 -239 -71 -333 2 -54 2 -54 10 20 13 108 38
226 60 282 18 47 19 66 1 31z"/>
<path d="M1251 3813 c-64 -62 -76 -160 -21 -178 51 -16 103 57 102 142 -1 86
-19 94 -81 36z m22 -85 c-6 -36 -33 -74 -33 -48 0 21 23 80 32 80 4 0 5 -15 1
-32z"/>
<path d="M6358 3783 c23 -2 61 -2 85 0 23 2 4 4 -43 4 -47 0 -66 -2 -42 -4z"/>
<path d="M6503 3773 c9 -2 23 -2 30 0 6 3 -1 5 -18 5 -16 0 -22 -2 -12 -5z"/>
<path d="M1652 3757 c-6 -6 -20 -41 -32 -77 -37 -111 -7 -223 73 -265 21 -11
45 -35 55 -54 42 -83 123 -98 235 -43 110 55 175 134 222 272 37 109 42 103
-82 98 -124 -5 -193 -27 -267 -84 l-46 -35 -21 48 c-22 52 -80 127 -109 143
-12 7 -21 6 -28 -3z m52 -151 c4 -24 13 -50 21 -56 12 -10 11 -75 -2 -90 -7
-8 -23 25 -23 50 0 14 -6 37 -14 51 -13 26 -11 89 4 89 4 0 11 -20 14 -44z
m297 -66 c5 0 23 10 38 21 16 12 35 19 42 17 15 -5 6 -14 -83 -85 -32 -25 -58
-49 -58 -53 0 -4 15 -12 33 -18 31 -10 30 -10 -23 -11 -33 -1 -65 -7 -78 -17
-22 -15 -52 -13 -52 4 0 5 29 30 65 55 36 26 68 53 70 60 2 6 10 26 16 42 12
28 13 28 16 8 3 -13 9 -23 14 -23z"/>
<path d="M5870 3752 c-156 -41 -266 -184 -215 -281 17 -34 66 -61 109 -61 80
0 210 87 261 174 31 53 67 156 61 173 -8 19 -137 16 -216 -5z m64 -110 c-48
-31 -114 -89 -114 -99 0 -7 -8 -13 -18 -13 -10 0 -27 -7 -38 -15 -10 -8 -25
-15 -31 -15 -27 0 -10 21 52 65 36 26 65 51 65 56 0 5 8 9 18 9 9 1 28 7 42
15 24 13 45 11 24 -3z"/>
<path d="M3230 3232 c-23 -7 -70 -54 -88 -87 -8 -16 -23 -54 -32 -84 -23 -79
-36 -83 -101 -31 -30 24 -68 49 -86 56 -34 15 -115 19 -127 7 -3 -4 7 -20 23
-37 17 -17 41 -51 54 -76 15 -28 32 -47 48 -51 14 -3 22 -12 20 -20 -13 -49
-11 -57 22 -92 51 -55 77 -51 113 18 16 30 32 55 36 55 4 0 28 -11 54 -25 62
-33 79 -32 98 9 24 50 21 100 -6 119 -19 12 -21 19 -12 34 9 16 12 199 3 207
-2 2 -11 1 -19 -2z"/>
<path d="M3790 2544 c-149 -40 -260 -127 -260 -204 0 -45 93 -175 117 -165 7
3 19 8 27 11 11 4 11 -1 2 -30 -7 -24 -21 -39 -43 -50 -35 -17 -39 -15 -23 14
8 16 4 23 -23 44 -54 42 -125 69 -161 62 -98 -19 -176 -205 -164 -393 7 -98
52 -193 104 -218 39 -18 56 -16 147 17 l59 21 -7 36 -7 36 24 -22 c28 -26 48
-30 48 -8 0 8 -6 15 -13 15 -20 0 -38 47 -45 114 l-5 59 39 -39 c22 -21 48
-52 58 -68 17 -27 21 -28 68 -22 l51 7 -27 -31 c-31 -38 -33 -63 -6 -97 11
-14 20 -38 20 -54 0 -34 32 -59 76 -59 17 0 37 7 44 15 7 8 23 15 37 15 35 0
73 42 73 82 l0 33 33 -37 32 -38 77 4 c42 2 82 7 90 11 7 5 -3 -9 -22 -29 -44
-47 -79 -66 -125 -66 -36 0 -47 -13 -19 -24 9 -3 28 -6 42 -6 l27 -1 -27 -15
c-34 -18 -35 -29 -4 -99 48 -108 96 -127 213 -84 75 28 205 155 247 242 32 65
46 170 27 205 -14 27 -69 55 -140 72 -55 13 -70 7 -71 -28 0 -7 -4 -10 -10 -7
-5 3 -10 14 -10 24 0 23 -26 46 -35 32 -3 -6 -1 -20 5 -32 10 -17 6 -32 -20
-85 -17 -35 -35 -64 -39 -64 -9 0 -21 73 -21 125 0 34 -20 58 -58 70 -27 8
-20 25 12 25 37 0 58 24 68 76 23 127 27 130 58 47 21 -55 21 -68 4 -122 -10
-34 17 -23 36 15 l15 29 3 -27 c4 -31 1 -30 91 -28 112 3 151 41 151 147 -1
151 -118 341 -253 407 -79 40 -109 36 -154 -22 -21 -26 -47 -64 -57 -84 l-20
-37 23 -18 23 -19 -41 1 c-31 1 -48 8 -69 28 l-27 27 31 0 c27 0 32 5 43 42 7
23 15 64 18 92 5 46 2 55 -22 84 -17 21 -44 37 -78 47 -63 19 -185 18 -257 -1z
m87 -270 c-3 -3 -12 -4 -19 -1 -8 3 -5 6 6 6 11 1 17 -2 13 -5z m187 -42 c23
-21 57 -35 95 -37 14 0 41 -20 67 -47 48 -51 58 -76 23 -57 -12 6 -29 9 -39 6
-9 -2 -28 2 -41 9 -36 20 -63 17 -89 -11 -32 -34 -40 -32 -40 13 0 47 -7 56
-52 75 -21 9 -38 20 -38 25 0 5 -12 15 -27 22 -26 12 -27 13 -8 21 33 14 125
2 149 -19z m-227 -20 c-10 -10 -17 -25 -17 -34 0 -8 -11 -25 -25 -38 -30 -28
-33 -69 -8 -107 18 -27 18 -27 -7 -19 -65 20 -74 19 -108 -18 -18 -20 -39 -36
-47 -36 -7 0 -21 -10 -30 -22 -17 -23 -17 -22 -12 18 7 57 36 114 64 125 12 4
23 15 23 24 0 8 7 15 15 15 8 0 15 8 15 18 0 34 83 91 134 92 18 0 18 -1 3
-18z m108 -192 c7 -23 -1 -40 -20 -40 -16 0 -29 35 -20 50 10 17 33 11 40 -10z
m71 -37 c-10 -10 -19 5 -10 18 6 11 8 11 12 0 2 -7 1 -15 -2 -18z m-151 -23
c3 -5 2 -10 -4 -10 -5 0 -13 5 -16 10 -3 6 -2 10 4 10 5 0 13 -4 16 -10z m250
0 c9 -15 -14 -40 -36 -40 -22 0 -27 35 -6 43 21 9 36 8 42 -3z m-91 -26 c58
-58 18 -159 -62 -159 -69 0 -112 58 -92 121 23 67 104 87 154 38z m-477 -41
c-3 -10 -5 -4 -5 12 0 17 2 24 5 18 2 -7 2 -21 0 -30z m293 -13 c0 -15 -7 -20
-24 -20 -14 0 -28 5 -31 10 -10 16 4 30 31 30 17 0 24 -5 24 -20z m265 -20 c3
-5 -1 -10 -10 -10 -9 0 -13 5 -10 10 3 6 8 10 10 10 2 0 7 -4 10 -10z m-558
-62 c-3 -7 -5 -2 -5 12 0 14 2 19 5 13 2 -7 2 -19 0 -25z m298 -7 c-3 -6 -11
-11 -17 -11 -6 0 -6 6 2 15 14 17 26 13 15 -4z m236 -1 c21 -12 25 -35 8 -46
-14 -8 -53 31 -45 45 9 14 12 14 37 1z m-156 -40 c9 -14 -13 -50 -30 -50 -15
0 -21 40 -8 53 10 10 31 8 38 -3z m75 -21 c0 -11 -4 -17 -10 -14 -5 3 -10 13
-10 21 0 8 5 14 10 14 6 0 10 -9 10 -21z"/>
<path d="M7235 2257 c-80 -32 -94 -61 -56 -108 17 -21 22 -23 50 -13 16 7 32
10 35 7 12 -12 -29 -70 -61 -86 l-35 -18 7 40 c6 35 4 41 -19 56 -37 25 -70
13 -91 -32 -23 -48 -23 -134 -1 -168 15 -22 22 -25 49 -20 41 9 60 31 47 56
-6 10 -10 28 -10 40 0 19 4 17 38 -19 28 -29 38 -50 40 -77 2 -20 -1 -35 -5
-33 -4 2 -21 10 -36 18 -26 13 -30 12 -54 -12 -34 -34 -26 -67 25 -101 56 -36
111 -51 145 -38 22 9 27 16 27 46 0 31 -4 38 -30 46 -37 13 -38 26 -5 39 14 5
25 13 25 18 0 5 23 7 50 4 l50 -5 0 35 c0 19 -5 39 -12 46 -9 9 -9 15 3 24 19
16 41 66 31 72 -4 2 -25 7 -47 11 -25 5 -48 18 -62 34 -29 34 -28 41 5 41 15
0 33 5 40 12 17 17 15 63 -3 78 -22 18 -104 22 -140 7z m129 -241 c-6 -20 -40
-56 -53 -56 -8 1 -64 50 -60 53 2 1 13 7 24 14 11 6 37 11 58 11 33 -1 37 -4
31 -22z"/>
<path d="M7424 2185 c-15 -15 -22 -30 -17 -38 4 -6 19 -30 34 -52 14 -22 31
-53 36 -70 11 -33 39 -43 72 -25 45 24 5 156 -59 193 -36 22 -36 22 -66 -8z"/>
<path d="M7990 2066 c-93 -74 -153 -163 -166 -246 -4 -23 -13 -44 -20 -47 -7
-2 -30 9 -51 25 -60 47 -153 76 -167 53 -9 -15 14 -132 34 -172 11 -21 20 -42
20 -47 0 -4 -20 -18 -44 -29 -59 -29 -110 -75 -131 -119 -14 -30 -15 -41 -5
-65 14 -32 73 -89 93 -89 7 0 28 15 46 34 49 50 141 88 228 94 l73 5 6 47 c5
42 10 49 33 53 39 8 42 1 21 -49 -27 -61 -25 -69 12 -85 69 -28 152 -124 181
-209 l15 -45 47 2 c89 3 126 49 106 136 -25 115 -148 245 -253 271 -34 8 -35
16 -4 64 62 94 74 253 27 373 -36 95 -38 96 -101 45z m7 -223 c-12 -45 -19
-85 -16 -88 4 -3 19 -1 35 5 26 9 25 7 -12 -25 -23 -19 -45 -46 -48 -60 -7
-29 -36 -34 -36 -7 0 10 7 42 16 72 15 52 15 85 -1 125 -8 18 -7 18 8 7 18
-16 37 -8 37 14 0 24 21 57 30 48 4 -5 -1 -46 -13 -91z m-294 -108 c15 -19 34
-35 41 -35 17 0 30 -30 18 -42 -11 -11 -74 49 -89 85 -17 37 -4 34 30 -8z"/>
<path d="M11453 2079 c3 -13 10 -43 16 -67 6 -23 8 -54 5 -67 -4 -18 1 -30 22
-50 l28 -26 -23 -16 c-20 -13 -22 -22 -18 -55 6 -48 32 -88 56 -88 10 0 40 16
66 37 l48 36 21 -29 c48 -66 62 -77 87 -71 26 7 69 66 69 94 0 10 -7 27 -16
38 -13 18 -12 20 18 35 22 10 34 24 38 45 6 29 26 70 53 108 10 14 9 19 -3 27
-35 22 -128 -27 -193 -101 -51 -58 -78 -60 -96 -7 -17 48 -70 126 -100 147
-15 11 -40 23 -56 27 -26 6 -27 5 -22 -17z"/>
<path d="M9577 2039 c-95 -10 -204 -56 -247 -106 -42 -47 -40 -89 9 -190 l40
-82 70 30 c130 54 304 56 418 4 30 -14 61 -25 68 -25 18 0 85 150 85 192 0 51
-39 94 -123 134 -62 30 -90 36 -212 47 -16 2 -65 0 -108 -4z"/>
<path d="M7465 1940 c-3 -11 -29 -40 -58 -64 -47 -42 -50 -48 -41 -73 27 -79
184 14 184 108 0 45 -72 70 -85 29z"/>
<path d="M12072 1893 c-8 -21 -15 -49 -16 -62 -2 -13 -11 -30 -20 -37 -10 -7
-19 -27 -19 -46 -2 -33 -2 -33 41 -30 44 3 45 2 56 -50 5 -21 12 -28 30 -28
24 0 56 28 56 48 0 7 4 12 10 12 12 0 99 63 99 72 2 15 -51 20 -92 8 -81 -23
-81 -23 -89 53 -6 61 -19 97 -37 97 -3 0 -12 -17 -19 -37z"/>
<path d="M2613 1833 c-32 -7 -45 -27 -41 -70 3 -38 3 -38 54 -44 29 -4 75 -19
103 -35 l52 -29 25 30 c29 37 30 45 3 79 -38 49 -134 83 -196 69z"/>
<path d="M2445 1778 c-63 -34 -115 -113 -115 -172 0 -39 20 -56 65 -56 21 0
29 8 44 43 10 23 37 60 60 82 47 45 49 52 20 89 -22 28 -42 32 -74 14z"/>
<path d="M9105 1771 c-60 -27 -131 -110 -175 -204 -45 -97 -60 -162 -60 -258
0 -93 16 -154 51 -188 34 -34 80 -43 162 -30 100 16 94 8 89 107 -7 143 42
286 134 390 l47 53 -49 50 c-87 89 -136 108 -199 80z"/>
<path d="M10115 1768 c-38 -21 -111 -86 -124 -111 -12 -22 -10 -27 28 -68 88
-94 148 -281 131 -414 -4 -38 -3 -62 3 -67 13 -8 121 -21 164 -20 87 3 125 59
131 198 5 104 -18 204 -69 306 -33 66 -107 151 -151 174 -32 17 -85 18 -113 2z"/>
<path d="M9573 1710 c-29 -4 -64 -11 -77 -14 -35 -9 -86 -54 -86 -77 0 -27 29
-24 40 5 15 41 87 61 220 61 127 0 185 -18 205 -62 12 -28 35 -30 35 -5 0 27
-41 61 -91 76 -59 18 -182 26 -246 16z"/>
<path d="M2638 1674 c-15 -8 -32 -24 -38 -35 -9 -16 -14 -18 -25 -9 -7 6 -31
10 -52 8 -38 -3 -38 -3 -35 -43 2 -23 10 -46 20 -53 16 -12 16 -14 -1 -26 -10
-8 -18 -29 -20 -52 -2 -38 -1 -39 36 -42 21 -2 45 2 53 9 11 9 14 9 14 0 0
-18 50 -61 70 -61 19 0 46 54 42 83 -2 11 3 17 16 17 10 0 31 14 47 30 l29 31
-29 24 c-17 13 -38 24 -49 25 -14 0 -17 5 -13 21 6 21 -18 89 -31 89 -4 -1
-19 -7 -34 -16z m12 -81 c1 -22 23 -53 39 -53 19 0 12 -16 -14 -36 -14 -10
-25 -27 -25 -36 0 -22 -4 -22 -35 -2 -14 9 -31 14 -40 11 -20 -8 -29 11 -15
28 10 12 10 15 0 15 -10 0 -10 3 -1 14 8 10 9 16 1 21 -20 12 -10 27 15 21 15
-4 25 -2 25 4 0 6 5 8 10 5 6 -3 13 1 16 9 8 21 24 20 24 -1z"/>
<path d="M3630 1645 c0 -14 5 -35 11 -46 9 -18 9 -19 -9 -10 -11 6 -22 16 -24
22 -7 20 -41 1 -95 -52 -60 -59 -72 -93 -48 -144 59 -124 249 -228 416 -229
135 0 179 50 165 187 l-8 67 -36 0 -37 0 32 16 c17 9 34 22 37 30 7 18 -4 18
-43 -2 -30 -15 -39 -15 -95 -1 -126 31 -230 99 -238 156 -4 34 -28 39 -28 6z
m254 -186 c34 -10 53 -18 43 -18 -33 -2 -131 31 -184 61 -80 45 -74 53 8 11
40 -20 100 -45 133 -54z"/>
<path d="M9612 1663 c-7 -3 -19 -18 -27 -34 -9 -16 -29 -36 -45 -44 -39 -20
-47 -57 -27 -112 l17 -44 -42 30 c-51 38 -77 39 -116 6 -17 -14 -40 -25 -51
-25 -64 0 -95 -104 -46 -150 15 -14 25 -35 25 -50 0 -44 33 -65 98 -63 l57 2
-42 -27 c-55 -35 -70 -69 -49 -110 10 -19 13 -42 9 -65 -5 -31 -1 -40 25 -67
31 -30 84 -41 97 -20 3 5 31 10 61 10 51 0 56 2 74 33 11 17 20 42 20 54 0 39
17 34 24 -7 9 -58 35 -80 95 -80 28 0 53 -4 56 -10 12 -19 63 -10 95 17 28 23
32 31 27 63 -3 21 1 47 9 61 28 50 12 86 -56 130 -25 17 -25 17 26 15 59 -1
94 21 94 60 0 13 11 35 25 50 34 37 34 96 0 129 -13 14 -34 25 -46 25 -11 0
-34 11 -51 25 -16 14 -36 25 -44 25 -20 0 -68 -25 -83 -44 -23 -27 -31 -17
-15 19 25 62 19 92 -26 120 -22 14 -40 32 -40 40 0 33 -81 57 -128 38z m71
-227 c10 -24 -4 -56 -24 -56 -15 0 -19 7 -19 35 0 28 4 35 19 35 10 0 21 -6
24 -14z m92 -45 c-17 -33 -35 -49 -35 -30 0 11 38 59 47 59 2 0 -3 -13 -12
-29z m-191 -33 c-8 -12 -31 8 -37 33 -6 21 -5 21 18 -1 14 -13 22 -27 19 -32z
m136 -21 c60 -46 66 -113 16 -163 -46 -46 -101 -48 -148 -5 -28 25 -33 36 -33
76 0 40 5 51 33 76 25 23 42 29 75 29 23 0 49 -6 57 -13z m-203 -22 c25 -17
21 -45 -6 -45 -10 0 -26 6 -36 14 -16 12 -17 16 -6 30 17 20 21 20 48 1z m327
9 c22 -9 20 -31 -5 -44 -40 -22 -71 16 -31 39 21 13 17 12 36 5z m-314 -123
c0 -10 -25 -21 -48 -21 -15 1 -14 3 2 15 22 17 46 20 46 6z m310 -6 c24 -14
24 -14 3 -15 -28 0 -53 10 -53 21 0 13 21 10 50 -6z m-250 -74 c0 -26 -27 -52
-45 -45 -18 7 -19 18 -5 45 14 25 50 25 50 0z m188 7 c16 -16 15 -45 -2 -51
-8 -3 -22 3 -31 13 -30 33 2 69 33 38z m-108 -54 c0 -21 -4 -33 -10 -29 -5 3
-10 19 -10 36 0 16 5 29 10 29 6 0 10 -16 10 -36z"/>
<path d="M2822 1648 c-22 -11 -22 -15 -16 -79 4 -44 2 -80 -6 -105 -12 -35
-11 -39 10 -56 31 -25 68 -19 94 15 17 23 21 43 21 100 -1 117 -35 158 -103
125z"/>
<path d="M9324 1581 c-59 -36 -129 -199 -139 -327 -5 -59 -3 -74 14 -101 11
-18 28 -33 36 -33 20 0 19 19 -2 43 -14 14 -18 36 -17 86 1 138 93 321 161
321 14 0 23 6 23 15 0 21 -38 19 -76 -4z"/>
<path d="M9925 1590 c-3 -6 2 -13 12 -16 47 -15 61 -24 87 -62 42 -62 77 -167
83 -252 5 -67 3 -77 -16 -94 -25 -22 -28 -46 -6 -46 24 0 55 60 55 106 0 110
-85 319 -144 355 -34 21 -62 24 -71 9z"/>
<path d="M11350 1540 c-106 -26 -200 -97 -200 -149 0 -28 53 -101 74 -101 7 0
23 11 36 25 34 36 124 67 200 69 l65 2 8 37 c12 48 3 83 -26 101 -28 19 -112
27 -157 16z"/>
<path d="M5274 1505 c-41 -62 58 -155 166 -155 46 0 49 9 25 68 -41 97 -151
147 -191 87z m71 -35 c10 -11 24 -20 30 -20 7 0 15 -7 19 -15 3 -8 2 -15 -3
-15 -15 0 -64 28 -72 42 -21 32 -1 38 26 8z"/>
<path d="M2348 1499 c-13 -7 -18 -23 -18 -53 0 -76 93 -183 152 -174 12 2 30
17 40 35 l19 31 -40 37 c-21 20 -49 59 -60 86 -18 42 -26 49 -49 49 -15 0 -35
-5 -44 -11z"/>
<path d="M11622 1464 c-12 -8 -31 -32 -41 -53 l-19 -37 46 -35 c56 -41 109
-116 125 -177 l12 -44 49 5 c67 6 90 34 83 99 -11 89 -92 203 -172 239 -49 23
-55 23 -83 3z"/>
<path d="M4963 1418 c-11 -13 -26 -34 -33 -47 -15 -30 -16 -115 -1 -154 13
-33 26 -29 83 29 54 54 73 129 42 172 -20 29 -64 29 -91 0z m57 -25 c0 -13
-26 -82 -33 -89 -12 -13 -7 56 5 76 13 20 28 27 28 13z"/>
<path d="M2714 1364 c-22 -13 -65 -27 -95 -31 -53 -8 -54 -9 -57 -45 -2 -28 2
-40 20 -52 64 -45 238 20 238 89 0 22 -38 66 -56 64 -5 -1 -27 -12 -50 -25z"/>
<path d="M7707 1372 c-10 -10 -17 -24 -17 -31 0 -7 -7 -25 -16 -40 -15 -26
-15 -30 0 -53 9 -14 32 -33 51 -44 19 -10 35 -22 35 -26 0 -12 -9 -10 -66 18
-42 21 -56 23 -73 14 -12 -6 -21 -17 -21 -24 0 -8 -12 -21 -26 -30 -19 -14
-24 -24 -22 -48 2 -18 11 -36 22 -42 11 -6 29 -22 41 -35 26 -29 58 -24 103
14 44 37 63 30 21 -8 -57 -50 -65 -73 -40 -108 12 -15 21 -33 21 -38 0 -35 67
-54 90 -26 7 8 27 19 44 23 39 10 42 26 19 102 -19 65 -45 79 -51 27 -2 -16
-9 -27 -18 -27 -20 0 -29 27 -15 44 18 22 -35 71 -72 67 -23 -2 -28 1 -25 16
2 12 12 18 32 18 20 1 31 7 37 22 4 11 12 24 18 27 7 5 7 13 -1 25 -13 22 -3
54 15 49 6 -3 13 -17 15 -31 3 -20 9 -27 25 -27 12 0 29 -4 37 -9 10 -7 18 -4
28 10 7 10 20 19 28 19 20 0 17 -38 -4 -44 -13 -5 -18 -16 -17 -46 0 -32 4
-40 23 -45 13 -3 22 -13 22 -25 0 -24 -17 -26 -42 -3 -34 31 -42 2 -15 -60 27
-58 52 -76 86 -58 11 6 30 11 42 11 12 0 30 7 40 16 17 15 19 15 34 0 17 -17
12 -36 -9 -36 -18 0 -48 -35 -39 -44 5 -4 -10 -23 -32 -42 l-40 -33 17 -33 c9
-18 19 -43 23 -55 7 -26 41 -38 83 -30 46 9 102 31 102 41 0 5 15 23 33 40 17
17 47 60 66 96 18 36 40 70 48 77 9 7 11 13 4 18 -6 3 -11 29 -11 56 0 59 -27
94 -82 104 -50 9 -94 3 -90 -14 5 -22 -28 -121 -39 -121 -6 0 -9 9 -6 20 3 11
1 18 -4 14 -5 -3 -9 -12 -9 -20 0 -8 -6 -14 -13 -14 -14 0 -37 54 -37 87 0 33
-27 47 -86 46 -68 -2 -71 13 -4 19 70 7 85 24 87 97 2 73 -7 82 -86 87 -53 3
-62 1 -76 -19 -8 -12 -18 -39 -22 -60 -3 -22 -10 -36 -17 -34 -6 3 -9 11 -7
18 3 8 6 33 9 57 4 46 -9 72 -38 72 -10 0 -23 7 -30 15 -17 21 -63 19 -83 -3z"/>
<path d="M7372 1324 c-86 -60 -97 -303 -18 -407 46 -60 72 -66 140 -33 31 15
56 33 56 40 0 7 -9 32 -21 56 -29 61 -37 179 -15 252 9 31 16 58 16 61 0 7
-106 47 -123 47 -7 0 -23 -7 -35 -16z"/>
<path d="M7593 1325 c-3 -9 -3 -18 -1 -21 3 -3 8 4 11 16 6 23 -1 27 -10 5z"/>
<path d="M11372 1322 c-14 -10 -52 -80 -52 -98 0 -13 68 -74 82 -74 4 0 5 14
2 30 -6 26 -4 30 15 30 15 0 21 -6 21 -21 0 -34 24 -16 36 27 14 50 8 73 -22
80 -13 3 -28 12 -35 20 -13 16 -28 18 -47 6z"/>
<path d="M11064 1285 c-35 -24 -58 -84 -63 -169 l-6 -78 -48 -18 c-75 -29
-112 -63 -151 -141 -20 -40 -36 -78 -36 -85 0 -20 116 -18 177 2 28 9 67 34
93 59 32 30 57 44 84 48 21 3 49 13 62 21 23 16 23 17 7 58 -21 57 -21 181 0
232 10 21 17 40 17 43 0 7 -84 43 -100 43 -9 0 -25 -7 -36 -15z m-44 -330 c0
-9 -16 -25 -35 -36 -20 -12 -40 -29 -45 -40 -6 -10 -18 -17 -28 -17 -9 0 -25
-3 -34 -7 -33 -14 -18 12 23 40 28 20 39 34 36 46 -4 14 3 19 32 22 20 2 39 4
44 5 4 1 7 -5 7 -13z"/>
<path d="M7549 1253 c-13 -16 -12 -17 4 -4 16 13 21 21 13 21 -2 0 -10 -8 -17
-17z"/>
<path d="M11523 1248 c-16 -20 -42 -86 -36 -92 3 -3 16 2 29 11 22 14 24 14
31 -2 4 -11 0 -22 -10 -30 -10 -7 -17 -15 -17 -19 0 -8 92 -7 106 2 15 9 29
118 18 125 -5 2 -32 8 -60 12 -36 4 -53 3 -61 -7z"/>
<path d="M11243 1146 c-18 -18 -33 -40 -33 -49 0 -18 67 -87 85 -87 17 0 78
42 83 58 2 7 -6 12 -23 12 -20 0 -26 4 -23 18 2 10 13 17 26 17 33 1 31 11 -7
40 -45 33 -69 31 -108 -9z"/>
<path d="M8120 1121 c0 -20 13 -41 21 -35 14 8 11 31 -6 38 -8 3 -15 1 -15 -3z"/>
<path d="M9233 1083 c-3 -9 -2 -33 4 -55 8 -30 8 -36 -2 -28 -7 6 -18 24 -25
40 -7 17 -17 30 -22 30 -23 0 -151 -75 -173 -102 -122 -145 203 -478 467 -478
55 0 63 3 93 33 35 35 50 77 61 167 l6 56 -60 12 c-111 23 -285 134 -324 205
-6 12 18 -5 54 -38 140 -128 283 -184 329 -129 16 20 2 36 -21 24 -95 -51
-374 147 -353 251 4 23 2 29 -11 29 -9 0 -19 -7 -23 -17z"/>
<path d="M10055 1071 c10 -49 -41 -117 -147 -194 -78 -57 -177 -84 -206 -55
-9 9 -15 9 -24 0 -21 -21 15 -45 64 -45 31 0 65 11 116 38 81 42 203 149 221
194 17 40 11 85 -12 89 -16 3 -18 -1 -12 -27z"/>
<path d="M11520 1074 c0 -7 7 -14 15 -18 22 -8 18 -36 -5 -36 -11 0 -20 5 -20
10 0 6 -5 10 -11 10 -15 0 -4 -56 17 -88 14 -21 20 -22 62 -16 65 9 73 19 65
81 -4 41 -10 54 -27 60 -35 11 -96 10 -96 -3z"/>
<path d="M10092 1008 c-76 -120 -186 -202 -324 -242 l-83 -24 3 -49 c4 -72 28
-146 56 -172 15 -15 42 -25 70 -28 26 -3 52 -13 62 -24 11 -12 31 -19 55 -19
35 0 41 4 59 41 23 45 38 46 58 6 7 -15 20 -27 28 -27 18 0 18 -14 1 -29 -12
-9 -15 -47 -8 -93 1 -5 21 -8 46 -8 34 0 48 5 57 20 12 19 13 19 24 -2 11 -21
71 -47 92 -40 6 2 17 22 22 44 10 34 9 43 -6 59 -16 18 -16 19 8 19 25 0 68
46 68 74 0 21 -64 56 -90 49 -19 -5 -21 -3 -15 16 4 14 0 30 -14 47 -40 50
-22 66 47 42 31 -12 35 -11 53 12 29 38 24 74 -13 103 -31 25 -31 25 -19 70
15 53 9 81 -28 120 -21 23 -147 97 -165 97 -2 0 -22 -28 -44 -62z m128 -453
c0 -24 31 -53 51 -48 11 3 19 0 19 -7 0 -6 -9 -14 -20 -17 -23 -6 -26 -19 -7
-26 7 -3 5 -6 -6 -6 -13 -1 -16 -7 -11 -26 7 -27 -12 -36 -22 -10 -8 20 -24
19 -25 -2 -1 -17 -2 -17 -6 0 -5 20 -14 22 -30 6 -6 -6 -17 -8 -23 -4 -8 5 -9
10 -1 18 17 17 13 37 -6 30 -15 -5 -14 -3 2 10 19 14 19 16 3 22 -10 4 -18 14
-18 22 0 10 6 13 16 9 25 -9 51 2 57 24 6 23 27 27 27 5z"/>
<path d="M11733 1028 c-17 -62 -69 -135 -125 -175 l-48 -35 20 -39 c29 -56 56
-71 103 -57 21 6 55 26 76 45 22 18 43 33 48 33 4 0 30 -11 57 -25 49 -25 126
-34 126 -15 0 33 -46 123 -75 149 -27 24 -35 38 -35 65 0 19 -3 42 -6 51 -9
22 -57 45 -96 45 -31 0 -35 -3 -45 -42z m159 -170 c9 -7 19 -24 23 -37 l7 -24
-36 28 c-20 15 -36 31 -36 36 0 13 24 11 42 -3z"/>
<path d="M11363 1021 c-43 -27 -49 -53 -23 -106 18 -38 26 -45 51 -45 16 0 29
4 29 8 0 4 14 13 30 19 25 9 30 17 30 45 -1 18 -7 47 -14 63 l-14 30 -11 -27
c-6 -16 -18 -28 -27 -28 -13 0 -15 6 -10 30 7 35 2 36 -41 11z"/>
<path d="M7567 959 c7 -7 15 -10 18 -7 3 3 -2 9 -12 12 -14 6 -15 5 -6 -5z"/>
<path d="M1622 924 c-7 -3 -17 -14 -22 -24 -16 -31 4 -65 52 -89 48 -23 92
-27 133 -11 l26 10 -18 31 c-10 17 -32 42 -48 55 -30 23 -98 38 -123 28z m70
-51 c15 -3 29 -12 32 -20 5 -13 0 -14 -31 -8 -40 7 -63 21 -63 37 0 6 8 7 18
3 9 -3 29 -9 44 -12z"/>
<path d="M7610 913 c0 -5 10 -18 23 -29 l22 -19 -20 25 c-11 14 -21 27 -22 29
-2 2 -3 0 -3 -6z"/>
<path d="M11180 873 c-22 -23 -40 -50 -40 -62 0 -33 74 -106 133 -131 63 -28
174 -38 217 -20 34 14 43 37 38 101 l-3 44 -82 6 c-83 6 -144 31 -200 82 l-22
20 -41 -40z"/>
<path d="M7553 868 c-66 -75 -70 -120 -16 -174 100 -100 333 -134 403 -59 25
27 28 59 10 125 -11 41 -12 42 -46 36 -33 -7 -49 6 -21 17 6 3 2 6 -10 6 -16
1 -21 -3 -17 -14 15 -38 -146 -1 -222 50 -28 19 -53 35 -55 35 -3 0 -15 -10
-26 -22z"/>
<path d="M1248 831 c-30 -27 -33 -34 -33 -88 1 -70 37 -145 98 -200 39 -35
154 -94 208 -107 24 -5 27 -3 32 27 2 17 1 65 -4 106 -11 98 -52 186 -110 234
-81 66 -139 74 -191 28z m107 -97 c25 -37 50 -61 74 -72 26 -11 31 -17 19 -20
-23 -4 -22 -7 2 -48 12 -18 17 -35 11 -38 -12 -8 -26 6 -76 77 -44 63 -55 69
-55 33 0 -14 -5 -28 -12 -32 -8 -5 -9 4 -5 32 4 26 2 49 -8 68 -39 75 0 75 50
0z"/>
<path d="M8461 819 c-1 -19 6 -44 14 -55 14 -18 14 -18 14 6 0 14 -6 39 -14
55 l-13 30 -1 -36z"/>
<path d="M6939 813 c-36 -95 -31 -198 14 -278 25 -45 79 -85 113 -85 33 0 71
38 87 85 11 36 10 47 -10 103 -28 77 -60 121 -123 167 -57 42 -67 43 -81 8z
m77 -110 c13 -44 45 -104 52 -99 5 3 9 -18 9 -45 1 -63 -15 -60 -40 7 -10 27
-23 54 -29 61 -13 16 -18 93 -6 93 5 0 11 -8 14 -17z"/>
<path d="M10393 663 c-27 -19 -29 -44 -6 -80 11 -17 19 -55 23 -107 l5 -80 39
-10 c36 -8 42 -7 63 18 18 22 23 39 23 84 0 144 -71 229 -147 175z"/>
<path d="M8085 580 c17 -18 38 -36 48 -42 16 -8 17 -7 9 9 -13 23 -42 48 -67
57 -16 6 -13 0 10 -24z"/>
<path d="M8507 576 c-19 -18 -27 -35 -27 -59 0 -21 -7 -41 -19 -51 -27 -25
-31 -74 -10 -121 22 -49 34 -63 81 -99 l37 -27 11 22 c7 12 14 47 17 78 l5 56
82 -3 c44 -2 93 1 109 7 l28 11 -21 40 c-47 92 -126 152 -220 165 -40 6 -49 3
-73 -19z m83 -66 c22 -11 46 -20 54 -20 8 0 26 -11 40 -25 29 -29 21 -31 -31
-10 -19 8 -42 15 -50 15 -16 0 -73 40 -73 52 0 13 18 9 60 -12z m-65 -126 c8
-20 15 -42 15 -48 -1 -18 -50 47 -50 67 0 29 19 19 35 -19z"/>
<path d="M8393 572 c-26 -8 -67 -41 -60 -48 7 -7 61 21 76 40 8 9 12 16 10 15
-2 -1 -14 -4 -26 -7z"/>
<path d="M9928 405 c-36 -20 -42 -46 -23 -92 44 -106 189 -182 230 -120 28 43
24 69 -15 88 -39 19 -96 75 -114 111 -14 28 -42 33 -78 13z"/>
<path d="M10354 336 c-36 -34 -85 -59 -136 -70 -25 -6 -28 -11 -28 -45 0 -51
20 -71 74 -71 80 0 186 72 203 137 5 21 0 32 -26 55 -17 15 -36 28 -41 28 -6
0 -26 -15 -46 -34z"/>
<path d="M8983 266 c-46 -21 -58 -53 -47 -124 l9 -57 48 3 c26 2 71 -2 100 -8
55 -13 141 -53 152 -70 3 -5 28 -10 54 -10 42 0 50 4 71 32 51 69 12 138 -112
202 -65 33 -85 39 -159 42 -61 3 -93 0 -116 -10z"/>
<path d="M8725 183 c-54 -28 -165 -148 -165 -178 0 -3 54 -5 119 -5 l119 0 53
36 c30 20 55 37 57 39 6 6 -38 85 -58 105 -24 24 -82 26 -125 3z"/>
<path d="M8850 10 c-9 -6 -10 -10 -3 -10 6 0 15 5 18 10 8 12 4 12 -15 0z"/>
<path d="M9070 10 c0 -5 19 -10 43 -10 31 0 38 3 27 10 -20 13 -70 13 -70 0z"/>
<path d="M9197 9 c7 -7 15 -10 18 -7 3 3 -2 9 -12 12 -14 6 -15 5 -6 -5z"/>
</g>
</svg>
