<?xml version="1.0" standalone="no"?>
<!DOCTYPE svg PUBLIC "-//W3C//DTD SVG 20010904//EN"
 "http://www.w3.org/TR/2001/REC-SVG-20010904/DTD/svg10.dtd">
<svg version="1.0" xmlns="http://www.w3.org/2000/svg"
 width="1280.000000pt" height="454.000000pt" viewBox="0 0 1280.000000 454.000000"
 preserveAspectRatio="xMidYMid meet">
<metadata>
Created by potrace 1.15, written by Peter Selinger 2001-2017
</metadata>
<g transform="translate(0.000000,454.000000) scale(0.100000,-0.100000)"
fill="#673ab7" stroke="none">
<path d="M7725 4533 c-368 -23 -698 -113 -902 -245 -166 -108 -305 -282 -353
-445 -12 -38 -30 -59 -30 -34 0 21 -104 165 -158 219 -109 109 -273 203 -452
260 -127 40 -200 57 -366 83 -182 28 -664 37 -1021 19 -137 -7 -483 -13 -770
-14 l-523 -3 -77 -55 c-113 -81 -468 -313 -615 -401 -190 -115 -296 -167 -339
-167 -37 0 -42 -5 -215 -217 -509 -622 -1643 -1989 -1817 -2192 l-89 -103 11
-56 c6 -30 12 -57 14 -59 2 -1 743 -4 1648 -5 2104 -2 3910 -15 3922 -27 24
-24 -99 -293 -352 -776 -67 -126 -121 -230 -121 -230 0 0 46 -1 103 -2 56 -1
138 -9 181 -17 44 -9 81 -14 83 -13 9 9 237 487 271 567 67 160 77 202 75 325
-2 61 -4 126 -5 144 l-3 35 71 22 c251 79 532 79 780 -2 162 -52 177 -63 248
-171 67 -102 270 -453 421 -728 49 -88 89 -161 91 -163 1 -2 23 19 49 47 26
28 52 51 56 51 5 0 15 -15 23 -33 13 -32 18 -34 102 -52 49 -10 136 -33 193
-51 57 -19 105 -34 108 -34 2 0 0 8 -6 18 -19 36 -239 967 -230 976 2 3 607
-2 1344 -9 3209 -34 3651 -36 3677 -24 54 24 62 93 19 160 -15 24 -427 613
-915 1309 l-887 1265 -102 5 c-92 5 -110 9 -181 43 -198 94 -401 238 -817 578
l-166 136 -329 6 c-331 6 -697 24 -1049 52 -169 13 -459 17 -600 8z m-341
-3490 c14 -97 28 -234 24 -238 -3 -3 -21 19 -41 47 -20 29 -66 89 -101 133
l-64 80 31 6 c18 4 57 7 89 8 l56 1 6 -37z"/>
</g>
</svg>
