<?xml version="1.0" standalone="no"?>
<!DOCTYPE svg PUBLIC "-//W3C//DTD SVG 20010904//EN"
 "http://www.w3.org/TR/2001/REC-SVG-20010904/DTD/svg10.dtd">
<svg version="1.0" xmlns="http://www.w3.org/2000/svg"
 width="1280.000000pt" height="1280.000000pt" viewBox="0 0 1280.000000 1280.000000"
 preserveAspectRatio="xMidYMid meet">
<g transform="translate(0.000000,1280.000000) scale(0.100000,-0.100000)"
fill="#3f51b5" stroke="none">
<path d="M1443 8758 c-56 -52 -99 -118 -143 -218 -18 -41 -39 -80 -47 -86 -9
-6 -13 -21 -11 -35 4 -21 7 -18 26 24 61 135 161 270 224 303 38 20 82 17 103
-6 43 -47 -15 -209 -107 -300 -59 -58 -163 -130 -187 -130 -17 0 -61 50 -61
70 0 5 -6 10 -13 10 -9 0 -19 22 -26 58 -31 138 -95 219 -192 242 -110 27
-179 -10 -179 -94 0 -89 40 -157 127 -213 30 -19 57 -41 59 -48 3 -8 30 -21
60 -30 30 -8 54 -20 54 -25 0 -6 10 -10 23 -10 36 0 47 -19 47 -79 0 -87 -9
-92 -69 -36 -28 26 -53 46 -54 44 -1 -2 -9 -12 -16 -22 -13 -16 -6 -26 63 -96
l76 -79 0 -103 c0 -57 -4 -110 -9 -118 -7 -11 -20 -4 -58 33 -28 25 -55 46
-61 46 -28 0 -42 -33 -42 -96 0 -37 -4 -64 -10 -64 -6 0 -48 39 -95 88 l-84
87 -1 103 0 102 -25 0 c-24 0 -25 -2 -25 -64 0 -36 -4 -68 -10 -71 -5 -3 -32
15 -60 41 -42 39 -52 45 -65 34 -23 -19 -19 -33 25 -75 57 -56 53 -65 -26 -65
-62 0 -65 -1 -62 -22 3 -22 8 -23 110 -28 l108 -5 81 -81 c47 -47 79 -86 75
-93 -4 -6 -35 -11 -72 -11 -59 0 -65 -2 -76 -25 -11 -24 -8 -30 35 -73 26 -26
47 -51 47 -55 0 -4 -57 -7 -127 -7 l-127 0 -64 70 c-36 39 -70 70 -76 70 -6 0
-16 -8 -23 -19 -10 -16 -5 -24 33 -62 24 -24 44 -47 44 -51 0 -4 -30 -8 -68
-10 -61 -3 -67 -5 -70 -25 -3 -22 0 -23 55 -23 88 0 95 -10 45 -64 -23 -25
-42 -52 -42 -60 0 -36 27 -23 100 48 l78 76 108 0 c139 0 150 -7 103 -57 -58
-63 -62 -69 -49 -92 9 -18 20 -21 75 -21 35 0 67 -5 70 -10 4 -6 -29 -48 -74
-93 l-80 -82 -108 -5 c-100 -5 -108 -7 -108 -25 0 -18 8 -20 68 -23 45 -2 67
-7 67 -15 0 -7 -20 -33 -45 -57 -48 -47 -55 -64 -29 -74 11 -4 33 9 65 39 27
25 54 43 59 40 6 -3 10 -33 10 -66 0 -56 1 -59 25 -59 l25 0 0 101 0 102 79
80 c95 97 111 98 111 8 0 -49 4 -62 19 -71 27 -14 25 -15 82 36 39 35 54 43
60 32 5 -7 9 -62 9 -122 l0 -108 -75 -78 c-66 -67 -74 -79 -60 -90 13 -10 22
-6 61 29 25 23 50 41 57 38 7 -2 13 -30 15 -70 3 -64 4 -67 27 -67 24 0 25 3
25 64 0 36 4 67 8 70 4 3 29 -13 55 -36 39 -33 50 -38 62 -28 13 11 5 24 -55
86 l-70 74 0 119 c0 66 4 122 8 125 5 3 32 -15 60 -40 44 -38 54 -43 72 -34
16 9 20 21 20 68 0 98 9 98 104 2 l85 -85 7 -102 c6 -89 9 -103 24 -103 20 0
30 27 30 88 0 23 3 42 7 42 4 0 29 -21 55 -47 45 -44 49 -46 65 -31 15 16 13
20 -31 68 -26 28 -44 55 -41 60 3 6 35 10 71 10 62 0 64 1 64 25 l0 25 -101 0
-102 0 -83 76 c-46 42 -84 82 -84 90 0 10 15 14 59 14 99 0 117 38 50 106 -64
65 -53 74 82 74 l111 0 79 -77 c75 -72 80 -76 96 -60 16 16 14 20 -32 67 -59
60 -53 70 37 70 60 0 78 11 58 35 -8 10 -32 15 -70 15 -31 0 -60 3 -64 7 -3 4
15 28 41 55 45 45 46 49 30 65 -16 16 -21 13 -90 -55 l-72 -72 -123 0 c-140 0
-145 4 -82 65 65 63 52 92 -45 97 -39 2 -60 7 -60 15 0 7 35 48 79 92 l78 80
102 3 c96 3 101 4 104 26 3 21 0 22 -62 22 -36 0 -68 4 -71 10 -3 5 15 32 41
60 44 47 46 52 31 67 -15 15 -20 13 -67 -31 -28 -26 -55 -44 -60 -41 -6 3 -10
35 -10 71 0 62 -1 64 -25 64 l-25 0 0 -105 0 -106 -85 -87 c-96 -98 -105 -98
-105 1 0 52 -3 59 -25 69 -24 11 -30 8 -73 -35 -27 -26 -51 -44 -55 -41 -4 4
-7 60 -7 123 l0 117 70 69 c39 38 70 75 70 81 0 6 -7 17 -16 25 -13 11 -21 6
-56 -34 -58 -69 -69 -64 -66 31 3 74 4 77 28 80 14 2 29 10 33 18 4 8 15 14
23 14 9 0 28 11 42 24 15 13 63 55 107 93 120 105 165 182 165 285 0 71 -29
98 -105 98 -51 0 -59 -3 -102 -42z m-397 -128 c28 -16 63 -42 77 -59 26 -32
90 -187 82 -201 -13 -21 -60 -70 -68 -70 -13 0 -136 82 -187 124 -65 55 -92
102 -86 149 10 88 87 112 182 57z m108 -910 c44 -47 46 -52 46 -109 0 -33 -5
-63 -11 -67 -19 -12 -99 77 -106 118 -6 41 4 108 16 108 5 0 29 -22 55 -50z
m214 -25 l3 -67 -46 -44 c-64 -62 -75 -59 -75 23 0 67 0 68 47 115 26 27 52
47 58 45 5 -2 11 -34 13 -72z m-279 -151 c28 -25 51 -50 51 -55 0 -5 -33 -9
-72 -9 -72 0 -73 1 -121 45 -27 24 -46 49 -42 55 3 5 35 10 70 10 61 0 65 -2
114 -46z m451 33 c0 -7 -19 -32 -43 -55 -42 -42 -44 -42 -115 -42 -88 0 -92
11 -24 69 45 38 50 40 115 41 48 0 67 -4 67 -13z m-410 -157 c12 -8 6 -18 -35
-60 l-49 -50 -73 0 c-40 0 -73 4 -73 9 0 4 24 31 54 60 52 48 58 51 108 51 29
0 60 -5 68 -10z m369 -42 c27 -29 47 -56 45 -60 -3 -5 -38 -8 -78 -8 l-72 0
-43 44 c-59 60 -52 76 34 76 l65 0 49 -52z m-305 -24 c3 -9 6 -40 6 -71 0 -52
-2 -57 -49 -106 -27 -29 -52 -49 -56 -46 -11 12 -18 77 -11 112 6 32 78 127
96 127 4 0 11 -7 14 -16z m128 -31 c48 -47 48 -47 48 -115 0 -38 -5 -70 -11
-74 -6 -3 -33 15 -60 42 -49 48 -49 48 -49 114 0 97 5 99 72 33z"/>
<path d="M11654 8658 c-53 -42 -83 -83 -125 -168 -23 -47 -48 -91 -57 -98 -10
-7 -12 -16 -6 -21 5 -6 26 21 54 71 71 127 152 208 210 208 11 0 30 -10 41
-21 17 -17 20 -30 17 -63 -7 -62 -56 -155 -108 -207 -60 -60 -153 -122 -177
-117 -10 1 -25 18 -33 35 -8 18 -19 33 -24 33 -4 0 -25 -19 -45 -42 l-38 -42
-46 27 c-25 15 -74 50 -109 78 -99 79 -121 140 -72 198 32 38 60 39 130 7 60
-28 103 -77 128 -146 24 -68 32 -56 11 17 -23 81 -58 128 -118 158 -97 48
-188 26 -203 -50 -13 -73 32 -151 126 -216 19 -13 42 -31 51 -40 9 -9 31 -20
48 -24 17 -3 34 -11 37 -17 8 -13 -14 -28 -43 -28 -45 0 -205 -59 -276 -101
-92 -55 -211 -174 -266 -266 -24 -40 -57 -114 -74 -165 -28 -85 -31 -104 -31
-228 0 -100 5 -152 18 -199 80 -290 308 -506 599 -568 99 -21 277 -13 372 17
135 42 221 96 325 200 104 104 158 190 200 325 30 95 38 273 17 372 -64 299
-291 532 -585 602 -54 13 -78 23 -80 35 -2 10 3 16 15 16 10 0 68 46 127 102
124 117 156 169 156 256 0 69 -22 92 -89 92 -35 0 -56 -6 -77 -22z"/>
<path d="M1730 8522 c0 -5 5 -13 12 -20 16 -16 -10 -43 -88 -89 -64 -37 -40
-35 43 4 63 30 77 45 69 77 -5 22 -36 45 -36 28z"/>
<path d="M11906 8415 c8 -21 -11 -41 -71 -77 -27 -16 -39 -26 -25 -22 38 10
95 41 109 58 13 16 6 56 -9 56 -5 0 -7 -7 -4 -15z"/>
<path d="M693 8359 c-16 -16 -17 -69 -2 -69 6 0 9 6 6 13 -13 33 10 42 105 41
103 -1 85 11 -32 22 -47 4 -69 2 -77 -7z"/>
<path d="M10957 8283 c-4 -3 -7 -18 -6 -32 0 -26 0 -26 9 -3 8 20 16 22 82 23
52 1 66 3 48 9 -31 10 -124 12 -133 3z"/>
<path d="M9127 8060 c-41 -37 -104 -136 -95 -146 3 -2 21 20 41 50 45 67 98
109 139 109 65 0 72 -60 20 -166 -34 -68 -19 -71 22 -3 20 32 31 64 34 102 6
71 -12 94 -75 94 -37 0 -50 -6 -86 -40z"/>
<path d="M8678 8003 c-43 -49 -28 -128 37 -188 82 -75 108 -95 126 -95 28 0
24 5 -30 40 -27 17 -68 51 -90 75 -33 36 -41 52 -41 83 0 53 36 87 81 78 64
-13 117 -53 149 -114 21 -40 28 -48 24 -27 -16 71 -63 134 -117 154 -45 17
-121 14 -139 -6z"/>
<path d="M5052 7996 c7 -8 15 -12 17 -11 5 6 -10 25 -20 25 -5 0 -4 -6 3 -14z"/>
<path d="M4705 7949 c-11 -17 1 -21 15 -4 8 9 8 15 2 15 -6 0 -14 -5 -17 -11z"/>
<path d="M4900 7899 c0 -11 5 -17 10 -14 6 3 10 13 10 21 0 8 -4 14 -10 14 -5
0 -10 -9 -10 -21z"/>
<path d="M9370 7861 c0 -11 -15 -28 -32 -40 -38 -24 -30 -28 12 -6 21 11 30
23 30 40 0 14 -2 25 -5 25 -3 0 -5 -9 -5 -19z"/>
<path d="M4856 7795 c-21 -23 -42 -36 -68 -40 -62 -11 -152 -62 -201 -114
-149 -159 -153 -387 -9 -542 196 -212 531 -164 658 96 26 55 29 69 29 165 0
97 -2 110 -32 172 -51 109 -144 186 -261 217 -34 10 -46 19 -59 46 -9 19 -19
35 -22 35 -3 0 -19 -16 -35 -35z"/>
<path d="M8950 7776 c0 -8 -16 -28 -35 -45 -23 -20 -31 -33 -23 -35 48 -15 48
-14 48 -71 0 -64 -10 -69 -56 -24 -31 30 -54 32 -54 6 0 -7 25 -37 55 -67 l55
-54 0 -93 c0 -105 -7 -113 -55 -63 -49 51 -75 37 -75 -39 0 -21 -3 -41 -7 -45
-4 -3 -38 24 -75 61 l-68 67 0 84 c0 74 -2 83 -17 80 -13 -2 -19 -14 -21 -43
-5 -69 -8 -71 -56 -32 -32 27 -46 33 -55 24 -8 -8 -2 -20 25 -48 20 -21 33
-42 30 -48 -4 -6 -27 -11 -52 -11 -32 0 -44 -4 -44 -15 0 -12 15 -15 76 -15
l75 0 62 -57 c93 -87 96 -93 36 -93 -45 0 -79 -14 -79 -33 0 -8 14 -26 30 -42
50 -48 42 -55 -65 -55 l-95 0 -53 57 c-32 33 -59 53 -65 49 -20 -12 -13 -35
18 -58 43 -32 39 -48 -14 -48 -41 0 -74 -19 -59 -33 3 -4 28 -7 55 -7 57 0 61
-11 16 -57 -25 -26 -29 -36 -20 -45 10 -10 25 0 70 45 l58 57 91 0 c51 0 94
-4 97 -9 3 -4 -11 -27 -30 -50 -45 -52 -35 -71 37 -71 33 0 49 -4 49 -13 0 -7
-28 -40 -62 -74 l-63 -62 -80 -3 c-63 -2 -80 -6 -80 -18 0 -11 14 -16 53 -18
28 -2 52 -6 52 -11 0 -4 -16 -22 -35 -41 -36 -35 -45 -60 -22 -60 7 0 26 14
42 30 41 42 53 39 57 -17 2 -35 7 -48 18 -48 12 0 16 18 20 83 l5 83 62 60
c35 33 67 58 73 54 5 -3 10 -28 10 -55 0 -63 20 -72 71 -30 21 16 43 30 48 30
7 0 11 -34 11 -92 l0 -92 -57 -58 c-45 -45 -55 -60 -45 -70 9 -9 19 -5 45 20
18 18 38 32 44 32 7 0 13 -21 15 -52 2 -39 7 -53 18 -53 11 0 16 13 18 45 2
25 7 49 11 53 5 5 25 -6 44 -23 61 -53 62 -24 2 42 l-55 61 0 94 c0 105 5 111
57 61 45 -44 67 -31 71 41 2 32 8 51 15 51 7 0 39 -27 72 -60 l60 -61 5 -82
c4 -64 8 -82 20 -82 11 0 16 13 18 48 2 27 8 47 15 47 6 0 26 -14 44 -32 24
-23 36 -29 44 -21 8 8 1 22 -26 52 -40 45 -38 48 30 53 28 2 40 8 40 18 0 12
-17 16 -81 18 l-80 3 -65 65 c-71 72 -70 84 7 84 58 0 63 21 19 72 -19 23 -32
45 -29 49 3 5 46 9 97 9 l91 0 58 -57 c45 -45 60 -55 70 -45 9 9 5 19 -20 45
-45 46 -41 57 16 57 27 0 52 3 55 7 15 14 -18 33 -59 33 -53 0 -56 12 -12 57
25 26 29 36 20 45 -10 10 -25 0 -70 -45 l-58 -57 -90 0 c-50 0 -94 3 -98 7 -3
4 10 23 29 43 52 53 34 79 -52 80 -19 0 -33 5 -33 12 0 6 29 40 63 75 l64 63
81 0 c66 0 82 3 82 15 0 11 -11 15 -42 15 -69 0 -76 11 -34 57 26 30 32 43 24
51 -8 8 -21 2 -51 -24 -46 -42 -57 -35 -57 34 0 31 -4 42 -15 42 -12 0 -15
-16 -15 -81 l0 -81 -67 -69 c-37 -38 -70 -66 -74 -62 -4 5 -9 30 -11 58 -4 62
-24 69 -74 26 -19 -17 -39 -29 -45 -26 -5 4 -9 46 -9 95 l0 89 57 61 c42 46
53 64 45 72 -9 9 -22 3 -52 -27 -45 -44 -53 -38 -48 41 3 42 6 49 26 52 12 2
22 8 22 13 0 5 6 9 13 9 8 0 22 10 33 22 l19 22 -27 -17 c-15 -9 -35 -17 -44
-17 -18 0 -53 38 -54 58 0 17 -20 15 -20 -2z m-36 -521 c20 -26 26 -45 26 -84
0 -60 -11 -64 -57 -19 -29 28 -33 38 -33 83 0 29 3 54 6 58 11 10 32 -4 58
-38z m166 -17 c0 -44 -4 -54 -34 -84 -50 -50 -66 -46 -66 20 0 50 3 56 40 90
23 20 45 34 50 31 6 -4 10 -29 10 -57z m-230 -110 c56 -46 52 -58 -18 -58 -53
0 -61 3 -91 34 -18 19 -30 39 -27 45 4 6 27 11 52 11 36 0 53 -6 84 -32z m356
21 c3 -6 -9 -26 -27 -45 -30 -31 -38 -34 -91 -34 -70 0 -75 14 -20 59 29 24
47 30 84 31 26 0 50 -5 54 -11z m-316 -131 c0 -7 -17 -29 -37 -50 -33 -33 -43
-38 -84 -38 -26 0 -51 5 -55 11 -3 6 11 28 32 50 35 36 43 39 91 39 35 0 53
-4 53 -12z m289 -24 c18 -20 30 -41 28 -47 -2 -7 -27 -13 -55 -15 -49 -3 -54
-1 -87 35 -50 54 -46 63 24 63 55 0 61 -2 90 -36z m-239 -69 c0 -47 -4 -59
-31 -90 -45 -51 -59 -46 -59 18 0 44 5 59 31 90 44 53 59 49 59 -18z m104 16
c34 -35 37 -42 34 -86 -2 -28 -8 -50 -16 -53 -7 -2 -28 12 -47 31 -32 32 -35
40 -35 91 0 68 11 71 64 17z"/>
<path d="M8547 7753 c-13 -12 -7 -26 6 -15 7 6 30 12 52 15 l40 4 -46 1 c-25
1 -49 -1 -52 -5z"/>
<path d="M7056 7341 c-35 -23 -90 -91 -118 -145 -22 -43 -88 -211 -88 -223 0
-4 25 42 55 102 84 170 175 260 239 235 38 -14 50 -53 37 -120 -24 -123 -103
-235 -232 -332 -38 -28 -67 -53 -65 -55 7 -7 66 8 66 16 0 4 47 55 105 114
113 113 146 167 165 267 14 72 -1 125 -40 145 -40 20 -89 19 -124 -4z"/>
<path d="M6481 7237 c-78 -46 -65 -204 24 -291 81 -78 135 -121 172 -133 61
-21 58 -10 -9 37 -98 68 -186 158 -199 201 -21 69 9 141 66 155 16 4 41 -2 70
-16 94 -46 125 -87 171 -226 30 -94 30 -115 -1 -152 -14 -17 -25 -35 -25 -41
0 -13 -205 -389 -221 -405 -4 -5 -130 -33 -279 -61 -149 -29 -274 -55 -277
-59 -4 -3 9 -23 28 -44 315 -334 349 -373 349 -398 0 -15 -14 -135 -30 -268
-17 -132 -30 -250 -28 -262 3 -21 19 -15 257 97 140 65 257 119 261 119 4 0
122 -54 261 -119 239 -113 254 -119 257 -98 2 13 -11 131 -28 263 -16 133 -30
253 -30 268 0 26 49 82 344 393 22 24 37 45 34 49 -4 3 -128 29 -278 58 -149
29 -275 57 -280 62 -17 17 -223 398 -223 412 0 8 -11 25 -25 39 -18 18 -23 32
-20 58 2 18 0 33 -5 32 -5 -1 -12 4 -14 12 -4 9 0 11 15 7 34 -11 35 28 1 43
-23 10 -32 25 -49 79 -25 86 -59 135 -115 167 -53 32 -139 42 -174 22z"/>
<path d="M3258 7210 c-9 -6 -27 -25 -39 -43 l-23 -32 25 21 c42 37 66 46 90
33 18 -9 21 -18 16 -57 -2 -26 -8 -56 -11 -67 -4 -11 0 -7 10 10 19 33 25 109
9 124 -16 16 -59 22 -77 11z"/>
<path d="M2913 7139 c-7 -7 -13 -24 -12 -38 0 -25 1 -25 9 -4 21 51 67 50 130
-3 25 -22 30 -24 22 -9 -5 11 -19 29 -31 39 -25 23 -101 33 -118 15z"/>
<path d="M7281 7032 c19 -30 5 -49 -78 -102 -93 -60 -86 -64 17 -12 55 28 77
45 85 66 10 29 0 56 -24 64 -10 3 -10 0 0 -16z"/>
<path d="M2926 6996 c3 -8 18 -22 32 -32 27 -17 27 -17 -2 15 -33 35 -38 37
-30 17z"/>
<path d="M3106 6956 c4 -17 -6 -45 -31 -92 -90 -167 -117 -213 -128 -222 -7
-5 -75 -21 -152 -36 -77 -15 -146 -29 -153 -31 -9 -3 28 -50 97 -125 61 -65
111 -125 111 -132 -1 -7 -9 -78 -20 -158 -10 -80 -17 -147 -14 -149 2 -2 69
26 149 63 l145 68 145 -68 c80 -37 147 -65 150 -63 2 3 -5 74 -15 159 -11 85
-20 156 -20 158 0 1 50 56 110 121 61 66 107 122 103 124 -4 3 -73 17 -153 32
-80 15 -151 32 -157 37 -12 10 -116 195 -140 252 -7 15 -13 41 -13 57 0 16 -5
29 -10 29 -6 0 -8 -10 -4 -24z"/>
<path d="M3002 6924 c10 -10 20 -15 24 -12 3 4 -5 12 -18 18 -22 12 -22 12 -6
-6z"/>
<path d="M6295 6870 c-13 -14 -15 -26 -9 -47 l8 -28 4 25 c6 36 17 40 112 41
l85 1 -65 14 c-90 18 -114 17 -135 -6z"/>
</g>
</svg>
