<?xml version="1.0" standalone="no"?>
<!DOCTYPE svg PUBLIC "-//W3C//DTD SVG 20010904//EN"
 "http://www.w3.org/TR/2001/REC-SVG-20010904/DTD/svg10.dtd">
<svg version="1.0" xmlns="http://www.w3.org/2000/svg"
 width="1066.000000pt" height="1280.000000pt" viewBox="0 0 1066.000000 1280.000000"
 preserveAspectRatio="xMidYMid meet">
<metadata>
Created by potrace 1.15, written by Peter Selinger 2001-2017
</metadata>
<g transform="translate(0.000000,1280.000000) scale(0.100000,-0.100000)"
fill="#673ab7" stroke="none">
<path d="M5472 12793 c-19 -4 -23 -9 -19 -26 3 -12 9 -39 12 -59 6 -34 11 -38
36 -38 32 0 33 5 23 84 -4 25 -12 45 -18 45 -6 -1 -22 -4 -34 -6z"/>
<path d="M5590 12735 l0 -65 30 0 30 0 0 65 0 65 -30 0 -30 0 0 -65z"/>
<path d="M5720 12763 c0 -16 -3 -45 -6 -65 -6 -37 -6 -38 23 -38 27 0 30 4 45
59 15 58 15 59 -6 65 -44 12 -56 7 -56 -21z"/>
<path d="M5352 12771 c-27 -7 -26 -3 -17 -62 9 -62 17 -72 48 -63 31 7 31 9
16 72 -14 57 -18 61 -47 53z"/>
<path d="M6583 12772 c-37 -4 -37 -2 -21 -88 10 -54 15 -64 32 -64 42 0 47 12
40 84 -4 36 -10 68 -13 69 -3 1 -21 1 -38 -1z"/>
<path d="M6706 12708 l3 -73 36 -3 35 -3 0 44 c0 25 3 59 6 76 l7 31 -45 0
-45 0 3 -72z"/>
<path d="M6858 12715 c-1 -30 -2 -63 -2 -72 -1 -13 8 -19 31 -21 36 -4 38 0
48 91 l6 57 -40 0 -41 0 -2 -55z"/>
<path d="M5223 12740 c-27 -11 -27 -12 -7 -79 14 -50 17 -52 42 -46 34 8 33 5
23 46 -5 19 -12 46 -15 62 -7 29 -10 30 -43 17z"/>
<path d="M5840 12695 c-31 -54 -31 -57 -14 -70 11 -8 22 -15 26 -15 3 0 22 22
42 50 l35 49 -29 21 -28 20 -32 -55z"/>
<path d="M6424 12738 l-31 -10 21 -70 c20 -69 21 -70 50 -64 16 4 31 8 33 9 7
8 -23 141 -32 143 -5 1 -24 -3 -41 -8z"/>
<path d="M7014 12723 c-3 -16 -10 -45 -16 -67 -10 -42 -6 -50 33 -60 25 -5 27
-2 47 65 l20 70 -25 10 c-39 15 -52 11 -59 -18z"/>
<path d="M7150 12644 c-22 -65 -23 -67 -5 -80 10 -8 24 -14 29 -14 11 0 81
119 74 125 -5 4 -67 35 -71 35 -2 0 -14 -30 -27 -66z"/>
<path d="M5084 12686 c-18 -14 -18 -16 -1 -48 32 -59 44 -70 66 -63 26 8 26
21 1 79 -22 49 -34 55 -66 32z"/>
<path d="M6280 12682 c-19 -9 -34 -20 -33 -25 1 -4 17 -34 35 -66 l33 -59 28
14 c31 17 31 20 -7 105 l-21 49 -35 -18z"/>
<path d="M5948 12625 c-39 -55 -40 -63 -12 -81 18 -13 23 -10 58 36 21 28 37
52 35 53 -2 1 -14 11 -26 21 -22 18 -22 18 -55 -29z"/>
<path d="M4986 12625 c-10 -8 -24 -16 -30 -18 -8 -3 21 -49 65 -100 7 -9 49
12 49 25 0 6 -61 109 -64 108 -1 0 -10 -7 -20 -15z"/>
<path d="M7281 12571 l-40 -58 23 -22 c12 -11 25 -21 28 -21 3 0 25 26 50 58
l45 57 -28 23 c-15 12 -30 22 -33 22 -3 0 -23 -26 -45 -59z"/>
<path d="M6131 12591 c-14 -10 -30 -17 -36 -15 -6 3 -33 -18 -59 -46 l-47 -51
29 -37 c40 -49 71 -77 79 -69 3 4 12 2 20 -5 11 -9 23 -2 58 32 24 24 42 47
39 52 -3 5 5 17 17 27 l23 19 -37 56 c-20 31 -43 56 -50 56 -6 0 -23 -9 -36
-19z m39 -102 c0 -3 -11 -16 -25 -29 l-24 -23 -20 24 -20 24 27 28 26 28 18
-23 c10 -13 18 -26 18 -29z"/>
<path d="M4870 12542 l-23 -19 36 -47 c19 -26 37 -48 39 -49 2 -1 14 6 27 15
l24 17 -28 40 c-41 60 -49 64 -75 43z"/>
<path d="M7392 12472 l-54 -47 26 -24 25 -24 56 43 c30 23 55 46 55 49 0 8
-43 51 -51 51 -2 0 -28 -22 -57 -48z"/>
<path d="M4770 12460 l-25 -19 31 -37 c45 -56 60 -63 83 -39 19 20 19 20 -22
67 l-42 47 -25 -19z"/>
<path d="M5907 12392 l-27 -28 48 -47 c26 -26 52 -47 58 -47 6 0 19 9 28 19
21 24 14 40 -41 94 l-39 37 -27 -28z"/>
<path d="M7487 12359 l-57 -40 17 -30 c9 -16 20 -29 23 -29 4 0 103 63 118 76
5 4 -31 64 -38 63 -3 0 -31 -18 -63 -40z"/>
<path d="M4672 12367 l-22 -23 45 -44 45 -44 22 22 23 22 -46 45 -45 46 -22
-24z"/>
<path d="M6220 12353 c-25 -19 -47 -37 -49 -39 -5 -5 29 -44 39 -44 13 0 90
65 90 76 0 6 -8 18 -17 26 -17 15 -22 13 -63 -19z"/>
<path d="M5796 12273 c-21 -29 -28 -19 59 -88 l37 -29 24 28 24 27 -54 45
c-30 24 -58 44 -63 44 -4 0 -17 -12 -27 -27z"/>
<path d="M4578 12267 c-16 -23 -15 -24 29 -60 25 -20 49 -37 53 -37 9 0 44 39
39 44 -26 24 -92 76 -97 76 -4 0 -14 -11 -24 -23z"/>
<path d="M6288 12246 c-50 -35 -50 -33 -12 -84 4 -5 104 69 104 77 0 8 -34 41
-41 40 -2 0 -25 -15 -51 -33z"/>
<path d="M7567 12234 l-57 -36 17 -29 c10 -16 20 -29 24 -29 15 0 119 66 119
75 0 13 -29 55 -38 55 -4 0 -33 -17 -65 -36z"/>
<path d="M4503 12178 c-24 -31 -21 -38 27 -73 49 -36 52 -37 65 -19 21 28 18
36 -27 72 -45 36 -51 38 -65 20z"/>
<path d="M5708 12155 c-10 -13 -18 -27 -18 -32 0 -4 27 -25 60 -45 l59 -37 21
29 20 28 -51 37 c-67 48 -71 49 -91 20z"/>
<path d="M6358 12139 c-44 -28 -46 -32 -36 -55 6 -13 15 -24 20 -24 7 0 81 39
106 55 7 5 -22 55 -32 54 -6 0 -32 -14 -58 -30z"/>
<path d="M7648 12109 c-32 -16 -58 -34 -58 -40 0 -9 17 -47 25 -57 3 -3 124
55 133 63 6 5 -28 65 -36 65 -4 -1 -33 -14 -64 -31z"/>
<path d="M4420 12063 l-21 -27 53 -33 c28 -18 55 -33 58 -33 9 0 31 40 26 48
-2 4 -25 22 -49 40 l-45 32 -22 -27z"/>
<path d="M6423 12028 c-49 -27 -52 -30 -41 -53 6 -14 15 -25 20 -25 11 0 108
49 108 55 0 11 -24 55 -29 54 -3 -1 -29 -14 -58 -31z"/>
<path d="M5626 12019 c-10 -17 -16 -32 -14 -33 12 -11 117 -66 125 -66 11 0
39 58 32 64 -2 2 -31 17 -65 34 l-61 31 -17 -30z"/>
<path d="M7710 11973 c-30 -13 -56 -26 -58 -28 -2 -2 17 -53 25 -64 4 -6 133
52 133 60 0 18 -24 59 -34 58 -6 0 -36 -12 -66 -26z"/>
<path d="M4347 11951 l-17 -29 56 -28 c54 -28 55 -29 70 -10 8 11 14 23 14 26
0 6 -96 70 -104 70 -1 0 -9 -13 -19 -29z"/>
<path d="M6478 11913 l-57 -26 14 -27 15 -28 55 21 c56 23 66 38 43 70 -12 15
-18 14 -70 -10z"/>
<path d="M5562 11885 c-7 -14 -12 -32 -12 -39 0 -10 58 -35 126 -54 7 -2 17
11 23 28 l10 31 -64 30 c-36 16 -66 29 -68 29 -2 0 -9 -11 -15 -25z"/>
<path d="M4285 11840 c-15 -28 -15 -28 38 -58 l52 -30 17 21 c10 12 18 25 18
29 0 3 -25 20 -55 36 l-55 30 -15 -28z"/>
<path d="M7770 11836 c-58 -23 -59 -25 -46 -68 l8 -27 66 25 c36 13 68 27 70
29 8 8 -20 65 -32 64 -6 0 -36 -11 -66 -23z"/>
<path d="M6530 11796 c-43 -18 -54 -27 -52 -42 6 -33 18 -36 76 -18 58 18 63
25 43 61 l-12 21 -55 -22z"/>
<path d="M5510 11734 c-6 -14 -10 -29 -10 -34 0 -12 133 -51 142 -42 3 4 8 20
10 35 3 27 -1 30 -57 48 -76 24 -74 24 -85 -7z"/>
<path d="M4226 11721 l-15 -27 57 -28 c53 -26 57 -27 69 -10 21 29 12 43 -44
69 l-53 24 -14 -28z"/>
<path d="M7823 11697 c-58 -19 -62 -22 -56 -46 10 -43 18 -46 84 -26 67 21 75
29 60 68 -12 31 -8 31 -88 4z"/>
<path d="M6557 11672 c-40 -13 -46 -19 -41 -36 11 -36 20 -38 79 -21 51 14 56
19 51 38 -3 12 -6 25 -6 30 0 11 -29 7 -83 -11z"/>
<path d="M4172 11602 c-10 -29 -9 -30 48 -55 l58 -25 13 29 c14 34 16 31 -41
53 -25 10 -50 20 -56 23 -7 2 -16 -9 -22 -25z"/>
<path d="M5467 11578 c-2 -18 -3 -35 -1 -37 4 -4 138 -30 141 -27 1 1 4 17 5
36 3 32 2 33 -52 46 -82 19 -87 18 -93 -18z"/>
<path d="M6603 11552 c-53 -15 -64 -30 -44 -60 7 -11 19 -12 65 -2 57 12 66
23 50 64 -7 18 -3 18 -71 -2z"/>
<path d="M7863 11553 c-43 -12 -53 -20 -53 -37 0 -46 12 -50 88 -31 l70 17 -9
31 c-5 18 -9 33 -9 34 0 7 -39 0 -87 -14z"/>
<path d="M4129 11483 c-14 -37 -13 -38 44 -56 68 -21 63 -22 75 11 10 28 9 29
-50 49 l-59 21 -10 -25z"/>
<path d="M5447 11454 c-4 -4 -7 -20 -7 -35 0 -31 7 -35 93 -45 l57 -6 0 35 c0
25 -5 37 -17 41 -38 10 -119 17 -126 10z"/>
<path d="M6628 11427 c-35 -8 -48 -15 -48 -28 0 -42 7 -45 70 -35 61 10 70 19
54 60 -7 18 -8 18 -76 3z"/>
<path d="M7905 11410 c-33 -9 -59 -20 -59 -24 1 -3 4 -19 7 -35 l6 -29 68 15
c37 9 69 17 71 18 8 7 -12 75 -22 74 -6 -1 -38 -9 -71 -19z"/>
<path d="M4087 11353 c-3 -16 -4 -29 -2 -31 6 -6 116 -35 119 -31 2 2 6 16 9
30 6 24 3 27 -47 42 -69 22 -73 22 -79 -10z"/>
<path d="M5426 11288 c-14 -54 -11 -56 68 -60 l74 -3 4 33 c2 18 2 35 -1 36
-3 2 -36 7 -72 10 -64 7 -67 6 -73 -16z"/>
<path d="M6646 11299 c-49 -12 -48 -11 -40 -44 6 -24 10 -26 43 -21 90 16 88
15 83 46 -5 33 -16 35 -86 19z"/>
<path d="M8213 11260 l-182 -26 -6 24 c-5 20 -10 23 -38 17 -89 -18 -107 -26
-107 -45 0 -11 -4 -20 -9 -20 -4 0 -244 -34 -532 -76 -288 -41 -553 -79 -589
-84 -36 -5 -632 -90 -1324 -189 -692 -100 -1265 -181 -1272 -181 -7 0 -14 12
-16 28 -2 15 -9 27 -15 26 -7 -1 -35 -2 -63 -2 -48 -2 -50 -3 -50 -31 0 -25 4
-30 28 -33 15 -2 -828 -125 -1873 -275 -1082 -155 -1901 -276 -1903 -282 -2
-6 -12 -11 -23 -11 -17 0 -19 -8 -19 -72 0 -40 -5 -239 -10 -443 -5 -203 -14
-559 -20 -790 -6 -231 -15 -598 -20 -815 -5 -217 -14 -582 -20 -810 -6 -228
-15 -593 -20 -810 -5 -217 -14 -582 -20 -810 -6 -228 -15 -593 -20 -810 -5
-217 -14 -582 -20 -810 -6 -228 -15 -590 -20 -805 -5 -214 -12 -491 -15 -615
-3 -124 -10 -389 -15 -590 -6 -201 -10 -375 -10 -388 0 -21 109 -78 1058 -549
1496 -743 1983 -983 1998 -983 7 0 11 6 8 14 -4 9 21 24 83 49 48 20 243 101
433 180 357 150 1140 477 1715 717 182 76 483 202 670 280 187 78 518 216 735
307 217 91 545 228 728 304 182 76 484 202 670 280 185 78 461 193 612 256
151 63 532 222 845 353 314 131 685 286 825 345 140 58 259 110 263 114 4 4
-1 311 -13 682 -20 686 -44 1492 -80 2707 -11 372 -24 826 -30 1007 -6 182
-19 636 -30 1010 -11 374 -29 979 -40 1345 -11 366 -23 772 -26 903 -7 232 -8
237 -28 237 -12 -1 -481 -47 -1044 -103 l-1023 -103 5 25 c16 80 57 363 54
369 -2 4 -85 -4 -185 -18z m136 -34 c-3 -3 -63 -12 -134 -21 -179 -22 -205
-29 -205 -60 0 -21 -5 -25 -30 -25 -20 0 -30 5 -30 15 0 32 0 32 -1599 -196
-425 -60 -775 -108 -778 -105 -6 6 -164 -18 1427 210 740 106 1347 191 1349
189 2 -2 2 -5 0 -7z m-28 -191 c-31 -184 -40 -203 -16 -33 16 114 35 211 40
206 2 -2 -9 -80 -24 -173z m-289 -20 c4 -36 -5 -45 -43 -45 -15 0 -19 7 -19
33 0 40 6 47 36 47 18 0 23 -7 26 -35z m2358 -78 c0 -46 3 -178 7 -294 6 -202
5 -211 -13 -217 -10 -3 -182 -37 -381 -76 -457 -88 -1015 -197 -1288 -250
-197 -38 -390 -76 -1282 -249 -597 -116 -1489 -290 -1652 -322 -84 -17 -156
-28 -159 -25 -8 9 4 11 443 96 592 114 658 127 1240 240 286 56 588 114 670
130 83 16 384 74 670 130 286 56 590 115 675 131 85 16 358 69 605 117 l450
87 3 155 c3 158 -12 388 -27 403 -7 7 -260 -35 -1628 -273 -534 -93 -624 -107
-612 -95 3 2 185 36 405 75 1281 225 1822 318 1847 319 l27 1 0 -83z m-381 69
c-2 -2 -238 -45 -524 -95 -286 -50 -662 -115 -835 -146 -173 -30 -318 -55
-322 -55 -5 0 -8 29 -8 64 l0 64 43 6 c23 3 274 28 557 56 283 28 637 64 785
79 308 32 310 32 304 27z m-1957 -141 c4 -31 1 -35 -25 -41 -34 -7 -35 -7 -37
31 -3 44 -3 45 29 45 25 0 29 -4 33 -35z m-2643 -59 c-2 -2 -353 -53 -779
-114 -3070 -440 -3552 -511 -3998 -589 -18 -3 -31 -7 -29 -9 7 -7 349 -33
1172 -89 793 -54 883 -61 818 -64 -69 -3 -2194 146 -2202 155 -2 2 2 4 10 4
12 0 2833 403 4469 639 294 42 537 76 539 74 2 -2 2 -5 0 -7z m2871 -60 l0
-43 -58 -12 c-32 -6 -96 -13 -143 -15 l-84 -4 3 39 c4 37 6 39 37 39 26 0 34
-5 39 -24 8 -32 35 -40 103 -31 61 7 93 31 93 70 0 14 2 25 5 25 3 0 5 -20 5
-44z m-2750 -1 c0 -33 -2 -35 -33 -35 -31 0 -33 3 -35 35 -3 34 -1 35 33 35
33 0 35 -2 35 -35z m2425 -94 c-6 -4 -116 -27 -245 -49 -129 -23 -428 -75
-665 -116 -1111 -195 -1446 -252 -1450 -246 -2 3 97 23 220 43 370 62 1862
327 2030 361 84 16 123 19 110 7z m-2425 -40 c0 -11 3 -26 6 -35 5 -13 -1 -16
-30 -16 -34 0 -36 1 -36 35 0 32 2 35 30 35 23 0 30 -5 30 -19z m2459 -15 c-2
-3 -99 -21 -214 -41 -299 -51 -5006 -870 -5145 -895 -63 -11 -132 -23 -152
-26 l-38 -7 0 -58 c0 -80 38 -525 50 -590 6 -29 14 -57 18 -61 4 -4 228 36
497 88 270 52 558 108 640 124 362 70 1504 292 1645 319 85 17 162 31 170 30
32 -1 -28 -19 -130 -38 -58 -11 -199 -38 -315 -61 -115 -23 -370 -72 -565
-110 -195 -38 -611 -119 -925 -180 -945 -184 -1045 -203 -1049 -199 -9 9 -55
734 -47 742 4 4 291 57 637 118 346 60 694 121 774 135 1836 322 4093 712
4119 713 19 1 32 -1 30 -3z m-2449 -151 c0 -32 -2 -35 -30 -35 -28 0 -30 3
-30 35 0 32 2 35 30 35 28 0 30 -3 30 -35z m4884 -685 c16 -586 44 -1523 66
-2250 15 -488 47 -1583 70 -2370 10 -377 22 -743 25 -815 l6 -130 -133 -52
c-122 -48 -529 -208 -1373 -541 -181 -71 -492 -194 -690 -272 -198 -78 -531
-209 -740 -292 -209 -82 -540 -213 -735 -290 -447 -176 -899 -354 -1385 -546
-209 -83 -531 -209 -715 -282 -184 -73 -540 -213 -790 -312 -1032 -406 -1020
-402 -1020 -420 0 -10 5 -18 11 -18 12 0 209 77 1204 470 253 100 606 240 785
310 179 70 498 196 710 280 212 84 534 210 715 282 182 72 490 193 685 270
352 139 655 258 1385 546 209 82 709 279 1110 437 402 159 784 309 850 335
l120 48 7 -132 c13 -234 26 -781 18 -789 -4 -4 -153 -69 -331 -143 -178 -75
-607 -254 -954 -399 -346 -145 -754 -315 -905 -378 -452 -189 -921 -385 -1340
-560 -217 -91 -575 -240 -795 -332 -220 -92 -548 -229 -730 -305 -181 -76
-537 -224 -790 -330 -424 -177 -665 -278 -1403 -586 -150 -63 -277 -114 -282
-114 -6 0 -9 19 -8 43 1 36 2 38 5 10 2 -18 9 -33 14 -33 6 0 227 90 492 201
265 111 740 309 1054 440 315 131 833 347 1150 480 775 323 1548 646 1883 786
151 63 559 233 905 378 347 145 788 329 980 410 193 80 503 209 690 287 187
78 344 145 349 149 9 8 -11 841 -22 868 -9 23 141 80 -2362 -903 -1467 -576
-1814 -712 -2685 -1056 -225 -89 -534 -211 -685 -270 -294 -116 -1640 -650
-1752 -696 l-68 -27 0 -54 c0 -29 11 -236 26 -459 14 -224 24 -416 22 -428 -2
-11 -11 98 -21 244 -10 146 -22 324 -27 395 -15 214 -28 400 -70 1025 -22 327
-54 792 -70 1032 -17 241 -43 636 -60 878 -16 242 -43 638 -60 880 -16 242
-43 637 -60 877 -16 241 -66 971 -110 1623 -45 652 -88 1296 -98 1433 -15 220
-16 248 -2 252 8 2 51 11 95 19 44 8 254 49 468 90 1478 289 2292 447 2396
467 58 10 119 19 137 19 18 0 34 4 36 8 2 4 192 45 423 89 702 137 1550 302
1736 338 96 19 183 35 192 35 12 0 17 -8 17 -30 0 -33 12 -36 104 -24 44 6 46
8 46 40 0 28 -4 33 -27 36 -16 2 116 31 292 65 176 34 577 112 890 173 314 61
687 134 830 161 143 28 262 53 264 55 3 2 8 1 11 -3 4 -5 15 -285 24 -623z
m-4864 536 l8 -36 -44 0 c-43 0 -44 0 -44 34 0 32 3 35 33 38 40 4 37 6 47
-36z m-113 -82 c-4 -4 -91 -22 -194 -40 -191 -33 -1757 -306 -2378 -415 -187
-32 -346 -59 -352 -59 -7 0 29 37 80 82 127 113 149 126 47 30 -47 -44 -82
-83 -79 -87 4 -3 150 19 325 50 176 31 499 87 719 126 541 94 505 88 995 174
239 42 514 91 610 110 173 33 239 41 227 29z m-5175 -311 c-5 -199 12 -462 30
-478 9 -8 185 -22 553 -44 297 -18 603 -37 680 -42 418 -27 835 -45 835 -35 0
2 -7 66 -15 141 -9 76 -12 143 -7 151 5 9 13 -49 21 -147 6 -89 9 -164 7 -167
-6 -5 -261 9 -1431 79 -379 22 -692 42 -693 44 -6 6 11 645 17 645 3 0 5 -66
3 -147z m733 102 c281 -19 744 -50 1030 -70 286 -19 543 -37 572 -41 l52 -5
-120 -105 c-65 -58 -124 -104 -130 -102 -6 2 35 43 90 91 97 85 115 107 89
107 -7 0 -65 5 -128 10 -63 5 -455 32 -870 60 -880 59 -1251 87 -1259 96 -3 4
32 4 79 1 47 -4 315 -22 595 -42z m1693 -72 c-10 -2 -28 -2 -40 0 -13 2 -5 4
17 4 22 1 32 -1 23 -4z m-1318 -639 c547 -32 997 -59 999 -61 12 -9 -16 -9
-144 -2 -543 33 -846 51 -1155 69 -195 11 -458 26 -585 34 -126 7 -232 11
-235 9 -3 -3 -8 -82 -11 -176 l-5 -172 -2 160 c-1 88 1 171 5 184 6 22 9 23
72 18 36 -4 514 -32 1061 -63z m1007 -181 c-2 -21 -4 -6 -4 32 0 39 2 55 4 38
2 -18 2 -50 0 -70z m33 -398 c19 -301 19 -374 12 -1230 l-9 -910 -2 875 c-1
772 -6 1069 -25 1510 -9 202 3 85 24 -245z m-2183 8 c-2 -38 -3 -7 -3 67 0 74
1 105 3 68 2 -38 2 -98 0 -135z m-10 -445 c-2 -35 -3 -9 -3 57 0 66 1 94 3 63
2 -32 2 -86 0 -120z m-10 -385 c-1 -43 -3 -10 -3 72 0 83 2 118 3 78 2 -40 2
-107 0 -150z m2322 -873 c22 -311 86 -1206 141 -1990 55 -784 109 -1552 120
-1707 11 -156 29 -411 40 -568 11 -157 29 -412 40 -567 56 -792 70 -1011 67
-1014 -2 -2 -64 71 -138 163 -74 92 -141 174 -150 182 -12 12 -21 68 -37 221
-12 113 -58 547 -102 965 l-80 759 2 336 2 335 6 -375 c6 -363 8 -391 58 -845
28 -258 60 -553 71 -655 11 -102 34 -305 50 -452 l30 -266 104 -129 c58 -70
119 -141 137 -158 l32 -30 -6 25 c-2 14 -8 84 -11 155 -7 150 -78 1232 -115
1740 -6 77 -19 273 -30 435 -11 162 -25 358 -30 435 -6 77 -28 401 -50 720
-104 1490 -189 2675 -194 2690 -7 22 -33 -1940 -38 -2910 -1 -198 -4 -337 -6
-310 -6 71 17 3181 25 3405 l7 185 7 -105 c4 -58 26 -359 48 -670z m-2332 407
c-1 -45 -3 -5 -3 88 0 94 2 130 3 82 2 -48 2 -125 0 -170z m-16 -707 c-7 -267
-16 -669 -21 -895 -24 -1013 -31 -1316 -40 -1700 -23 -924 -30 -1248 -31
-1405 l-1 -165 231 -59 c127 -32 230 -61 228 -63 -3 -2 -111 22 -242 54 l-237
57 6 251 c7 277 23 906 56 2280 6 231 17 681 25 1000 8 319 18 726 22 905 4
179 10 303 11 275 2 -27 -1 -268 -7 -535z m2226 -1047 c-1 -164 -2 -30 -2 297
0 327 1 461 2 298 2 -164 2 -432 0 -595z m-12 -1529 l-7 -681 -72 -60 c-39
-33 -343 -291 -676 -573 -333 -282 -611 -515 -618 -518 -7 -2 -23 1 -35 7 -21
11 -21 11 3 7 29 -6 -8 -36 789 639 299 253 554 469 567 480 l24 20 10 535 c5
294 11 681 12 860 2 223 4 268 6 145 2 -99 0 -487 -3 -861z m97 -1661 c54
-509 96 -928 95 -929 -3 -3 -242 111 -1280 611 l-248 120 33 27 c18 15 317
268 663 562 347 294 632 535 635 535 3 1 49 -416 102 -926z m-2019 -79 c216
-53 415 -101 442 -108 28 -7 48 -16 45 -22 -6 -12 -890 -635 -910 -641 -24 -8
9 17 310 230 292 206 550 395 550 402 0 11 -479 138 -728 194 l-82 19 -5 -22
c-3 -11 -14 -172 -24 -356 l-19 -335 4 265 c5 279 13 470 20 470 3 0 181 -43
397 -96z m142 16 c25 -11 -1 -11 -35 0 -20 6 -21 8 -5 8 11 0 29 -3 40 -8z
m140 -34 c50 -13 83 -24 75 -25 -8 0 -55 10 -105 23 -49 13 -83 24 -75 25 8 0
56 -10 105 -23z m122 -32 c-3 -3 -12 -4 -19 -1 -8 3 -5 6 6 6 11 1 17 -2 13
-5z m40 -10 c-3 -3 -12 -4 -19 -1 -8 3 -5 6 6 6 11 1 17 -2 13 -5z m40 -10
c-3 -3 -12 -4 -19 -1 -8 3 -5 6 6 6 11 1 17 -2 13 -5z m136 -111 c29 -14 378
-183 776 -374 399 -192 728 -354 732 -361 4 -7 62 -222 129 -478 67 -256 148
-566 181 -689 33 -123 59 -227 57 -231 -2 -4 -253 117 -558 269 -305 152 -963
479 -1462 726 -499 248 -904 451 -900 453 5 1 309 -147 678 -329 1644 -814
2194 -1083 2201 -1075 10 10 -66 322 -237 971 -45 171 -86 327 -91 348 -10 36
-16 41 -96 79 -124 57 -848 402 -1191 567 l-294 141 -480 -340 c-264 -188
-485 -339 -491 -337 -14 4 954 686 976 687 10 0 41 -12 70 -27z m1714 -964
l140 -175 12 -170 c7 -93 21 -297 31 -454 11 -157 22 -303 25 -325 3 -21 4
-37 1 -35 -2 3 -40 142 -84 310 -180 682 -263 996 -269 1015 -7 26 -18 38 144
-166z"/>
<path d="M9395 10933 c-27 -2 -237 -22 -465 -44 -228 -21 -446 -42 -485 -46
-94 -8 -105 -15 -105 -63 0 -21 5 -42 10 -45 11 -7 52 -1 325 46 366 64 770
142 780 150 6 6 6 8 0 7 -6 -1 -32 -3 -60 -5z"/>
<path d="M8038 9777 c-31 -7 -38 -13 -38 -34 0 -14 14 -39 32 -59 60 -63 118
-35 118 56 l0 45 -37 1 c-21 0 -55 -4 -75 -9z"/>
<path d="M5467 9364 c-4 -4 -7 -22 -7 -41 l0 -33 59 0 c33 0 66 -3 75 -6 13
-5 16 2 16 35 0 41 0 41 -39 41 -21 0 -51 3 -67 6 -16 3 -32 2 -37 -2z"/>
<path d="M5475 9245 c-18 -17 -25 -35 -25 -63 0 -36 3 -40 39 -57 33 -15 44
-15 74 -4 54 19 64 79 21 123 -34 34 -77 34 -109 1z"/>
<path d="M2288 3288 c-144 -109 -1179 -978 -1186 -996 -1 -5 78 -47 175 -94
98 -47 396 -191 663 -320 267 -129 520 -251 563 -271 l77 -36 0 27 c0 27 -10
126 -95 932 -73 695 -88 830 -94 830 -4 0 -50 -33 -103 -72z"/>
<path d="M2745 1243 c35 -182 218 -860 238 -879 9 -10 9 26 -3 187 -31 421
-41 493 -79 567 -21 41 -147 192 -160 192 -5 0 -3 -30 4 -67z"/>
<path d="M4056 11236 c-11 -39 -6 -44 44 -55 75 -16 80 -15 80 18 0 27 -4 30
-59 43 -58 15 -59 15 -65 -6z"/>
<path d="M6652 11173 c-29 -4 -33 -8 -30 -31 3 -30 33 -39 95 -27 29 5 33 10
33 35 0 32 -7 34 -98 23z"/>
<path d="M5420 11121 l0 -41 75 0 75 0 0 35 c0 34 -1 35 -37 35 -21 0 -55 3
-75 6 l-38 7 0 -42z"/>
<path d="M4037 11124 c-4 -4 -7 -20 -7 -35 0 -25 4 -28 44 -34 63 -10 81 -4
84 26 3 25 -1 27 -44 34 -25 3 -52 9 -58 11 -7 3 -15 1 -19 -2z"/>
<path d="M5410 10970 l0 -40 75 0 75 0 0 34 c0 32 -2 34 -46 40 -26 3 -60 6
-75 6 -27 0 -29 -3 -29 -40z"/>
<path d="M4015 10969 c-4 -17 -5 -32 -3 -33 1 -2 31 -6 64 -9 l62 -6 4 29 c4
27 2 30 -31 35 -20 3 -48 8 -63 10 -23 4 -28 0 -33 -26z"/>
<path d="M4008 10833 l-4 -33 63 0 c48 0 63 3 63 14 0 8 3 21 6 29 4 12 -7 16
-59 19 l-65 3 -4 -32z"/>
</g>
</svg>
