<?xml version="1.0" standalone="no"?>
<!DOCTYPE svg PUBLIC "-//W3C//DTD SVG 20010904//EN"
 "http://www.w3.org/TR/2001/REC-SVG-20010904/DTD/svg10.dtd">
<svg version="1.0" xmlns="http://www.w3.org/2000/svg"
 width="1192.000000pt" height="1280.000000pt" viewBox="0 0 1192.000000 1280.000000"
 preserveAspectRatio="xMidYMid meet">
<metadata>
Created by potrace 1.15, written by Peter Selinger 2001-2017
</metadata>
<g transform="translate(0.000000,1280.000000) scale(0.100000,-0.100000)"
fill="#3f51b5" stroke="none">
<path d="M7571 12784 c-79 -11 -122 -23 -176 -49 -121 -58 -255 -153 -346
-244 -105 -106 -150 -190 -178 -331 -10 -52 -31 -124 -45 -159 -26 -60 -27
-70 -25 -215 3 -164 3 -165 -58 -245 -20 -25 -45 -65 -56 -88 l-21 -43 22 -27
c52 -66 54 -76 41 -193 -12 -103 -11 -110 9 -158 26 -60 29 -152 7 -205 -8
-19 -33 -57 -56 -84 -47 -53 -78 -115 -79 -153 0 -14 -13 -50 -29 -80 -15 -30
-31 -76 -34 -101 -9 -68 -101 -338 -159 -465 -10 -22 -18 -47 -18 -56 0 -8
-21 -59 -46 -114 -58 -124 -100 -232 -120 -309 -9 -33 -35 -91 -58 -130 -328
-540 -364 -595 -405 -617 -55 -30 -295 -4 -584 62 -203 47 -660 178 -805 230
-112 41 -149 61 -245 128 -228 162 -296 190 -475 199 -97 5 -115 3 -131 -11
-11 -10 -88 -52 -173 -95 -84 -42 -257 -136 -384 -209 -128 -73 -239 -132
-249 -132 -28 0 -50 16 -212 155 -86 74 -159 135 -162 135 -3 0 -46 -34 -96
-76 -122 -103 -219 -172 -283 -200 -28 -13 -109 -64 -180 -113 -70 -49 -235
-159 -367 -244 -132 -85 -253 -166 -270 -180 -16 -13 -50 -34 -75 -47 -25 -12
-65 -39 -90 -60 -25 -20 -117 -86 -206 -147 -88 -61 -197 -138 -243 -172 -45
-33 -88 -61 -95 -61 -6 0 -39 -23 -71 -51 -33 -28 -75 -58 -93 -65 -18 -8 -40
-21 -50 -30 -15 -13 -73 -59 -175 -139 l-25 -20 141 -211 c78 -116 185 -265
238 -330 108 -134 119 -151 119 -191 0 -47 34 -88 136 -165 106 -79 143 -120
365 -399 215 -270 426 -525 494 -597 l60 -64 70 52 c39 29 85 59 103 67 31 13
37 12 77 -11 23 -14 95 -66 158 -115 64 -50 158 -118 209 -152 51 -34 125 -87
163 -118 97 -79 133 -103 144 -96 5 3 49 58 98 123 48 64 129 164 178 222 275
319 477 567 562 688 53 75 124 173 158 217 34 44 86 116 115 160 29 44 86 123
125 175 40 52 78 106 85 119 7 13 31 50 54 82 22 32 64 91 91 130 28 40 76
105 108 146 62 80 157 216 157 226 0 3 -129 119 -288 257 l-287 252 -7 71 c-4
40 -4 219 -1 400 5 293 8 327 22 327 9 0 50 -9 91 -21 118 -32 162 -39 365
-53 l190 -13 82 -41 c458 -231 885 -380 1336 -468 l147 -28 80 79 c44 44 80
84 80 90 0 6 14 24 31 41 27 25 113 134 201 252 15 20 34 44 43 53 8 9 15 21
15 27 0 7 9 17 20 24 11 7 20 20 20 29 0 8 11 26 25 39 14 13 25 28 25 33 0 5
16 27 35 48 19 22 35 44 35 49 0 6 4 10 10 10 13 0 52 -79 108 -219 l47 -116
-1 -225 c0 -245 -9 -410 -54 -975 -49 -608 -41 -574 -185 -804 -111 -176 -139
-250 -155 -406 -29 -281 -40 -350 -66 -400 -14 -27 -39 -85 -55 -127 -30 -78
-114 -223 -228 -398 -115 -174 -275 -390 -289 -390 -40 0 -253 37 -466 80
-132 27 -243 47 -248 44 -4 -3 -8 -15 -8 -28 0 -28 -18 -46 -46 -46 -12 0 -28
-7 -35 -16 -10 -12 -24 -15 -55 -10 -31 4 -44 2 -47 -8 -6 -16 -22 -322 -38
-731 -5 -154 -14 -323 -19 -375 -12 -118 -80 -686 -120 -995 -42 -328 -45
-362 -31 -379 7 -8 32 -18 56 -22 25 -3 50 -13 57 -22 9 -11 14 -77 18 -234 4
-178 8 -220 20 -228 21 -13 101 -19 415 -30 154 -6 352 -15 440 -20 88 -5 430
-19 760 -30 865 -28 1017 -37 1033 -57 9 -13 12 -91 12 -308 l0 -292 -70 -208
c-39 -114 -82 -230 -97 -257 -34 -63 -128 -166 -158 -174 -13 -3 -26 -12 -29
-19 -2 -7 -28 -18 -58 -25 -58 -14 -142 -53 -154 -71 -30 -50 -20 -167 29
-339 l33 -115 60 -6 c93 -10 292 -10 367 1 119 17 175 61 197 151 87 373 122
446 271 574 59 51 198 139 206 131 16 -15 22 -119 23 -361 2 -308 7 -368 32
-373 21 -4 25 19 33 178 15 293 48 614 71 694 8 27 14 85 14 129 0 75 -3 86
-60 211 -73 161 -102 265 -105 372 -1 75 -4 85 -32 118 -25 31 -30 44 -27 79
2 23 11 137 20 252 13 175 21 232 50 343 65 247 75 311 81 539 7 246 -3 379
-54 773 -40 309 -42 383 -26 785 13 314 25 438 59 630 42 230 54 225 173 -71
32 -82 96 -234 141 -339 217 -503 282 -583 518 -645 91 -24 160 -25 209 -5 40
17 238 212 350 346 109 130 321 474 492 798 51 96 124 224 162 285 70 110 321
473 408 589 l46 62 81 0 c102 1 124 17 169 119 89 204 184 332 491 662 132
140 165 158 304 158 52 1 127 -5 166 -13 88 -17 99 -12 153 71 47 71 81 170
81 232 -1 81 -58 166 -157 232 -68 45 -233 127 -289 144 -51 15 -76 4 -172
-78 -37 -32 -123 -101 -192 -154 -288 -219 -391 -271 -505 -254 -36 6 -45 11
-45 27 0 11 70 149 155 307 85 158 155 295 155 305 0 18 -17 22 -36 9 -6 -4
-80 -115 -164 -247 -167 -261 -216 -328 -331 -451 -104 -112 -111 -131 -117
-364 l-4 -185 -45 -90 c-118 -235 -103 -216 -542 -650 -567 -560 -602 -592
-611 -574 -4 8 -11 97 -14 199 -4 102 -11 247 -17 322 -7 100 -7 143 1 158 7
13 63 47 137 82 69 34 127 67 130 74 3 8 -4 29 -16 47 -28 46 -26 70 9 110 16
19 30 39 30 44 0 4 -24 55 -54 112 -30 56 -99 198 -152 314 -54 117 -136 288
-182 380 l-84 168 -232 252 c-419 456 -557 612 -563 637 -10 41 16 166 78 365
32 105 67 228 78 274 11 46 25 89 31 95 5 5 10 19 10 31 0 41 139 505 173 577
34 72 36 83 43 219 5 114 3 165 -10 243 -31 179 -45 209 -158 351 -57 70 -111
139 -120 154 -26 37 -23 128 7 236 29 104 31 167 9 221 -12 29 -15 62 -12 139
5 112 1 105 116 249 35 43 74 101 88 128 90 178 86 474 -10 689 -59 131 -105
198 -206 300 -157 158 -278 191 -559 153z m-4141 -3561 c0 -4 -32 -64 -70
-134 -39 -71 -95 -179 -124 -241 -30 -62 -78 -159 -108 -215 l-54 -103 -145
129 c-79 70 -153 138 -163 150 -20 21 -20 22 0 41 42 42 300 197 524 314 125
66 140 72 140 59z m76 -28 c5 -31 3 -115 -8 -239 -3 -25 3 -33 42 -56 l45 -27
-2 -254 c-3 -348 -11 -479 -29 -486 -16 -6 -24 0 -211 163 -136 119 -203 186
-203 204 0 4 14 48 31 96 31 87 308 634 321 634 4 0 10 -16 14 -35z m2804
-3480 c16 -8 52 -20 79 -26 35 -7 58 -19 73 -39 13 -15 33 -33 46 -39 22 -12
22 -13 22 -244 -1 -254 -12 -423 -30 -441 -26 -26 -565 -15 -593 13 -14 14 5
85 89 339 81 243 109 307 160 365 19 20 34 44 34 52 0 34 70 46 120 20z m714
-47 c3 -18 10 -78 16 -133 7 -55 25 -178 41 -274 16 -96 32 -217 35 -268 l7
-93 -192 0 c-178 0 -192 1 -211 20 -13 13 -20 33 -20 56 0 20 -7 59 -15 87 -8
29 -26 156 -39 282 -37 337 -37 325 -23 331 16 5 231 21 324 23 l72 1 5 -32z"/>
</g>
</svg>
