<?xml version="1.0" standalone="no"?>
<!DOCTYPE svg PUBLIC "-//W3C//DTD SVG 20010904//EN"
 "http://www.w3.org/TR/2001/REC-SVG-20010904/DTD/svg10.dtd">
<svg version="1.0" xmlns="http://www.w3.org/2000/svg"
 width="1125.000000pt" height="1280.000000pt" viewBox="0 0 1125.000000 1280.000000"
 preserveAspectRatio="xMidYMid meet">
<metadata>
Created by potrace 1.15, written by Peter Selinger 2001-2017
</metadata>
<g transform="translate(0.000000,1280.000000) scale(0.100000,-0.100000)"
fill="#673ab7" stroke="none">
<path d="M3783 12785 c-258 -56 -445 -317 -547 -763 -108 -469 -142 -979 -152
-2227 -6 -727 -7 -742 -30 -863 -13 -68 -24 -126 -24 -128 0 -2 -236 -4 -525
-4 -458 0 -526 -2 -531 -15 -5 -13 -46 -15 -280 -15 l-274 0 -4 -22 c-2 -13
-9 -131 -15 -263 -11 -236 -233 -4708 -311 -6245 -28 -563 -36 -788 -28 -797
8 -11 578 -13 3079 -13 2034 0 3070 3 3074 10 3 6 50 10 106 10 l99 0 108 84
108 85 135 23 134 23 7 1640 c11 2524 11 3850 -1 4310 -14 501 -40 1165 -47
1177 -3 4 -403 8 -888 8 l-884 0 -6 63 c-5 50 3 120 43 357 115 681 193 1272
233 1770 17 210 17 794 0 930 -56 451 -192 710 -428 822 -239 112 -563 52
-904 -169 -88 -58 -241 -176 -274 -212 -18 -20 -18 -20 -110 64 -320 295 -608
415 -863 360z m231 -260 c77 -20 213 -91 301 -157 71 -53 225 -195 225 -207 0
-3 -30 -40 -67 -81 -436 -495 -828 -1194 -1087 -1940 -20 -57 -39 -107 -42
-110 -7 -6 2 403 17 770 25 645 86 1096 185 1372 109 303 250 410 468 353z
m1799 -23 c136 -60 225 -240 274 -552 15 -94 18 -177 18 -460 0 -427 -21 -700
-101 -1305 -52 -394 -45 -372 -78 -230 -139 588 -375 1189 -651 1655 -86 145
-232 362 -308 458 l-58 73 23 20 c291 250 551 375 759 365 48 -2 94 -12 122
-24z m-1012 -642 c524 -704 899 -1723 1003 -2728 12 -118 12 -144 -2 -233
l-16 -99 -1224 0 -1224 0 5 123 c4 103 13 153 55 322 218 863 519 1584 907
2170 175 264 411 556 430 532 6 -7 35 -46 66 -87z"/>
</g>
</svg>
