<?xml version="1.0" standalone="no"?>
<!DOCTYPE svg PUBLIC "-//W3C//DTD SVG 20010904//EN"
 "http://www.w3.org/TR/2001/REC-SVG-20010904/DTD/svg10.dtd">
<svg version="1.0" xmlns="http://www.w3.org/2000/svg"
 width="1280.000000pt" height="1081.000000pt" viewBox="0 0 1280.000000 1081.000000"
 preserveAspectRatio="xMidYMid meet">
<metadata>
Created by potrace 1.15, written by Peter Selinger 2001-2017
</metadata>
<g transform="translate(0.000000,1081.000000) scale(0.100000,-0.100000)"
fill="#3f51b5" stroke="none">
<path d="M5521 10799 c-185 -31 -440 -158 -682 -341 -128 -96 -170 -149 -250
-317 -85 -177 -194 -499 -230 -681 -6 -33 -13 -60 -14 -60 -2 0 -54 32 -116
71 -63 39 -161 94 -218 122 -99 49 -108 52 -180 51 -168 -2 -403 -97 -544
-221 -215 -188 -297 -251 -469 -354 -209 -127 -350 -175 -478 -164 -116 11
-254 50 -365 104 -122 60 -185 113 -220 186 -21 45 -30 55 -50 55 -50 0 -81
-127 -72 -299 6 -120 31 -211 76 -283 34 -54 145 -145 310 -256 l114 -76 -79
-13 c-432 -72 -812 -280 -1102 -603 -346 -387 -588 -843 -757 -1425 -54 -187
-150 -620 -164 -740 -49 -416 -34 -1475 25 -1800 40 -217 64 -481 64 -705 0
-120 8 -177 24 -183 6 -2 92 22 191 54 99 32 181 56 184 54 2 -3 21 -71 41
-152 74 -289 144 -447 247 -553 35 -35 63 -65 63 -66 0 0 -45 -4 -99 -8 -168
-12 -432 -43 -442 -53 -8 -8 4 -399 17 -522 l6 -54 116 7 c65 3 154 9 198 13
l81 6 14 -119 c18 -154 18 -668 1 -869 -8 -82 -24 -242 -36 -355 -15 -136 -20
-209 -13 -218 7 -9 84 -12 326 -12 174 0 321 4 328 8 13 8 26 170 46 567 l12
240 40 0 c175 0 1106 -17 1208 -22 121 -6 127 -7 127 -27 0 -34 118 -737 125
-744 10 -10 609 48 622 61 9 9 5 41 -17 134 -90 391 -146 810 -157 1171 l-6
214 146 -7 c123 -6 147 -5 152 7 4 11 -62 421 -91 560 -5 25 -10 27 -67 32
-65 6 -584 24 -799 28 -71 1 -128 5 -128 8 1 5 704 442 1044 649 632 383 1052
611 1232 667 71 22 86 24 124 14 l43 -11 -42 -43 c-63 -64 -55 -82 59 -126 30
-12 57 -23 59 -25 2 -2 -20 -48 -49 -102 -28 -54 -235 -505 -458 -1002 l-407
-905 -182 -40 c-100 -23 -187 -45 -192 -51 -11 -12 94 -742 110 -761 8 -10 25
-7 81 12 39 13 75 24 80 24 4 0 8 -67 8 -149 0 -85 4 -152 10 -156 16 -10 720
-114 735 -109 9 4 15 35 20 102 3 53 9 112 13 130 l7 32 155 -76 c85 -42 178
-85 205 -96 54 -22 155 -30 825 -63 184 -9 340 -21 347 -26 7 -7 38 -7 88 0
42 6 113 11 158 11 45 1 100 7 122 15 22 8 54 15 72 15 69 0 63 -101 63 1080
l0 1069 43 6 c105 14 447 36 710 45 441 15 958 -8 1371 -60 81 -10 150 -20
151 -22 2 -2 -3 -138 -11 -303 -34 -743 -74 -1638 -74 -1674 0 -29 5 -41 18
-45 9 -3 115 -8 234 -12 181 -6 218 -4 223 7 2 8 45 468 95 1024 50 556 94
1052 99 1103 4 51 11 95 14 99 4 3 79 0 167 -7 l161 -13 32 38 c40 49 42 59
63 294 14 162 14 203 4 247 -8 32 -19 56 -29 58 -9 3 -97 15 -196 27 -99 11
-181 22 -182 23 -1 1 4 24 12 51 20 66 22 1157 3 1172 -7 6 -129 18 -271 27
-281 19 -317 26 -436 93 -87 48 -165 123 -197 188 -22 46 -26 71 -31 183 -3
72 0 257 7 412 10 238 10 284 -1 291 -23 14 -356 11 -366 -3 -4 -7 -24 -62
-44 -123 -21 -60 -44 -127 -53 -148 l-16 -37 -43 26 c-23 15 -43 28 -45 29 -2
2 4 17 12 34 25 47 20 88 -13 122 -35 35 -77 38 -113 9 -37 -28 -178 -270
-178 -304 0 -40 49 -86 93 -86 38 0 82 29 92 61 8 23 16 21 74 -16 l41 -25
-16 -33 c-42 -80 -157 -240 -234 -324 l-41 -43 -39 31 c-43 35 -48 50 -25 69
8 7 15 29 15 49 0 48 -33 81 -79 81 -38 0 -57 -18 -160 -146 -54 -66 -62 -82
-59 -110 4 -33 4 -33 -14 -14 -25 26 -64 35 -94 21 -32 -14 -230 -187 -238
-207 -35 -91 64 -161 145 -103 29 20 31 20 50 4 10 -10 19 -21 19 -26 0 -7
-254 -150 -290 -163 -10 -4 -21 5 -33 25 l-17 31 37 33 c30 26 37 39 37 69 0
48 -40 90 -86 90 -37 0 -234 -116 -280 -165 -38 -39 -37 -81 1 -120 33 -33 67
-37 112 -14 32 17 43 14 59 -16 10 -18 -2 -25 -136 -89 -81 -39 -149 -68 -152
-65 -3 3 -15 22 -28 42 l-23 38 35 30 c43 38 52 79 25 122 -14 23 -30 34 -56
39 -32 6 -47 -1 -142 -57 -58 -35 -124 -81 -146 -101 -36 -34 -39 -41 -34 -75
11 -69 73 -98 136 -65 l39 21 14 -22 c8 -12 17 -27 21 -33 4 -8 -22 -23 -76
-44 -45 -18 -88 -38 -95 -45 -8 -7 -34 -106 -58 -221 -43 -201 -44 -209 -29
-247 9 -22 15 -41 13 -42 -2 -1 -74 -5 -161 -8 -122 -5 -158 -3 -154 6 3 7 30
68 60 137 99 229 102 241 101 435 0 149 -4 184 -28 290 -65 280 -156 481 -274
607 -94 101 -171 117 -379 77 -168 -31 -558 -137 -842 -228 -52 -17 -96 -29
-98 -28 -1 2 220 145 492 318 272 173 496 319 499 325 2 6 -4 30 -14 53 l-19
41 171 86 170 85 89 -25 c144 -42 218 -84 368 -213 63 -54 96 -91 124 -141 60
-104 124 -261 163 -400 19 -70 39 -137 44 -149 17 -42 115 -33 163 15 l29 29
-22 109 c-30 151 -74 318 -109 408 -35 90 -25 90 61 -2 63 -68 125 -181 165
-303 16 -46 32 -90 36 -97 5 -6 26 -12 47 -12 30 0 48 8 75 32 l37 32 -7 70
c-15 150 -68 287 -170 436 -31 45 -54 84 -52 86 1 2 21 -6 44 -17 46 -22 88
-79 172 -227 62 -108 96 -152 119 -152 22 1 122 61 135 81 18 29 -134 313
-269 505 l-43 60 155 38 c152 36 156 37 177 19 12 -10 60 -53 106 -96 109
-102 153 -131 185 -123 25 6 96 88 96 110 0 20 -206 242 -277 299 -153 123
-154 123 -489 3 -148 -53 -275 -96 -282 -96 -8 0 -176 84 -373 186 -357 185
-360 186 -422 185 -112 -2 -147 -18 -392 -180 l-230 -152 -27 60 c-15 34 -33
61 -40 61 -7 0 -56 -39 -108 -87 -528 -486 -851 -753 -1009 -832 -141 -71
-449 -195 -776 -313 -239 -86 -473 -166 -538 -183 -58 -15 -70 -23 -89 -53
-28 -46 -77 -102 -89 -102 -5 0 -9 35 -9 78 0 75 -1 78 -29 95 -53 31 -117 16
-180 -42 -18 -18 -35 -30 -37 -29 -11 12 -91 706 -82 713 2 1 63 24 137 50
189 69 318 152 355 230 20 41 21 17 -15 390 -29 298 -24 536 14 677 29 111 84
222 159 323 97 130 474 493 493 473 2 -2 0 -98 -5 -213 -17 -369 -17 -359 2
-363 15 -3 474 246 602 326 l39 24 -7 162 c-4 88 -9 189 -13 223 l-6 63 49 21
c104 45 322 112 379 116 59 5 61 4 105 -35 62 -54 147 -176 284 -406 63 -106
132 -209 153 -229 21 -21 63 -47 93 -58 95 -36 267 -26 360 21 42 22 187 170
334 342 63 74 114 124 120 121 6 -4 45 -29 86 -55 41 -26 96 -55 121 -63 44
-15 50 -14 102 5 l56 21 141 425 c77 233 156 457 176 497 54 108 215 397 220
397 3 0 26 -14 51 -31 167 -115 466 -97 598 37 21 22 50 64 64 94 25 52 26 63
25 205 0 133 -4 160 -28 240 -51 169 -114 282 -220 393 -77 81 -160 141 -316
232 -143 82 -190 122 -190 160 0 145 -340 440 -731 634 -267 133 -453 175
-638 145z m-996 -2111 c-14 -46 -65 -150 -96 -193 -40 -56 -147 -141 -241
-193 -105 -58 -102 -59 -108 23 l-5 70 -104 -1 c-62 0 -99 3 -90 8 8 5 102 56
209 114 107 58 206 116 221 130 14 13 36 24 50 25 13 0 51 9 84 19 83 24 88
24 80 -2z m-1020 -448 c3 -5 1 -10 -4 -10 -6 0 -11 5 -11 10 0 6 2 10 4 10 3
0 8 -4 11 -10z m4394 -3598 l33 -28 -63 -51 c-35 -27 -86 -64 -112 -82 l-48
-33 -33 38 -33 39 28 26 c22 20 29 36 29 64 0 35 0 36 22 21 33 -23 73 -20
105 9 15 13 30 24 33 24 3 0 20 -12 39 -27z m-1914 -1790 c0 -186 3 -235 17
-272 9 -25 19 -58 23 -74 l6 -29 122 7 c67 4 131 8 142 9 23 2 17 115 60
-1126 15 -423 24 -771 21 -774 -11 -11 -268 17 -349 37 -152 38 -294 112 -535
278 -111 76 -121 85 -105 97 17 13 16 26 -18 300 -21 158 -41 291 -46 296 -6
6 -26 6 -54 0 -24 -5 -45 -8 -47 -7 -2 2 76 154 173 337 96 184 267 517 378
741 111 223 204 407 207 407 3 1 5 -101 5 -227z m-3260 -1349 c4 -76 11 -178
15 -228 5 -49 7 -91 4 -94 -4 -5 -955 -29 -1186 -30 l-118 -1 0 143 c0 78 3
186 7 239 l6 98 156 3 c86 1 370 4 632 5 l477 2 7 -137z"/>
<path d="M11125 7029 c-380 -38 -726 -158 -1025 -356 -309 -205 -628 -534
-890 -919 -50 -73 -90 -136 -90 -140 0 -5 21 12 48 38 171 165 541 437 805
592 123 73 335 174 449 215 191 70 415 109 547 96 253 -26 558 -141 769 -292
157 -112 316 -281 382 -407 14 -25 28 -45 32 -44 3 2 146 149 318 328 l311
325 -33 28 c-18 16 -80 64 -137 107 -439 331 -961 482 -1486 429z"/>
<path d="M9525 5790 c-288 -46 -467 -209 -545 -496 -31 -112 -39 -334 -15
-423 24 -92 59 -157 119 -217 125 -124 339 -180 601 -155 135 13 241 33 256
48 13 13 151 1090 147 1142 -3 30 -8 36 -43 48 -133 46 -395 72 -520 53z"/>
</g>
</svg>
