<?xml version="1.0" standalone="no"?>
<!DOCTYPE svg PUBLIC "-//W3C//DTD SVG 20010904//EN"
 "http://www.w3.org/TR/2001/REC-SVG-20010904/DTD/svg10.dtd">
<svg version="1.0" xmlns="http://www.w3.org/2000/svg"
 width="1280.000000pt" height="893.000000pt" viewBox="0 0 1280.000000 893.000000"
 preserveAspectRatio="xMidYMid meet">
<g transform="translate(0.000000,893.000000) scale(0.100000,-0.100000)"
fill="#9c27b0" stroke="none">
<path d="M3689 8891 c-36 -15 -110 -51 -165 -81 -182 -99 -269 -140 -296 -140
-64 0 -17 50 142 152 94 60 144 106 80 73 -107 -55 -280 -201 -280 -237 0 -26
-75 -99 -200 -193 -235 -176 -517 -429 -686 -615 -89 -98 -112 -131 -80 -113
8 4 106 88 218 185 303 264 418 347 643 464 310 161 824 350 858 315 9 -10 5
-19 -23 -42 -50 -42 -19 -38 105 15 132 57 274 102 511 165 195 51 252 69 223
70 -32 2 -185 -30 -454 -94 -149 -35 -413 -96 -587 -135 -174 -38 -355 -81
-402 -95 -101 -29 -96 -29 -96 -11 0 24 165 123 430 256 89 45 157 90 135 89
-5 0 -40 -13 -76 -28z"/>
<path d="M5974 8912 c4 -7 73 -33 154 -58 194 -62 333 -114 461 -175 112 -53
154 -60 82 -15 -142 90 -728 298 -697 248z"/>
<path d="M7170 8903 c0 -5 23 -24 52 -43 29 -19 95 -67 148 -105 52 -39 111
-81 130 -94 30 -20 29 -17 -10 18 -105 97 -320 247 -320 224z"/>
<path d="M7880 8893 c0 -25 35 -126 98 -283 57 -142 116 -328 163 -509 40
-159 76 -244 144 -346 139 -209 373 -361 760 -492 249 -84 456 -139 705 -188
375 -73 764 -264 1160 -571 166 -129 394 -360 523 -531 141 -186 163 -203 80
-59 -165 288 -335 490 -570 677 -172 137 -349 239 -685 395 -258 120 -260 124
-27 94 373 -49 846 -176 1191 -322 331 -140 617 -421 794 -782 59 -119 125
-312 145 -421 18 -95 21 -57 11 105 -9 136 -6 174 15 148 22 -28 96 -206 114
-275 41 -164 47 -366 14 -508 -7 -33 -12 -62 -10 -64 8 -8 47 68 68 134 17 55
22 94 21 185 0 295 -131 611 -359 870 -108 123 -149 190 -114 190 31 0 271
-265 405 -446 107 -144 171 -290 225 -508 16 -65 31 -121 34 -124 7 -7 -5 142
-16 208 -31 172 -124 357 -274 545 -82 104 -313 333 -450 448 -245 205 -586
442 -773 537 -119 60 -145 69 -140 45 1 -10 46 -45 99 -79 140 -89 156 -102
142 -117 -9 -9 -47 1 -170 44 -212 76 -374 121 -578 162 -230 46 -373 64 -610
76 -416 20 -731 82 -1045 206 -262 103 -443 214 -591 362 -80 80 -98 104 -110
146 -17 59 -18 233 -5 640 8 249 7 286 -8 337 -14 50 -50 97 -64 83 -3 -2 10
-57 29 -122 30 -108 33 -130 33 -258 0 -80 -6 -166 -13 -200 -38 -174 -91
-147 -151 76 -53 204 -138 420 -189 486 -19 23 -21 23 -21 6z"/>
<path d="M7747 8790 c-3 -8 -22 -87 -42 -176 -41 -188 -91 -351 -147 -484 -23
-52 -47 -117 -55 -145 -25 -91 -43 -239 -43 -353 0 -106 1 -112 18 -103 26 14
48 -4 113 -86 163 -208 214 -259 350 -341 191 -117 388 -166 724 -182 253 -12
362 -25 550 -61 228 -45 495 -122 710 -206 189 -74 533 -245 542 -270 13 -34
-17 -30 -122 13 -325 135 -390 146 -1070 179 -357 17 -531 30 -700 51 -627 78
-899 266 -1074 739 -30 78 -30 79 -24 30 9 -79 51 -215 85 -275 146 -260 409
-424 809 -504 203 -41 371 -56 754 -66 616 -16 807 -44 1196 -180 181 -63 209
-69 209 -45 0 22 7 19 63 -30 29 -25 60 -45 70 -45 30 0 90 -36 218 -131 68
-50 131 -97 139 -103 43 -31 -37 46 -115 112 -568 477 -1236 749 -2035 827
-372 36 -460 47 -569 71 -255 57 -416 141 -563 292 -112 115 -217 290 -232
387 -10 60 14 164 98 428 81 253 115 379 141 520 15 83 17 170 2 137z"/>
<path d="M6980 8716 c0 -8 20 -43 45 -78 103 -146 135 -241 135 -410 0 -53 4
-99 9 -102 15 -9 54 156 59 249 4 80 1 97 -21 150 -26 61 -26 75 -3 75 38 0
96 -75 186 -240 60 -111 75 -130 66 -81 -19 102 -136 280 -230 351 -56 43
-183 99 -223 100 -14 0 -23 -6 -23 -14z"/>
<path d="M5008 8679 c-49 -4 -152 -19 -230 -33 -160 -28 -373 -49 -678 -66
-305 -17 -458 -48 -597 -119 -39 -20 -69 -46 -41 -36 24 8 441 84 563 102 92
13 186 18 400 18 292 0 362 -6 596 -51 500 -96 995 -332 1393 -665 251 -210
412 -410 524 -649 65 -137 92 -216 153 -434 189 -686 444 -1222 776 -1636 150
-187 210 -275 227 -331 2 -10 21 -19 46 -23 47 -7 89 -27 138 -63 39 -29 34
-43 -16 -43 -50 0 -139 44 -250 125 -52 37 -95 65 -98 63 -2 -3 13 -37 33 -76
33 -66 35 -74 21 -88 -13 -13 -22 -14 -58 -4 -23 6 -45 9 -48 6 -3 -3 -6 -25
-6 -48 -1 -36 -6 -45 -34 -64 -43 -30 -156 -66 -317 -103 -71 -16 -142 -34
-157 -40 -42 -16 -57 -48 -64 -141 -8 -111 -38 -177 -113 -255 -70 -71 -76
-82 -90 -159 -6 -32 -32 -104 -57 -160 -61 -133 -121 -288 -178 -463 -71 -217
-64 -265 55 -379 97 -92 224 -172 395 -246 74 -33 182 -63 191 -54 2 2 -23 20
-56 40 -98 60 -369 252 -433 308 -76 65 -108 121 -115 197 -7 74 4 120 72 291
31 78 59 167 66 210 7 42 19 83 29 93 10 11 41 22 79 27 35 5 66 11 69 14 2 3
-7 32 -22 65 -43 97 -38 116 61 228 84 94 131 174 139 235 9 68 34 95 92 104
72 10 165 41 302 99 131 56 225 87 234 78 3 -3 -22 -28 -55 -55 -86 -73 -79
-98 27 -95 71 1 165 -46 339 -172 152 -110 266 -172 360 -197 81 -21 341 -30
418 -15 109 23 66 64 -138 131 -206 67 -400 176 -494 274 -45 48 -51 60 -51
97 0 41 0 42 33 36 17 -3 113 -41 212 -85 208 -92 293 -124 425 -158 178 -46
268 -56 585 -61 337 -6 388 7 105 26 -372 25 -668 70 -830 126 -454 157 -879
491 -1182 930 -165 238 -378 638 -378 710 0 28 28 15 68 -30 21 -24 98 -127
170 -227 157 -221 256 -341 422 -512 350 -360 675 -584 976 -671 97 -28 269
-55 345 -54 50 0 45 2 -57 23 -443 92 -844 323 -1224 706 -152 152 -248 266
-435 515 -163 217 -256 322 -288 327 -20 3 -22 8 -19 54 3 45 -3 64 -52 165
-31 63 -81 193 -112 289 -153 479 -229 678 -344 896 -32 61 -70 139 -85 174
-24 57 -25 64 -11 79 15 14 23 9 94 -65 42 -44 161 -188 263 -319 102 -132
194 -247 204 -255 26 -20 -54 127 -113 210 -98 137 -239 289 -642 690 -418
417 -467 473 -440 505 8 10 22 13 39 9 85 -20 364 -165 513 -266 288 -196 567
-567 687 -912 37 -106 54 -178 81 -351 38 -239 90 -421 180 -626 198 -450 559
-843 960 -1044 239 -120 629 -251 805 -270 89 -9 54 6 -141 64 -295 87 -480
162 -684 277 -385 218 -642 484 -835 868 -87 172 -132 307 -225 671 -39 154
-91 339 -115 411 -144 435 -370 747 -700 969 -168 112 -444 221 -685 269 -313
63 -706 89 -972 65z m562 -79 c111 -14 217 -43 288 -79 128 -65 374 -263 539
-434 118 -123 167 -186 228 -293 81 -141 57 -140 -106 7 -370 332 -724 520
-1339 710 -247 76 -270 86 -248 101 17 12 524 2 638 -12z"/>
<path d="M3194 8346 c-45 -21 -77 -46 -59 -46 10 0 125 60 125 65 0 9 -15 5
-66 -19z"/>
<path d="M7303 8195 c0 -33 2 -45 4 -27 2 18 2 45 0 60 -2 15 -4 0 -4 -33z"/>
<path d="M6195 7659 c-583 -88 -1351 -234 -1810 -344 -748 -180 -1261 -398
-1793 -761 -293 -200 -501 -371 -732 -603 -147 -148 -167 -174 -214 -280 -6
-13 -42 -50 -81 -83 -82 -71 -95 -88 -66 -88 12 0 49 24 83 54 234 203 981
639 1420 827 675 290 1349 458 2115 525 265 24 246 39 -36 30 -577 -20 -997
-95 -1576 -281 -299 -96 -382 -120 -482 -140 -104 -20 -216 -80 -462 -247
-607 -412 -743 -498 -788 -498 -73 0 40 130 302 350 781 653 1528 996 2680
1229 83 16 309 57 502 90 456 79 1049 204 1072 226 7 7 -67 4 -134 -6z"/>
<path d="M5100 7253 c-395 -22 -895 -128 -1275 -271 -313 -117 -726 -323 -794
-396 -14 -14 -20 -26 -14 -26 5 0 72 27 149 61 902 393 1305 506 2153 604 118
14 217 27 219 30 6 5 -341 4 -438 -2z"/>
<path d="M5535 6553 c-56 -29 -268 -155 -545 -323 -781 -474 -1236 -714 -1630
-860 -184 -69 -596 -178 -612 -162 -13 13 -8 16 212 143 285 164 552 347 667
455 47 45 46 44 -47 -18 -522 -353 -1186 -629 -1737 -723 -165 -28 -446 -56
-456 -46 -7 7 -2 14 14 20 13 6 109 44 214 86 283 113 478 221 703 390 149
112 431 393 373 374 -6 -2 -68 -52 -138 -110 -266 -221 -480 -361 -744 -488
-301 -145 -547 -216 -898 -260 -241 -31 -237 -24 64 94 372 147 743 340 1075
560 216 143 311 216 410 314 99 97 90 93 -175 -89 -350 -240 -518 -341 -786
-469 -339 -162 -692 -283 -1191 -407 -225 -56 -288 -76 -288 -92 0 -38 469
-58 940 -42 454 15 673 37 1280 131 263 40 320 45 320 30 0 -13 -47 -51 -132
-106 -265 -174 -397 -265 -498 -345 -665 -528 -1198 -1277 -1438 -2020 -62
-191 -123 -449 -121 -509 1 -24 2 -23 20 14 10 22 51 139 90 260 117 362 260
700 321 760 l20 20 -5 -40 c-2 -22 -18 -119 -36 -215 -63 -353 -75 -559 -46
-834 34 -322 115 -614 244 -881 87 -180 207 -355 232 -339 17 10 9 83 -28 266
-34 168 -37 197 -37 358 -1 144 3 194 22 283 52 251 129 512 173 584 51 83
328 148 679 160 491 16 970 -99 1474 -355 276 -140 307 -154 312 -149 9 9
-111 102 -208 163 -139 86 -373 196 -553 258 -197 69 -205 73 -205 87 0 16
111 6 255 -21 266 -52 597 -179 919 -352 190 -103 230 -114 104 -30 -99 65
-139 88 -313 175 -276 138 -534 233 -772 284 -126 27 -134 28 -458 27 -421 -1
-918 -31 -1060 -64 -57 -13 -69 4 -27 40 28 23 32 31 24 47 -22 41 76 185 235
349 154 158 286 229 643 348 735 245 1539 408 2206 447 209 12 679 -2 698 -21
6 -6 -48 -38 -165 -94 -450 -216 -905 -365 -1518 -496 -106 -23 -203 -45 -215
-50 -37 -15 164 -11 291 5 508 67 1018 254 1567 574 127 74 196 109 210 106
12 -3 107 -16 211 -31 334 -45 561 -87 835 -154 190 -46 205 -36 28 19 -283
87 -720 182 -933 202 -136 13 -803 18 -1240 9 -155 -3 -242 -1 -245 5 -5 11 2
13 370 125 829 252 1419 574 2044 1114 211 182 265 238 121 126 -581 -454
-1015 -714 -1616 -968 -239 -101 -289 -115 -289 -82 0 5 60 48 133 96 263 173
404 290 673 558 110 111 268 280 350 376 214 251 334 379 495 526 200 182 570
574 542 574 -16 0 -234 -203 -442 -411 -255 -255 -429 -442 -584 -629 -431
-519 -1047 -982 -1642 -1233 -71 -31 -154 -62 -183 -71 -48 -14 -53 -14 -59 1
-9 22 22 45 197 150 325 194 478 309 675 507 125 125 300 327 340 391 27 44
-218 -200 -267 -265 -23 -30 -55 -68 -72 -83 -91 -84 -440 -330 -634 -446
-256 -154 -663 -298 -1161 -411 -427 -96 -684 -196 -941 -368 -212 -141 -335
-257 -562 -535 -127 -155 -306 -354 -407 -452 -56 -54 -64 -75 -28 -75 34 0
67 -28 67 -56 0 -14 -18 -96 -40 -182 -70 -277 -96 -491 -103 -851 -1 -79 -6
-126 -13 -128 -10 -3 -114 234 -169 387 -38 106 -82 284 -106 424 -27 156 -37
524 -20 688 58 543 243 1006 533 1338 475 542 1149 892 2108 1095 85 18 139
34 120 34 -94 2 -460 -56 -655 -105 -128 -32 -201 -55 -357 -115 -130 -50
-188 -61 -188 -35 0 75 526 300 1190 511 668 211 1395 479 1618 595 103 54 50
42 -111 -26 -267 -112 -868 -314 -936 -314 -6 0 -11 7 -11 15 0 19 55 55 225
150 77 43 199 115 270 159 180 111 695 455 840 561 150 109 166 123 100 88z
m-1896 -2824 c42 -15 40 -36 -6 -45 -64 -12 -122 25 -71 45 31 13 40 13 77 0z
m-139 -49 c0 -5 -73 -32 -162 -61 -90 -28 -394 -125 -676 -215 -282 -90 -523
-164 -537 -164 -14 0 -25 4 -25 9 0 38 400 262 615 345 110 42 232 74 328 85
103 12 457 13 457 1z"/>
<path d="M7890 6379 c336 -308 1025 -625 1670 -768 187 -41 417 -74 399 -57
-2 2 -83 21 -179 41 -671 140 -1280 392 -1792 741 -75 52 -141 94 -145 94 -4
-1 17 -24 47 -51z"/>
<path d="M9698 5043 c12 -2 32 -2 45 0 12 2 2 4 -23 4 -25 0 -35 -2 -22 -4z"/>
<path d="M9818 4583 c12 -2 30 -2 40 0 9 3 -1 5 -23 4 -22 0 -30 -2 -17 -4z"/>
<path d="M10457 4314 c-12 -12 4 -24 34 -24 34 0 39 15 7 24 -29 7 -33 7 -41
0z"/>
<path d="M10355 4100 c-27 -27 -46 -52 -44 -55 9 -8 72 43 92 75 28 45 7 36
-48 -20z"/>
<path d="M11286 3994 c-41 -40 -41 -62 0 -23 24 22 49 59 41 59 -2 0 -21 -16
-41 -36z"/>
<path d="M10843 3678 c-594 -392 -1300 -745 -1904 -953 -507 -174 -1091 -319
-1449 -360 -192 -22 -435 -17 -409 9 2 3 99 18 214 35 348 50 595 107 875 200
287 96 622 245 875 390 304 174 627 410 856 626 85 80 80 77 -56 -32 -663
-530 -1336 -868 -2100 -1053 -283 -69 -464 -100 -794 -135 -123 -13 -226 -27
-229 -30 -3 -3 1 -5 10 -5 44 0 552 -80 560 -88 12 -12 -374 -245 -525 -318
-144 -70 -207 -77 -582 -71 -352 6 -472 19 -765 83 -435 96 -888 277 -1340
537 -249 144 -483 234 -725 280 -216 42 -355 51 -694 44 -406 -8 -578 -29
-771 -93 -116 -39 -297 -121 -287 -130 3 -4 64 12 134 34 611 194 1196 202
1743 26 246 -79 394 -147 775 -359 121 -67 236 -128 255 -135 19 -7 91 -49
160 -93 266 -170 535 -290 852 -382 397 -115 884 -134 1359 -54 64 10 143 28
175 39 l59 20 -50 -5 c-263 -26 -841 -27 -1120 -4 -212 18 -431 68 -738 170
-157 52 -207 73 -207 89 0 18 58 10 218 -29 87 -22 214 -46 283 -55 381 -48
1341 -48 1643 0 236 38 816 236 993 340 l48 28 -33 8 c-17 5 -32 13 -32 18 0
15 73 65 118 79 56 19 76 9 68 -30 -5 -27 -4 -30 12 -24 72 30 186 63 362 106
113 27 261 64 330 80 425 105 1043 338 1430 540 140 74 304 172 345 206 l30
25 -50 -27 c-27 -15 -106 -58 -175 -96 -498 -273 -1252 -536 -1899 -663 -353
-70 -761 -120 -783 -98 -19 19 1 28 152 63 74 17 200 47 280 66 820 200 1875
685 2485 1144 176 133 183 146 18 37z m-2912 -1383 c44 -7 87 -19 95 -26 96
-80 -290 -224 -911 -339 -309 -57 -329 -43 -118 85 162 99 224 145 293 216 30
31 66 60 80 65 83 26 412 25 561 -1z"/>
<path d="M3160 2957 c0 -10 93 -35 305 -82 486 -108 853 -141 1460 -132 410 6
629 24 935 78 268 46 608 124 596 136 -2 2 -55 -5 -117 -16 -719 -128 -1570
-163 -2319 -96 -269 25 -663 78 -827 111 -18 4 -33 4 -33 1z"/>
<path d="M11997 2208 c-31 -41 -60 -98 -54 -105 6 -6 50 52 72 95 22 46 13 51
-18 10z"/>
<path d="M12738 2003 c-19 -21 -68 -81 -108 -133 -307 -404 -755 -767 -1261
-1021 -338 -170 -613 -262 -964 -323 -201 -35 -201 -31 -7 85 415 249 775 540
1090 883 160 173 370 446 344 446 -5 0 -16 -9 -23 -19 -8 -10 -97 -115 -199
-232 -479 -554 -838 -846 -1370 -1113 -226 -113 -399 -184 -744 -305 -325
-115 -576 -217 -576 -236 0 -9 48 5 325 95 491 160 707 223 1135 330 509 127
780 221 1085 379 339 175 577 351 870 645 199 201 387 426 444 534 18 33 -1
27 -41 -15z"/>
<path d="M4020 1836 c0 -6 86 -66 94 -66 20 0 -1 21 -44 44 -27 15 -50 25 -50
22z"/>
<path d="M8615 1674 c-298 -132 -473 -203 -665 -269 -636 -218 -1317 -325
-1820 -286 -476 37 -976 179 -1570 446 -221 99 -262 116 -267 112 -7 -7 302
-165 592 -302 160 -76 296 -143 303 -148 7 -6 9 -14 5 -18 -5 -5 -83 -18 -173
-30 -141 -18 -189 -20 -335 -14 -295 13 -351 6 -515 -64 -150 -64 -334 -200
-434 -319 -136 -163 -305 -503 -331 -667 -6 -37 -5 -39 9 -21 8 10 36 69 62
130 112 267 202 414 339 551 178 179 434 307 583 292 65 -7 147 -45 187 -87
25 -26 27 -34 19 -57 -5 -15 -73 -85 -151 -157 -149 -137 -256 -255 -340 -378
-84 -122 -123 -208 -94 -208 5 0 42 48 82 108 97 144 181 242 341 398 134 131
227 204 261 204 73 0 685 -377 1137 -701 146 -104 247 -165 257 -155 4 4 -22
35 -58 69 -177 172 -704 517 -1185 776 -210 113 -261 148 -251 174 9 25 57 22
227 -13 498 -102 1167 -357 1625 -620 55 -31 111 -63 125 -70 23 -12 24 -12
11 4 -44 53 -252 181 -516 317 -341 175 -656 308 -870 365 -147 39 -178 55
-173 87 5 39 51 52 178 50 123 -2 274 -26 540 -87 389 -89 606 -111 1110 -111
531 0 700 18 1156 126 138 32 260 59 272 59 35 0 26 -24 -40 -107 -114 -140
-172 -168 -369 -181 l-114 -7 195 -64 c107 -34 201 -68 208 -76 12 -10 -4 -32
-90 -127 -269 -297 -446 -524 -424 -545 9 -9 76 65 224 245 271 331 568 623
927 911 208 167 342 261 613 430 72 45 132 84 132 87 0 4 -90 -37 -290 -134
-550 -265 -1300 -479 -1943 -552 -180 -21 -551 -28 -561 -11 -12 19 28 31 258
76 442 86 763 175 1046 290 326 133 865 393 820 395 -3 0 -122 -52 -265 -116z
m263 -338 c-2 -7 -101 -98 -221 -200 -359 -307 -424 -354 -473 -342 -29 8 -47
40 -38 68 17 55 178 196 336 294 82 51 369 193 391 194 5 0 7 -6 5 -14z"/>
<path d="M8810 644 c-95 -71 -360 -293 -360 -300 0 -7 4 -3 245 191 192 157
201 164 195 165 -3 0 -39 -25 -80 -56z"/>
<path d="M4733 420 c-44 -127 -89 -391 -65 -376 28 17 89 310 80 383 l-3 28
-12 -35z"/>
<path d="M6954 349 c-104 -73 -327 -268 -346 -302 -10 -19 -9 -19 22 -1 93 54
425 344 394 344 -6 0 -37 -19 -70 -41z"/>
<path d="M5365 96 c-28 -28 -31 -46 -13 -64 31 -31 72 3 66 55 -4 36 -23 39
-53 9z"/>
</g>
</svg>
